M48
; DRILL file {KiCad (5.1.4)-1} date 1/29/2022 10:25:16 PM
; FORMAT={-:-/ absolute / inch / decimal}
; #@! TF.CreationDate,2022-01-29T22:25:16-05:00
; #@! TF.GenerationSoftware,Kicad,Pcbnew,(5.1.4)-1
; #@! TF.FileFunction,NonPlated,1,2,NPTH
FMAT,2
INCH
T1C0.0689
T2C0.0945
T3C0.2559
%
G90
G05
T3
X5.8984Y9.6134
X1.3406Y5.1082
X4.5169Y6.4953
X3.7791Y6.3246
X6.6657Y9.7111
X7.5071Y11.6221
X1.04Y11.0005
X4.0593Y5.631
X0.2727Y11.0982
X-0.8489Y12.3157
X0.7598Y10.3069
X0.5529Y11.7918
X-0.7748Y10.5023
X5.3832Y-0.3629
X1.6209Y5.8018
X5.0773Y5.1082
X2.3587Y5.631
X1.9011Y6.4953
X5.6181Y10.3069
X7.1527Y10.5023
X-0.2877Y9.7111
X5.3379Y11.0005
X2.0785Y4.9375
X7.7873Y10.9286
X-0.4946Y11.1959
X1.3203Y11.6941
X-0.2144Y11.8895
X5.825Y11.7918
X1.6322Y-0.8131
X6.5923Y11.8895
X2.6389Y6.3246
X7.2269Y12.3157
X-0.0075Y10.4046
X5.0577Y11.6941
X6.1052Y11.0982
X1.0348Y-0.3629
X6.8725Y11.1959
X-1.1291Y11.6221
X6.3854Y10.4046
X4.3395Y4.9375
X4.7959Y5.8047
X-1.4094Y10.9286
X0.4796Y9.6134
X4.7858Y-0.8131
T1
G00X7.0266Y12.2348
M15
G01X7.0421Y12.241
M16
G05
G00X7.4117Y12.3904
M15
G01X7.4272Y12.3966
M16
G05
G00X-0.2078Y10.4856
M15
G01X-0.1923Y10.4793
M16
G05
G00X0.1773Y10.33
M15
G01X0.1928Y10.3237
M16
G05
G00X4.8574Y11.6131
M15
G01X4.8729Y11.6194
M16
G05
G00X5.2425Y11.7687
M15
G01X5.258Y11.775
M16
G05
G00X5.9049Y11.0173
M15
G01X5.9204Y11.0235
M16
G05
G00X6.29Y11.1729
M15
G01X6.3055Y11.1791
M16
G05
G00X0.8622Y-0.2329
M15
G01X0.8756Y-0.243
M16
G05
G00X1.1939Y-0.4829
M15
G01X1.2073Y-0.4929
M16
G05
G00X6.6722Y11.115
M15
G01X6.6877Y11.1212
M16
G05
G00X7.0573Y11.2706
M15
G01X7.0728Y11.2768
M16
G05
G00X-1.3295Y11.7031
M15
G01X-1.3139Y11.6968
M16
G05
G00X-0.9443Y11.5475
M15
G01X-0.9288Y11.5412
M16
G05
G00X6.1851Y10.3237
M15
G01X6.2006Y10.33
M16
G05
G00X6.5702Y10.4793
M15
G01X6.5858Y10.4856
M16
G05
G00X4.1392Y4.8565
M15
G01X4.1547Y4.8628
M16
G05
G00X4.5243Y5.0121
M15
G01X4.5398Y5.0184
M16
G05
G00X4.5956Y5.7238
M15
G01X4.6111Y5.7301
M16
G05
G00X4.9807Y5.8794
M15
G01X4.9962Y5.8857
M16
G05
G00X-1.6097Y11.0095
M15
G01X-1.5942Y11.0032
M16
G05
G00X-1.2246Y10.8539
M15
G01X-1.209Y10.8476
M16
G05
G00X0.2793Y9.6943
M15
G01X0.2948Y9.688
M16
G05
G00X0.6644Y9.5387
M15
G01X0.6799Y9.5324
M16
G05
G00X4.6132Y-0.9431
M15
G01X4.6266Y-0.933
M16
G05
G00X4.945Y-0.6931
M15
G01X4.9583Y-0.6831
M16
G05
G00X5.698Y9.5324
M15
G01X5.7136Y9.5387
M16
G05
G00X6.0832Y9.688
M15
G01X6.0987Y9.6943
M16
G05
G00X1.1403Y5.1891
M15
G01X1.1558Y5.1829
M16
G05
G00X1.5254Y5.0335
M15
G01X1.541Y5.0273
M16
G05
G00X4.3166Y6.4144
M15
G01X4.3321Y6.4206
M16
G05
G00X4.7017Y6.57
M15
G01X4.7172Y6.5762
M16
G05
G00X3.5788Y6.2437
M15
G01X3.5943Y6.2499
M16
G05
G00X3.9639Y6.3993
M15
G01X3.9794Y6.4055
M16
G05
G00X6.4653Y9.6301
M15
G01X6.4809Y9.6364
M16
G05
G00X6.8505Y9.7857
M15
G01X6.866Y9.792
M16
G05
G00X7.3068Y11.5412
M15
G01X7.3223Y11.5475
M16
G05
G00X7.6919Y11.6968
M15
G01X7.7074Y11.7031
M16
G05
G00X0.8397Y11.0814
M15
G01X0.8552Y11.0752
M16
G05
G00X1.2248Y10.9258
M15
G01X1.2403Y10.9196
M16
G05
G00X3.859Y5.5501
M15
G01X3.8745Y5.5564
M16
G05
G00X4.2441Y5.7057
M15
G01X4.2596Y5.712
M16
G05
G00X0.0724Y11.1791
M15
G01X0.0879Y11.1729
M16
G05
G00X0.4575Y11.0235
M15
G01X0.473Y11.0173
M16
G05
G00X-1.0492Y12.3966
M15
G01X-1.0337Y12.3904
M16
G05
G00X-0.6641Y12.241
M15
G01X-0.6486Y12.2348
M16
G05
G00X0.5595Y10.3879
M15
G01X0.575Y10.3816
M16
G05
G00X0.9446Y10.2323
M15
G01X0.9601Y10.226
M16
G05
G00X0.3526Y11.8727
M15
G01X0.3682Y11.8664
M16
G05
G00X0.7377Y11.7171
M15
G01X0.7533Y11.7108
M16
G05
G00X-0.9751Y10.5833
M15
G01X-0.9596Y10.577
M16
G05
G00X-0.59Y10.4277
M15
G01X-0.5745Y10.4214
M16
G05
G00X5.2106Y-0.4929
M15
G01X5.224Y-0.4829
M16
G05
G00X5.5424Y-0.243
M15
G01X5.5557Y-0.2329
M16
G05
G00X1.4206Y5.8827
M15
G01X1.4361Y5.8764
M16
G05
G00X1.8057Y5.7271
M15
G01X1.8212Y5.7208
M16
G05
G00X4.877Y5.0273
M15
G01X4.8925Y5.0335
M16
G05
G00X5.2621Y5.1829
M15
G01X5.2776Y5.1891
M16
G05
G00X2.1584Y5.712
M15
G01X2.1739Y5.7057
M16
G05
G00X2.5435Y5.5564
M15
G01X2.559Y5.5501
M16
G05
G00X1.7008Y6.5762
M15
G01X1.7163Y6.57
M16
G05
G00X2.0859Y6.4206
M15
G01X2.1014Y6.4144
M16
G05
G00X5.4178Y10.226
M15
G01X5.4333Y10.2323
M16
G05
G00X5.8029Y10.3816
M15
G01X5.8184Y10.3879
M16
G05
G00X6.9524Y10.4214
M15
G01X6.9679Y10.4277
M16
G05
G00X7.3375Y10.577
M15
G01X7.3531Y10.5833
M16
G05
G00X-0.488Y9.792
M15
G01X-0.4725Y9.7857
M16
G05
G00X-0.1029Y9.6364
M15
G01X-0.0874Y9.6301
M16
G05
G00X5.1376Y10.9196
M15
G01X5.1531Y10.9258
M16
G05
G00X5.5227Y11.0752
M15
G01X5.5382Y11.0814
M16
G05
G00X1.8781Y5.0184
M15
G01X1.8937Y5.0121
M16
G05
G00X2.2633Y4.8628
M15
G01X2.2788Y4.8565
M16
G05
G00X7.587Y10.8476
M15
G01X7.6025Y10.8539
M16
G05
G00X7.9721Y11.0032
M15
G01X7.9876Y11.0095
M16
G05
G00X-0.6949Y11.2768
M15
G01X-0.6794Y11.2706
M16
G05
G00X-0.3098Y11.1212
M15
G01X-0.2943Y11.115
M16
G05
G00X1.1199Y11.775
M15
G01X1.1355Y11.7687
M16
G05
G00X1.5051Y11.6194
M15
G01X1.5206Y11.6131
M16
G05
G00X-0.4147Y11.9704
M15
G01X-0.3992Y11.9641
M16
G05
G00X-0.0296Y11.8148
M15
G01X-0.014Y11.8085
M16
G05
G00X5.6247Y11.7108
M15
G01X5.6402Y11.7171
M16
G05
G00X6.0098Y11.8664
M15
G01X6.0253Y11.8727
M16
G05
G00X1.4596Y-0.6831
M15
G01X1.473Y-0.6931
M16
G05
G00X1.7913Y-0.933
M15
G01X1.8047Y-0.9431
M16
G05
G00X6.392Y11.8085
M15
G01X6.4075Y11.8148
M16
G05
G00X6.7771Y11.9641
M15
G01X6.7926Y11.9704
M16
G05
G00X2.4386Y6.4055
M15
G01X2.4541Y6.3993
M16
G05
G00X2.8237Y6.2499
M15
G01X2.8392Y6.2437
M16
G05
T2
G00X7.2819Y12.1796
M15
G01X7.273Y12.2015
M16
G05
G00X-0.0625Y10.2685
M15
G01X-0.0536Y10.2904
M16
G05
G00X5.1127Y11.5579
M15
G01X5.1038Y11.5798
M16
G05
G00X6.1602Y10.9621
M15
G01X6.1514Y10.984
M16
G05
G00X0.9464Y-0.4802
M15
G01X0.9606Y-0.4613
M16
G05
G00X6.9275Y11.0598
M15
G01X6.9187Y11.0817
M16
G05
G00X-1.1841Y11.486
M15
G01X-1.1753Y11.5079
M16
G05
G00X6.4404Y10.2685
M15
G01X6.4316Y10.2904
M16
G05
G00X4.3945Y4.8014
M15
G01X4.3856Y4.8233
M16
G05
G00X4.8509Y5.6686
M15
G01X4.842Y5.6905
M16
G05
G00X-1.4644Y10.7924
M15
G01X-1.4555Y10.8143
M16
G05
G00X0.4246Y9.4773
M15
G01X0.4335Y9.4992
M16
G05
G00X4.8741Y-0.9303
M15
G01X4.8599Y-0.9115
M16
G05
G00X5.9533Y9.4773
M15
G01X5.9445Y9.4992
M16
G05
G00X1.2856Y4.9721
M15
G01X1.2945Y4.994
M16
G05
G00X4.5719Y6.3592
M15
G01X4.563Y6.3811
M16
G05
G00X3.8341Y6.1885
M15
G01X3.8252Y6.2104
M16
G05
G00X6.7207Y9.575
M15
G01X6.7118Y9.5969
M16
G05
G00X7.5621Y11.486
M15
G01X7.5532Y11.5079
M16
G05
G00X0.985Y10.8644
M15
G01X0.9939Y10.8863
M16
G05
G00X4.1143Y5.4949
M15
G01X4.1054Y5.5168
M16
G05
G00X0.2177Y10.9621
M15
G01X0.2266Y10.984
M16
G05
G00X-0.9039Y12.1796
M15
G01X-0.8951Y12.2015
M16
G05
G00X0.7048Y10.1708
M15
G01X0.7137Y10.1927
M16
G05
G00X0.498Y11.6556
M15
G01X0.5068Y11.6775
M16
G05
G00X-0.8298Y10.3662
M15
G01X-0.8209Y10.3881
M16
G05
G00X5.4715Y-0.4802
M15
G01X5.4573Y-0.4613
M16
G05
G00X1.5659Y5.6656
M15
G01X1.5747Y5.6875
M16
G05
G00X5.1323Y4.9721
M15
G01X5.1235Y4.994
M16
G05
G00X2.3037Y5.4949
M15
G01X2.3125Y5.5168
M16
G05
G00X1.8461Y6.3592
M15
G01X1.8549Y6.3811
M16
G05
G00X5.6731Y10.1708
M15
G01X5.6643Y10.1927
M16
G05
G00X7.2077Y10.3662
M15
G01X7.1989Y10.3881
M16
G05
G00X-0.3427Y9.575
M15
G01X-0.3339Y9.5969
M16
G05
G00X5.3929Y10.8644
M15
G01X5.3841Y10.8863
M16
G05
G00X2.0235Y4.8014
M15
G01X2.0323Y4.8233
M16
G05
G00X7.8423Y10.7924
M15
G01X7.8335Y10.8143
M16
G05
G00X-0.5496Y11.0598
M15
G01X-0.5407Y11.0817
M16
G05
G00X1.2653Y11.5579
M15
G01X1.2741Y11.5798
M16
G05
G00X-0.2694Y11.7533
M15
G01X-0.2605Y11.7752
M16
G05
G00X5.88Y11.6556
M15
G01X5.8712Y11.6775
M16
G05
G00X1.5438Y-0.9303
M15
G01X1.558Y-0.9115
M16
G05
G00X6.6473Y11.7533
M15
G01X6.6385Y11.7752
M16
G05
G00X2.5839Y6.1885
M15
G01X2.5927Y6.2104
M16
G05
T0
M30
