M48
; DRILL file {KiCad (5.1.4)-1} date 1/29/2022 10:43:03 PM
; FORMAT={-:-/ absolute / metric / decimal}
; #@! TF.CreationDate,2022-01-29T22:43:03-05:00
; #@! TF.GenerationSoftware,Kicad,Pcbnew,(5.1.4)-1
; #@! TF.FileFunction,Plated,1,2,PTH
FMAT,2
METRIC
T1C0.400
T2C0.700
T3C1.000
T4C1.200
T5C1.600
%
G90
G05
T1
X36.83Y105.791
X36.83Y105.791
X44.958Y101.346
X45.513Y102.178
X46.228Y103.69
X46.443Y102.577
X49.276Y103.632
X49.276Y107.696
X53.145Y157.009
X53.912Y157.771
X55.372Y106.172
X57.912Y108.458
X57.912Y104.902
X61.463Y103.891
X64.262Y133.604
X65.532Y98.552
X65.532Y98.552
X66.402Y122.536
X66.802Y99.314
X67.31Y109.22
X70.644Y103.66
X72.136Y121.158
X72.504Y114.156
X73.152Y116.078
X76.2Y146.05
X76.454Y156.972
X78.486Y151.384
X78.884Y149.21
X81.093Y119.062
X82.804Y123.879
X83.506Y150.177
X83.566Y113.792
X84.406Y147.343
X84.776Y148.272
X84.903Y151.256
X86.42Y119.32
X86.614Y155.956
X86.681Y114.617
X86.681Y97.091
X86.681Y97.091
X87.493Y108.968
X87.884Y165.608
X88.376Y164.101
X88.392Y107.95
X88.9Y100.012
X89.143Y162.301
X90.424Y110.998
X90.429Y120.909
X90.678Y119.888
X91.667Y99.287
X95.758Y151.384
X97.983Y151.821
X133.582Y116.608
X134.366Y111.252
T3
X120.415Y172.261
X121.367Y169.906
X122.318Y167.551
X123.27Y165.196
X124.221Y162.841
X125.173Y160.486
X126.124Y158.131
X127.076Y155.776
X128.027Y153.421
X128.979Y151.066
X129.93Y148.711
X130.882Y146.356
X131.833Y144.001
X132.785Y141.646
X133.736Y139.291
X134.688Y136.936
X135.639Y134.581
X136.591Y132.226
X113.374Y-23.6
X114.938Y-25.601
X116.502Y-27.603
X118.066Y-29.605
X26.425Y132.226
X27.377Y134.581
X28.328Y136.936
X29.28Y139.291
X30.231Y141.646
X31.183Y144.001
X32.134Y146.356
X33.086Y148.711
X34.037Y151.066
X34.989Y153.421
X35.94Y155.776
X36.892Y158.131
X37.843Y160.486
X38.795Y162.841
X39.746Y165.196
X40.698Y167.551
X41.649Y169.906
X42.601Y172.261
X81.534Y141.812
X81.534Y139.272
X81.534Y136.732
X81.534Y134.192
X119.847Y288.996
X120.799Y286.641
X121.75Y284.286
X122.702Y281.931
X123.653Y279.576
X124.605Y277.221
X125.556Y274.865
X126.508Y272.51
X127.459Y270.155
X128.411Y267.8
X129.362Y265.445
X130.314Y263.09
X131.265Y260.735
X132.217Y258.38
X133.168Y256.025
X134.12Y253.67
X135.071Y251.315
X136.023Y248.96
X45.056Y89.44
X46.585Y91.469
X48.113Y93.498
X49.642Y95.526
X16.608Y110.522
X18.137Y112.551
X19.665Y114.58
X21.194Y116.608
X25.41Y216.168
X27.439Y214.639
X29.467Y213.111
X31.496Y211.582
X16.502Y-8.269
X18.066Y-6.267
X19.63Y-4.265
X21.194Y-2.264
X25.917Y248.812
X26.869Y251.167
X27.82Y253.522
X28.772Y255.877
X29.723Y258.232
X30.675Y260.587
X31.626Y262.942
X32.578Y265.297
X33.529Y267.652
X34.481Y270.007
X35.432Y272.362
X36.384Y274.717
X37.335Y277.072
X38.287Y279.427
X39.238Y281.782
X40.19Y284.137
X41.141Y286.492
X42.093Y288.847
X44.95Y-29.351
X46.514Y-27.349
X48.078Y-25.347
X49.642Y-23.346
X113.374Y95.272
X114.903Y93.244
X116.431Y91.215
X117.96Y89.186
X81.534Y22.94
X81.534Y20.4
X81.534Y17.86
X81.534Y15.32
X141.822Y116.608
X143.351Y114.58
X144.879Y112.551
X146.408Y110.522
X141.822Y-2.264
X143.386Y-4.265
X144.95Y-6.267
X146.514Y-8.269
X131.042Y95.086
X133.07Y96.615
X135.099Y98.143
X137.128Y99.672
X25.918Y99.582
X27.947Y98.053
X29.975Y96.525
X32.004Y94.996
X130.534Y211.672
X132.562Y213.201
X134.591Y214.729
X136.62Y216.258
T4
X31.805Y124.185
X36.263Y135.218
X36.645Y125.087
X40.112Y131.398
X93.778Y166.115
X98.236Y155.082
X99.201Y166.041
X101.091Y159.094
X167.097Y252.132
X171.555Y241.098
X172.52Y252.058
X174.41Y245.11
X100.896Y148.499
X105.353Y137.465
X106.318Y148.425
X108.208Y141.477
X46.04Y159.418
X50.498Y170.451
X50.88Y160.32
X54.347Y166.631
X118.008Y-15.941
X123.265Y-14.609
X125.17Y-25.444
X126.889Y-20.83
X152.862Y287.365
X157.32Y276.331
X158.285Y287.291
X160.175Y280.343
X140.49Y267.267
X144.948Y256.233
X145.913Y267.192
X147.803Y260.245
X-7.692Y296.429
X-3.234Y307.463
X-2.852Y297.332
X0.615Y303.643
X172.352Y289.846
X176.81Y278.813
X177.775Y289.772
X179.665Y282.824
X9.934Y238.617
X14.392Y249.65
X14.775Y239.519
X18.241Y245.83
X-21.927Y261.196
X-17.469Y272.23
X-17.087Y262.099
X-13.62Y268.41
X17.052Y256.233
X21.51Y267.267
X21.892Y257.135
X25.359Y263.446
X-23.81Y307.256
X-19.353Y318.289
X-18.97Y308.158
X-15.503Y314.469
X126.753Y135.218
X131.211Y124.185
X132.176Y135.144
X134.066Y128.197
X31.287Y291.466
X35.745Y302.5
X36.127Y292.368
X39.594Y298.679
X64.78Y155.082
X69.238Y166.115
X69.621Y155.984
X73.087Y162.295
X112.518Y170.451
X116.976Y159.418
X117.941Y170.377
X119.831Y163.43
X22.672Y-14.01
X27.581Y-14.391
X29.834Y-4.506
X32.563Y-9.192
X-2.438Y258.715
X2.02Y269.748
X2.403Y259.617
X5.869Y265.928
X57.663Y137.465
X62.12Y148.499
X62.503Y138.368
X65.97Y144.679
X133.182Y-4.506
X138.439Y-3.174
X140.344Y-14.01
X142.063Y-9.396
X181.353Y318.289
X185.81Y307.256
X186.775Y318.215
X188.665Y311.267
X133.373Y284.883
X137.831Y273.85
X138.796Y284.809
X140.686Y277.861
X11.797Y293.948
X16.255Y304.981
X16.638Y294.85
X20.104Y301.161
X145.745Y304.981
X150.203Y293.948
X151.168Y304.907
X153.058Y297.959
X4.68Y276.331
X9.138Y287.365
X9.52Y277.234
X12.987Y283.545
X195.588Y283.056
X200.045Y272.023
X201.01Y282.982
X202.9Y276.034
X-38.045Y272.023
X-33.588Y283.056
X-33.205Y272.925
X-29.738Y279.236
X24.169Y273.85
X28.627Y284.883
X29.01Y274.752
X32.476Y281.063
X119.605Y152.911
X124.063Y141.877
X125.028Y152.837
X126.918Y145.889
X165.234Y307.463
X169.692Y296.429
X170.657Y307.389
X172.547Y300.441
X38.922Y141.801
X43.38Y152.835
X43.763Y142.704
X47.229Y149.015
X50.545Y119.849
X55.003Y130.882
X55.386Y120.751
X58.852Y127.062
X37.846Y-25.444
X42.755Y-25.825
X45.008Y-15.941
X47.737Y-20.627
X108.013Y130.882
X112.471Y119.849
X113.436Y130.808
X115.326Y123.861
X188.47Y300.672
X192.928Y289.639
X193.893Y300.598
X195.783Y293.651
X-14.81Y278.813
X-10.352Y289.846
X-9.969Y279.715
X-6.503Y286.026
X179.469Y272.23
X183.927Y261.196
X184.892Y272.156
X186.782Y265.208
X159.98Y269.748
X164.438Y258.715
X165.403Y269.674
X167.293Y262.726
X-30.928Y289.639
X-26.47Y300.672
X-26.087Y290.541
X-22.621Y296.852
X126.255Y302.5
X130.713Y291.466
X131.678Y302.425
X133.568Y295.478
X147.608Y249.65
X152.066Y238.617
X153.031Y249.576
X154.921Y242.628
X-9.555Y241.098
X-5.097Y252.132
X-4.715Y242.001
X-1.248Y248.312
T2
X77.922Y164.612G85X77.922Y163.412
G05
X77.922Y160.112G85X77.922Y158.912
G05
X85.222Y164.612G85X85.222Y163.412
G05
X85.222Y160.112G85X85.222Y158.912
G05
T5
X16.842Y265.639G85X18.369Y266.387
G05
X23.37Y265.167G85X23.545Y265.527
G05
X-24.02Y316.661G85X-22.493Y317.409
G05
X-17.492Y316.19G85X-17.317Y316.549
G05
X124.527Y130.805G85X125.105Y132.404
G05
X129.55Y135.001G85X129.426Y135.381
G05
X31.077Y300.872G85X32.604Y301.62
G05
X37.605Y300.4G85X37.78Y300.76
G05
X64.571Y164.488G85X66.097Y165.235
G05
X71.098Y164.016G85X71.273Y164.376
G05
X110.292Y166.038G85X110.87Y167.637
G05
X115.315Y170.234G85X115.191Y170.614
G05
X24.904Y-4.87G85X26.572Y-4.543
G05
X31.087Y-7.015G85X31.349Y-6.713
G05
X-2.647Y268.12G85X-1.121Y268.868
G05
X3.88Y267.649G85X4.055Y268.009
G05
X57.453Y146.871G85X58.98Y147.619
G05
X63.981Y146.4G85X64.156Y146.759
G05
X132.174Y-9.345G85X132.319Y-7.651
G05
X135.94Y-3.993G85X135.721Y-3.657
G05
X179.126Y313.876G85X179.705Y315.474
G05
X184.149Y318.071G85X184.025Y318.451
G05
X131.146Y280.47G85X131.725Y282.068
G05
X136.17Y284.665G85X136.045Y285.045
G05
X11.588Y303.353G85X13.114Y304.101
G05
X18.116Y302.882G85X18.29Y303.242
G05
X143.518Y300.568G85X144.097Y302.167
G05
X148.542Y304.763G85X148.417Y305.144
G05
X4.47Y285.737G85X5.997Y286.485
G05
X10.998Y285.265G85X11.173Y285.625
G05
X193.361Y278.643G85X193.94Y280.241
G05
X198.384Y282.838G85X198.26Y283.218
G05
X-38.255Y281.428G85X-36.728Y282.176
G05
X-31.727Y280.957G85X-31.552Y281.316
G05
X23.96Y283.255G85X25.486Y284.003
G05
X30.488Y282.784G85X30.662Y283.144
G05
X117.379Y148.498G85X117.957Y150.096
G05
X122.402Y152.693G85X122.278Y153.073
G05
X163.008Y303.05G85X163.586Y304.648
G05
X168.031Y307.245G85X167.907Y307.625
G05
X38.713Y151.207G85X40.239Y151.955
G05
X45.241Y150.736G85X45.415Y151.095
G05
X50.336Y129.255G85X51.862Y130.002
G05
X56.863Y128.783G85X57.038Y129.143
G05
X40.078Y-16.305G85X41.746Y-15.978
G05
X46.262Y-18.45G85X46.523Y-18.147
G05
X105.786Y126.469G85X106.365Y128.068
G05
X110.81Y130.665G85X110.685Y131.045
G05
X186.243Y296.259G85X186.822Y297.858
G05
X191.267Y300.455G85X191.142Y300.835
G05
X-15.019Y288.218G85X-13.493Y288.966
G05
X-8.492Y287.747G85X-8.317Y288.107
G05
X177.243Y267.817G85X177.822Y269.415
G05
X182.266Y272.012G85X182.142Y272.392
G05
X157.753Y265.335G85X158.332Y266.934
G05
X162.777Y269.53G85X162.652Y269.911
G05
X-31.137Y299.045G85X-29.611Y299.793
G05
X-24.61Y298.573G85X-24.435Y298.933
G05
X124.029Y298.086G85X124.607Y299.685
G05
X129.052Y302.282G85X128.928Y302.662
G05
X145.381Y245.237G85X145.96Y246.835
G05
X150.405Y249.432G85X150.28Y249.812
G05
X-9.765Y250.504G85X-8.238Y251.252
G05
X-3.237Y250.032G85X-3.062Y250.392
G05
X31.595Y133.591G85X33.122Y134.338
G05
X38.123Y133.119G85X38.298Y133.479
G05
X91.551Y161.702G85X92.13Y163.301
G05
X96.575Y165.898G85X96.45Y166.278
G05
X164.871Y247.719G85X165.45Y249.317
G05
X169.894Y251.914G85X169.77Y252.294
G05
X98.669Y144.086G85X99.248Y145.684
G05
X103.692Y148.281G85X103.568Y148.661
G05
X45.83Y168.824G85X47.357Y169.571
G05
X52.358Y168.352G85X52.533Y168.712
G05
X117.0Y-20.78G85X117.145Y-19.086
G05
X120.766Y-15.427G85X120.547Y-15.092
G05
X150.636Y282.952G85X151.214Y284.55
G05
X155.659Y287.147G85X155.535Y287.527
G05
X138.264Y262.853G85X138.842Y264.452
G05
X143.287Y267.049G85X143.163Y267.429
G05
X-7.902Y305.835G85X-6.375Y306.583
G05
X-1.374Y305.363G85X-1.199Y305.723
G05
X170.125Y285.433G85X170.704Y287.032
G05
X175.149Y289.628G85X175.024Y290.009
G05
X9.725Y248.022G85X11.251Y248.77
G05
X16.252Y247.551G85X16.427Y247.911
G05
X-22.137Y270.602G85X-20.61Y271.35
G05
X-15.609Y270.13G85X-15.434Y270.49
G05
T0
M30
