G04 #@! TF.GenerationSoftware,KiCad,Pcbnew,(5.1.4)-1*
G04 #@! TF.CreationDate,2022-01-29T22:18:31-05:00*
G04 #@! TF.ProjectId,ThumbsUpUnsplit,5468756d-6273-4557-9055-6e73706c6974,rev?*
G04 #@! TF.SameCoordinates,Original*
G04 #@! TF.FileFunction,Legend,Bot*
G04 #@! TF.FilePolarity,Positive*
%FSLAX46Y46*%
G04 Gerber Fmt 4.6, Leading zero omitted, Abs format (unit mm)*
G04 Created by KiCad (PCBNEW (5.1.4)-1) date 2022-01-29 22:18:31*
%MOMM*%
%LPD*%
G04 APERTURE LIST*
%ADD10C,0.120000*%
%ADD11C,0.150000*%
%ADD12C,1.702000*%
%ADD13C,2.502000*%
%ADD14C,2.502000*%
%ADD15C,6.602000*%
%ADD16C,2.202000*%
%ADD17C,2.202000*%
%ADD18C,2.102000*%
%ADD19C,2.102000*%
%ADD20C,1.852000*%
%ADD21C,1.852000*%
%ADD22C,1.802000*%
%ADD23C,1.802000*%
%ADD24C,0.100000*%
%ADD25O,1.802000X1.802000*%
%ADD26R,1.802000X1.802000*%
%ADD27O,1.802000X2.802000*%
%ADD28R,0.602000X2.352000*%
%ADD29R,1.902000X1.202000*%
%ADD30R,2.202000X1.902000*%
%ADD31R,0.652000X1.602000*%
%ADD32R,1.602000X0.652000*%
%ADD33C,1.077000*%
%ADD34C,1.352000*%
%ADD35R,1.302000X1.002000*%
G04 APERTURE END LIST*
D10*
X50460645Y-22297857D02*
X49412590Y-21479027D01*
X49412590Y-21479027D02*
X48593761Y-22527081D01*
X47811871Y-23527855D02*
X43083590Y-29579777D01*
X45179699Y-31217437D02*
X43083590Y-29579777D01*
X49907979Y-25165514D02*
X45179699Y-31217437D01*
X49907979Y-25165514D02*
X47811871Y-23527855D01*
X112555355Y-22551857D02*
X111507301Y-23370686D01*
X111507301Y-23370686D02*
X112326131Y-24418741D01*
X113108021Y-25419514D02*
X117836301Y-31471437D01*
X119932410Y-29833777D02*
X117836301Y-31471437D01*
X115204129Y-23781855D02*
X119932410Y-29833777D01*
X115204129Y-23781855D02*
X113108021Y-25419514D01*
X81534000Y13990000D02*
X82864000Y13990000D01*
X82864000Y13990000D02*
X82864000Y15320000D01*
X82864000Y16590000D02*
X82864000Y24270000D01*
X80204000Y24270000D02*
X82864000Y24270000D01*
X80204000Y16590000D02*
X80204000Y24270000D01*
X80204000Y16590000D02*
X82864000Y16590000D01*
X33066185Y94195586D02*
X33866599Y95257771D01*
X33866599Y95257771D02*
X32804414Y96058185D01*
X31790147Y96822490D02*
X25656626Y101444430D01*
X24055798Y99320059D02*
X25656626Y101444430D01*
X30189319Y94698120D02*
X24055798Y99320059D01*
X30189319Y94698120D02*
X31790147Y96822490D01*
X129979726Y94285771D02*
X130780140Y93223586D01*
X130780140Y93223586D02*
X131842325Y94024000D01*
X132856592Y94788305D02*
X138990113Y99410244D01*
X137389285Y101534615D02*
X138990113Y99410244D01*
X131255764Y96912675D02*
X137389285Y101534615D01*
X131255764Y96912675D02*
X132856592Y94788305D01*
X143652129Y-2445855D02*
X141556021Y-4083514D01*
X143652129Y-2445855D02*
X148380410Y-8497777D01*
X148380410Y-8497777D02*
X146284301Y-10135437D01*
X141556021Y-4083514D02*
X146284301Y-10135437D01*
X139955301Y-2034686D02*
X140774131Y-3082741D01*
X141003355Y-1215857D02*
X139955301Y-2034686D01*
X122124229Y171582100D02*
X119657920Y170585647D01*
X122124229Y171582100D02*
X138322218Y131490670D01*
X138322218Y131490670D02*
X135855909Y130494217D01*
X119657920Y170585647D02*
X135855909Y130494217D01*
X118683943Y172996325D02*
X119182169Y171763170D01*
X119917097Y173494552D02*
X118683943Y172996325D01*
X43358080Y170585647D02*
X40891771Y171582100D01*
X43358080Y170585647D02*
X27160091Y130494217D01*
X27160091Y130494217D02*
X24693782Y131490670D01*
X40891771Y171582100D02*
X24693782Y131490670D01*
X41865748Y173992778D02*
X41367521Y172759624D01*
X43098903Y173494552D02*
X41865748Y173992778D01*
X21459979Y-4083514D02*
X19363871Y-2445855D01*
X21459979Y-4083514D02*
X16731699Y-10135437D01*
X16731699Y-10135437D02*
X14635590Y-8497777D01*
X19363871Y-2445855D02*
X14635590Y-8497777D01*
X20964590Y-397027D02*
X20145761Y-1445081D01*
X22012645Y-1215857D02*
X20964590Y-397027D01*
D11*
X77722000Y164012000D02*
X77722000Y158562000D01*
X85422000Y164012000D02*
X85422000Y158562000D01*
X77722000Y158562000D02*
X85422000Y158562000D01*
X97968750Y91681250D02*
X92768750Y91681250D01*
X92768750Y91681250D02*
X92768750Y86481250D01*
X92768750Y86481250D02*
X97968750Y86481250D01*
X97968750Y86481250D02*
X97968750Y91681250D01*
X96368750Y89081250D02*
G75*
G03X96368750Y89081250I-1000000J0D01*
G01*
D10*
X75966000Y96604000D02*
X81366000Y96604000D01*
X75966000Y92104000D02*
X75966000Y96604000D01*
D11*
X84677000Y110518000D02*
X85952000Y110518000D01*
X74327000Y111093000D02*
X75002000Y111093000D01*
X74327000Y100743000D02*
X75002000Y100743000D01*
X84677000Y100743000D02*
X84002000Y100743000D01*
X84677000Y111093000D02*
X84002000Y111093000D01*
X84677000Y100743000D02*
X84677000Y101418000D01*
X74327000Y100743000D02*
X74327000Y101418000D01*
X74327000Y111093000D02*
X74327000Y110418000D01*
X84677000Y111093000D02*
X84677000Y110518000D01*
D10*
X69135172Y110691250D02*
X69652328Y110691250D01*
X69135172Y109271250D02*
X69652328Y109271250D01*
X87422500Y95014828D02*
X87422500Y94497672D01*
X86002500Y95014828D02*
X86002500Y94497672D01*
X81046250Y154003922D02*
X81046250Y154521078D01*
X82466250Y154003922D02*
X82466250Y154521078D01*
X78792000Y154003922D02*
X78792000Y154521078D01*
X80212000Y154003922D02*
X80212000Y154521078D01*
X75290000Y153197936D02*
X75290000Y154402064D01*
X77110000Y153197936D02*
X77110000Y154402064D01*
X116570000Y109510000D02*
X116570000Y113410000D01*
X114570000Y109510000D02*
X114570000Y113410000D01*
X116570000Y109510000D02*
X114570000Y109510000D01*
X111490000Y109510000D02*
X111490000Y113410000D01*
X109490000Y109510000D02*
X109490000Y113410000D01*
X111490000Y109510000D02*
X109490000Y109510000D01*
X108950000Y109510000D02*
X108950000Y113410000D01*
X106950000Y109510000D02*
X106950000Y113410000D01*
X108950000Y109510000D02*
X106950000Y109510000D01*
X103870000Y109510000D02*
X103870000Y113410000D01*
X101870000Y109510000D02*
X101870000Y113410000D01*
X103870000Y109510000D02*
X101870000Y109510000D01*
X101330000Y109510000D02*
X101330000Y113410000D01*
X99330000Y109510000D02*
X99330000Y113410000D01*
X101330000Y109510000D02*
X99330000Y109510000D01*
X98790000Y109510000D02*
X98790000Y113410000D01*
X96790000Y109510000D02*
X96790000Y113410000D01*
X98790000Y109510000D02*
X96790000Y109510000D01*
X97520000Y124432750D02*
X97520000Y128332750D01*
X95520000Y124432750D02*
X95520000Y128332750D01*
X97520000Y124432750D02*
X95520000Y124432750D01*
X95107000Y124432750D02*
X95107000Y128332750D01*
X93107000Y124432750D02*
X93107000Y128332750D01*
X95107000Y124432750D02*
X93107000Y124432750D01*
X90281000Y124432750D02*
X90281000Y128332750D01*
X88281000Y124432750D02*
X88281000Y128332750D01*
X90281000Y124432750D02*
X88281000Y124432750D01*
X87868000Y124432750D02*
X87868000Y128332750D01*
X85868000Y124432750D02*
X85868000Y128332750D01*
X87868000Y124432750D02*
X85868000Y124432750D01*
X97520000Y133005000D02*
X97520000Y136905000D01*
X95520000Y133005000D02*
X95520000Y136905000D01*
X97520000Y133005000D02*
X95520000Y133005000D01*
X95107000Y133005000D02*
X95107000Y136905000D01*
X93107000Y133005000D02*
X93107000Y136905000D01*
X95107000Y133005000D02*
X93107000Y133005000D01*
X92694000Y133005000D02*
X92694000Y136905000D01*
X90694000Y133005000D02*
X90694000Y136905000D01*
X92694000Y133005000D02*
X90694000Y133005000D01*
X90281000Y133005000D02*
X90281000Y136905000D01*
X88281000Y133005000D02*
X88281000Y136905000D01*
X90281000Y133005000D02*
X88281000Y133005000D01*
X121650000Y109510000D02*
X121650000Y113410000D01*
X119650000Y109510000D02*
X119650000Y113410000D01*
X121650000Y109510000D02*
X119650000Y109510000D01*
X119110000Y109510000D02*
X119110000Y113410000D01*
X117110000Y109510000D02*
X117110000Y113410000D01*
X119110000Y109510000D02*
X117110000Y109510000D01*
X114030000Y109510000D02*
X114030000Y113410000D01*
X112030000Y109510000D02*
X112030000Y113410000D01*
X114030000Y109510000D02*
X112030000Y109510000D01*
X92694000Y124432750D02*
X92694000Y128332750D01*
X90694000Y124432750D02*
X90694000Y128332750D01*
X92694000Y124432750D02*
X90694000Y124432750D01*
X87868000Y133005000D02*
X87868000Y136905000D01*
X85868000Y133005000D02*
X85868000Y136905000D01*
X87868000Y133005000D02*
X85868000Y133005000D01*
X106410000Y109510000D02*
X106410000Y113410000D01*
X104410000Y109510000D02*
X104410000Y113410000D01*
X106410000Y109510000D02*
X104410000Y109510000D01*
X85455000Y124432750D02*
X85455000Y128332750D01*
X83455000Y124432750D02*
X83455000Y128332750D01*
X85455000Y124432750D02*
X83455000Y124432750D01*
X85455000Y133005000D02*
X85455000Y136905000D01*
X83455000Y133005000D02*
X83455000Y136905000D01*
X85455000Y133005000D02*
X83455000Y133005000D01*
X55174568Y109785001D02*
X55174568Y113685001D01*
X53174568Y109785001D02*
X53174568Y113685001D01*
X55174568Y109785001D02*
X53174568Y109785001D01*
X79489250Y124432750D02*
X79489250Y128332750D01*
X77489250Y124432750D02*
X77489250Y128332750D01*
X79489250Y124432750D02*
X77489250Y124432750D01*
X79489250Y133036000D02*
X79489250Y136936000D01*
X77489250Y133036000D02*
X77489250Y136936000D01*
X79489250Y133036000D02*
X77489250Y133036000D01*
X40624000Y109785001D02*
X40624000Y113685001D01*
X38624000Y109785001D02*
X38624000Y113685001D01*
X40624000Y109785001D02*
X38624000Y109785001D01*
X43037000Y109785001D02*
X43037000Y113685001D01*
X41037000Y109785001D02*
X41037000Y113685001D01*
X43037000Y109785001D02*
X41037000Y109785001D01*
X45450000Y109785001D02*
X43450000Y109785001D01*
X43450000Y109785001D02*
X43450000Y113685001D01*
X45450000Y109785001D02*
X45450000Y113685001D01*
X71983550Y124432750D02*
X69983550Y124432750D01*
X69983550Y124432750D02*
X69983550Y128332750D01*
X71983550Y124432750D02*
X71983550Y128332750D01*
X76987350Y133036000D02*
X74987350Y133036000D01*
X74987350Y133036000D02*
X74987350Y136936000D01*
X76987350Y133036000D02*
X76987350Y136936000D01*
X47881142Y109785001D02*
X45881142Y109785001D01*
X45881142Y109785001D02*
X45881142Y113685001D01*
X47881142Y109785001D02*
X47881142Y113685001D01*
X50312284Y109785001D02*
X48312284Y109785001D01*
X48312284Y109785001D02*
X48312284Y113685001D01*
X50312284Y109785001D02*
X50312284Y113685001D01*
X52743426Y109785001D02*
X50743426Y109785001D01*
X50743426Y109785001D02*
X50743426Y113685001D01*
X52743426Y109785001D02*
X52743426Y113685001D01*
X57605710Y109785001D02*
X55605710Y109785001D01*
X55605710Y109785001D02*
X55605710Y113685001D01*
X57605710Y109785001D02*
X57605710Y113685001D01*
X60036852Y109785001D02*
X58036852Y109785001D01*
X58036852Y109785001D02*
X58036852Y113685001D01*
X60036852Y109785001D02*
X60036852Y113685001D01*
X62468000Y109785001D02*
X60468000Y109785001D01*
X60468000Y109785001D02*
X60468000Y113685001D01*
X62468000Y109785001D02*
X62468000Y113685001D01*
X66979750Y124432750D02*
X64979750Y124432750D01*
X64979750Y124432750D02*
X64979750Y128332750D01*
X66979750Y124432750D02*
X66979750Y128332750D01*
X69481650Y124432750D02*
X67481650Y124432750D01*
X67481650Y124432750D02*
X67481650Y128332750D01*
X69481650Y124432750D02*
X69481650Y128332750D01*
X74485450Y124432750D02*
X72485450Y124432750D01*
X72485450Y124432750D02*
X72485450Y128332750D01*
X74485450Y124432750D02*
X74485450Y128332750D01*
X76987350Y124432750D02*
X74987350Y124432750D01*
X74987350Y124432750D02*
X74987350Y128332750D01*
X76987350Y124432750D02*
X76987350Y128332750D01*
X66979750Y133036000D02*
X64979750Y133036000D01*
X64979750Y133036000D02*
X64979750Y136936000D01*
X66979750Y133036000D02*
X66979750Y136936000D01*
X69481650Y133036000D02*
X67481650Y133036000D01*
X67481650Y133036000D02*
X67481650Y136936000D01*
X69481650Y133036000D02*
X69481650Y136936000D01*
X71983550Y133036000D02*
X69983550Y133036000D01*
X69983550Y133036000D02*
X69983550Y136936000D01*
X71983550Y133036000D02*
X71983550Y136936000D01*
X74485450Y133036000D02*
X72485450Y133036000D01*
X72485450Y133036000D02*
X72485450Y136936000D01*
X74485450Y133036000D02*
X74485450Y136936000D01*
X82752000Y116336578D02*
X82752000Y115819422D01*
X81332000Y116336578D02*
X81332000Y115819422D01*
X84221250Y154003922D02*
X84221250Y154521078D01*
X85641250Y154003922D02*
X85641250Y154521078D01*
X89578922Y105485000D02*
X90096078Y105485000D01*
X89578922Y104065000D02*
X90096078Y104065000D01*
X84221250Y115819422D02*
X84221250Y116336578D01*
X85641250Y115819422D02*
X85641250Y116336578D01*
X69652328Y101683750D02*
X69135172Y101683750D01*
X69652328Y103103750D02*
X69135172Y103103750D01*
X78983578Y89777500D02*
X78466422Y89777500D01*
X78983578Y91197500D02*
X78466422Y91197500D01*
X75322500Y94714828D02*
X75322500Y94197672D01*
X73902500Y94714828D02*
X73902500Y94197672D01*
X89578922Y103103750D02*
X90096078Y103103750D01*
X89578922Y101683750D02*
X90096078Y101683750D01*
X84847500Y95014828D02*
X84847500Y94497672D01*
X83427500Y95014828D02*
X83427500Y94497672D01*
X73902500Y114835172D02*
X73902500Y115352328D01*
X75322500Y114835172D02*
X75322500Y115352328D01*
D11*
X52322258Y-21229983D02*
X51882500Y-21792848D01*
X51832072Y-21934738D01*
X51848487Y-22068421D01*
X51931742Y-22193897D01*
X52006791Y-22252532D01*
X50918586Y-21402333D02*
X51368878Y-21754139D01*
X51143732Y-21578236D02*
X51759393Y-20790225D01*
X51746490Y-20961433D01*
X51762904Y-21095116D01*
X51808636Y-21191274D01*
X51271577Y-20409101D02*
X50746236Y-19998660D01*
X50468294Y-21050526D01*
X111969568Y-20487198D02*
X112409326Y-21050063D01*
X112534802Y-21133319D01*
X112668485Y-21149733D01*
X112810375Y-21099306D01*
X112885424Y-21040671D01*
X111797219Y-21890870D02*
X112247511Y-21539064D01*
X112022365Y-21714967D02*
X111406703Y-20926956D01*
X111569703Y-20980895D01*
X111703387Y-20997309D01*
X111807752Y-20976199D01*
X110468595Y-21659887D02*
X110843838Y-21366715D01*
X111174535Y-21712641D01*
X111107693Y-21704433D01*
X111003327Y-21725544D01*
X110815706Y-21872130D01*
X110769974Y-21968288D01*
X110761767Y-22035130D01*
X110782877Y-22139496D01*
X110929463Y-22327117D01*
X111025622Y-22372849D01*
X111092464Y-22381056D01*
X111196830Y-22359946D01*
X111384451Y-22213360D01*
X111430183Y-22117201D01*
X111438390Y-22050359D01*
X82343523Y13097619D02*
X82343523Y12383333D01*
X82391142Y12240476D01*
X82486380Y12145238D01*
X82629238Y12097619D01*
X82724476Y12097619D01*
X81343523Y12097619D02*
X81914952Y12097619D01*
X81629238Y12097619D02*
X81629238Y13097619D01*
X81724476Y12954761D01*
X81819714Y12859523D01*
X81914952Y12811904D01*
X81010190Y13097619D02*
X80391142Y13097619D01*
X80724476Y12716666D01*
X80581619Y12716666D01*
X80486380Y12669047D01*
X80438761Y12621428D01*
X80391142Y12526190D01*
X80391142Y12288095D01*
X80438761Y12192857D01*
X80486380Y12145238D01*
X80581619Y12097619D01*
X80867333Y12097619D01*
X80962571Y12145238D01*
X81010190Y12192857D01*
X34266055Y94305051D02*
X34836509Y93875183D01*
X34979258Y93827240D01*
X35112634Y93845985D01*
X35236638Y93931418D01*
X35293953Y94007478D01*
X34462876Y92904601D02*
X34806770Y93360964D01*
X34634823Y93132782D02*
X33836187Y93734597D01*
X34007594Y93724684D01*
X34140970Y93743429D01*
X34236316Y93790832D01*
X33889718Y92143996D02*
X34233613Y92600359D01*
X34061666Y92372177D02*
X33263030Y92973992D01*
X33434437Y92964079D01*
X33567813Y92982824D01*
X33663159Y93030227D01*
X129467644Y93482510D02*
X128897190Y93052642D01*
X128811757Y92928638D01*
X128793012Y92795262D01*
X128840955Y92652513D01*
X128898271Y92576453D01*
X128353772Y93299028D02*
X128239140Y93451149D01*
X128219855Y93555867D01*
X128229227Y93622555D01*
X128286002Y93784590D01*
X128409465Y93937251D01*
X128713707Y94166514D01*
X128818426Y94185800D01*
X128885114Y94176427D01*
X128980460Y94129024D01*
X129095091Y93976903D01*
X129114377Y93872185D01*
X129105004Y93805497D01*
X129057602Y93710151D01*
X128867450Y93566862D01*
X128762732Y93547576D01*
X128696044Y93556949D01*
X128600698Y93604351D01*
X128486067Y93756472D01*
X128466781Y93861191D01*
X128476153Y93927879D01*
X128523556Y94023225D01*
X140042326Y555629D02*
X140482084Y-7235D01*
X140607560Y-90491D01*
X140741243Y-106905D01*
X140883133Y-56478D01*
X140958182Y2156D01*
X139291839Y-30715D02*
X139667083Y262457D01*
X139997779Y-83468D01*
X139930938Y-75261D01*
X139826572Y-96371D01*
X139638950Y-242958D01*
X139593219Y-339116D01*
X139585011Y-405958D01*
X139606122Y-510324D01*
X139752708Y-697945D01*
X139848866Y-743677D01*
X139915708Y-751884D01*
X140020074Y-730774D01*
X140207695Y-584188D01*
X140253427Y-488029D01*
X140261634Y-421187D01*
X119481583Y175462308D02*
X119749159Y174800034D01*
X119846826Y174685417D01*
X119970806Y174632791D01*
X120121099Y174642155D01*
X120209403Y174677831D01*
X119128370Y175319601D02*
X118510248Y175069863D01*
X119282219Y174303225D01*
X44152538Y175212570D02*
X43884962Y174550296D01*
X43875599Y174400003D01*
X43928225Y174276023D01*
X44042842Y174178356D01*
X44131145Y174142679D01*
X43719497Y175284813D02*
X43693184Y175346803D01*
X43622719Y175426631D01*
X43401961Y175515823D01*
X43295819Y175507348D01*
X43233829Y175481035D01*
X43154001Y175410570D01*
X43118324Y175322267D01*
X43108961Y175171974D01*
X43424719Y174428094D01*
X42850748Y174659993D01*
X23499014Y145188D02*
X23059256Y-417676D01*
X23008828Y-559566D01*
X23025242Y-693249D01*
X23108498Y-818725D01*
X23183547Y-877360D01*
X23198819Y379725D02*
X22711003Y760849D01*
X22739135Y255434D01*
X22626563Y343386D01*
X22522197Y364496D01*
X22455355Y356289D01*
X22359196Y310557D01*
X22212610Y122936D01*
X22191500Y18570D01*
X22199707Y-48271D01*
X22245439Y-144429D01*
X22470585Y-320333D01*
X22574951Y-341443D01*
X22641792Y-333236D01*
X83310095Y162527619D02*
X83310095Y161718095D01*
X83262476Y161622857D01*
X83214857Y161575238D01*
X83119619Y161527619D01*
X82929142Y161527619D01*
X82833904Y161575238D01*
X82786285Y161622857D01*
X82738666Y161718095D01*
X82738666Y162527619D01*
X82310095Y161575238D02*
X82167238Y161527619D01*
X81929142Y161527619D01*
X81833904Y161575238D01*
X81786285Y161622857D01*
X81738666Y161718095D01*
X81738666Y161813333D01*
X81786285Y161908571D01*
X81833904Y161956190D01*
X81929142Y162003809D01*
X82119619Y162051428D01*
X82214857Y162099047D01*
X82262476Y162146666D01*
X82310095Y162241904D01*
X82310095Y162337142D01*
X82262476Y162432380D01*
X82214857Y162480000D01*
X82119619Y162527619D01*
X81881523Y162527619D01*
X81738666Y162480000D01*
X80976761Y162051428D02*
X80833904Y162003809D01*
X80786285Y161956190D01*
X80738666Y161860952D01*
X80738666Y161718095D01*
X80786285Y161622857D01*
X80833904Y161575238D01*
X80929142Y161527619D01*
X81310095Y161527619D01*
X81310095Y162527619D01*
X80976761Y162527619D01*
X80881523Y162480000D01*
X80833904Y162432380D01*
X80786285Y162337142D01*
X80786285Y162241904D01*
X80833904Y162146666D01*
X80881523Y162099047D01*
X80976761Y162051428D01*
X81310095Y162051428D01*
X79786285Y161527619D02*
X80357714Y161527619D01*
X80072000Y161527619D02*
X80072000Y162527619D01*
X80167238Y162384761D01*
X80262476Y162289523D01*
X80357714Y162241904D01*
X102333333Y88938988D02*
X102190476Y88891369D01*
X101952380Y88891369D01*
X101857142Y88938988D01*
X101809523Y88986607D01*
X101761904Y89081845D01*
X101761904Y89177083D01*
X101809523Y89272321D01*
X101857142Y89319940D01*
X101952380Y89367559D01*
X102142857Y89415178D01*
X102238095Y89462797D01*
X102285714Y89510416D01*
X102333333Y89605654D01*
X102333333Y89700892D01*
X102285714Y89796130D01*
X102238095Y89843750D01*
X102142857Y89891369D01*
X101904761Y89891369D01*
X101761904Y89843750D01*
X101428571Y89891369D02*
X101190476Y88891369D01*
X101000000Y89605654D01*
X100809523Y88891369D01*
X100571428Y89891369D01*
X99666666Y88891369D02*
X100238095Y88891369D01*
X99952380Y88891369D02*
X99952380Y89891369D01*
X100047619Y89748511D01*
X100142857Y89653273D01*
X100238095Y89605654D01*
X72612190Y91463809D02*
X72612190Y90987619D01*
X72945523Y91987619D02*
X72612190Y91463809D01*
X72278857Y91987619D01*
X71421714Y90987619D02*
X71993142Y90987619D01*
X71707428Y90987619D02*
X71707428Y91987619D01*
X71802666Y91844761D01*
X71897904Y91749523D01*
X71993142Y91701904D01*
X80263904Y113915619D02*
X80263904Y113106095D01*
X80216285Y113010857D01*
X80168666Y112963238D01*
X80073428Y112915619D01*
X79882952Y112915619D01*
X79787714Y112963238D01*
X79740095Y113010857D01*
X79692476Y113106095D01*
X79692476Y113915619D01*
X78692476Y112915619D02*
X79263904Y112915619D01*
X78978190Y112915619D02*
X78978190Y113915619D01*
X79073428Y113772761D01*
X79168666Y113677523D01*
X79263904Y113629904D01*
X66714666Y109529619D02*
X67048000Y110005809D01*
X67286095Y109529619D02*
X67286095Y110529619D01*
X66905142Y110529619D01*
X66809904Y110482000D01*
X66762285Y110434380D01*
X66714666Y110339142D01*
X66714666Y110196285D01*
X66762285Y110101047D01*
X66809904Y110053428D01*
X66905142Y110005809D01*
X67286095Y110005809D01*
X65857523Y110196285D02*
X65857523Y109529619D01*
X66095619Y110577238D02*
X66333714Y109862952D01*
X65714666Y109862952D01*
X87320380Y91860666D02*
X86844190Y92194000D01*
X87320380Y92432095D02*
X86320380Y92432095D01*
X86320380Y92051142D01*
X86368000Y91955904D01*
X86415619Y91908285D01*
X86510857Y91860666D01*
X86653714Y91860666D01*
X86748952Y91908285D01*
X86796571Y91955904D01*
X86844190Y92051142D01*
X86844190Y92432095D01*
X86320380Y91527333D02*
X86320380Y90908285D01*
X86701333Y91241619D01*
X86701333Y91098761D01*
X86748952Y91003523D01*
X86796571Y90955904D01*
X86891809Y90908285D01*
X87129904Y90908285D01*
X87225142Y90955904D01*
X87272761Y91003523D01*
X87320380Y91098761D01*
X87320380Y91384476D01*
X87272761Y91479714D01*
X87225142Y91527333D01*
X82240380Y151296666D02*
X81764190Y151630000D01*
X82240380Y151868095D02*
X81240380Y151868095D01*
X81240380Y151487142D01*
X81288000Y151391904D01*
X81335619Y151344285D01*
X81430857Y151296666D01*
X81573714Y151296666D01*
X81668952Y151344285D01*
X81716571Y151391904D01*
X81764190Y151487142D01*
X81764190Y151868095D01*
X81335619Y150915714D02*
X81288000Y150868095D01*
X81240380Y150772857D01*
X81240380Y150534761D01*
X81288000Y150439523D01*
X81335619Y150391904D01*
X81430857Y150344285D01*
X81526095Y150344285D01*
X81668952Y150391904D01*
X82240380Y150963333D01*
X82240380Y150344285D01*
X79954380Y151296666D02*
X79478190Y151630000D01*
X79954380Y151868095D02*
X78954380Y151868095D01*
X78954380Y151487142D01*
X79002000Y151391904D01*
X79049619Y151344285D01*
X79144857Y151296666D01*
X79287714Y151296666D01*
X79382952Y151344285D01*
X79430571Y151391904D01*
X79478190Y151487142D01*
X79478190Y151868095D01*
X79954380Y150344285D02*
X79954380Y150915714D01*
X79954380Y150630000D02*
X78954380Y150630000D01*
X79097238Y150725238D01*
X79192476Y150820476D01*
X79240095Y150915714D01*
X76128571Y150701333D02*
X76128571Y151034666D01*
X76652380Y151034666D02*
X75652380Y151034666D01*
X75652380Y150558476D01*
X76652380Y149653714D02*
X76652380Y150225142D01*
X76652380Y149939428D02*
X75652380Y149939428D01*
X75795238Y150034666D01*
X75890476Y150129904D01*
X75938095Y150225142D01*
X116022380Y117038285D02*
X115022380Y117038285D01*
X115022380Y116800190D01*
X115070000Y116657333D01*
X115165238Y116562095D01*
X115260476Y116514476D01*
X115450952Y116466857D01*
X115593809Y116466857D01*
X115784285Y116514476D01*
X115879523Y116562095D01*
X115974761Y116657333D01*
X116022380Y116800190D01*
X116022380Y117038285D01*
X115355714Y115609714D02*
X116022380Y115609714D01*
X114974761Y115847809D02*
X115689047Y116085904D01*
X115689047Y115466857D01*
X115355714Y114657333D02*
X116022380Y114657333D01*
X114974761Y114895428D02*
X115689047Y115133523D01*
X115689047Y114514476D01*
X111196380Y117038285D02*
X110196380Y117038285D01*
X110196380Y116800190D01*
X110244000Y116657333D01*
X110339238Y116562095D01*
X110434476Y116514476D01*
X110624952Y116466857D01*
X110767809Y116466857D01*
X110958285Y116514476D01*
X111053523Y116562095D01*
X111148761Y116657333D01*
X111196380Y116800190D01*
X111196380Y117038285D01*
X110529714Y115609714D02*
X111196380Y115609714D01*
X110148761Y115847809D02*
X110863047Y116085904D01*
X110863047Y115466857D01*
X110196380Y115181142D02*
X110196380Y114562095D01*
X110577333Y114895428D01*
X110577333Y114752571D01*
X110624952Y114657333D01*
X110672571Y114609714D01*
X110767809Y114562095D01*
X111005904Y114562095D01*
X111101142Y114609714D01*
X111148761Y114657333D01*
X111196380Y114752571D01*
X111196380Y115038285D01*
X111148761Y115133523D01*
X111101142Y115181142D01*
X108402380Y117038285D02*
X107402380Y117038285D01*
X107402380Y116800190D01*
X107450000Y116657333D01*
X107545238Y116562095D01*
X107640476Y116514476D01*
X107830952Y116466857D01*
X107973809Y116466857D01*
X108164285Y116514476D01*
X108259523Y116562095D01*
X108354761Y116657333D01*
X108402380Y116800190D01*
X108402380Y117038285D01*
X107735714Y115609714D02*
X108402380Y115609714D01*
X107354761Y115847809D02*
X108069047Y116085904D01*
X108069047Y115466857D01*
X107497619Y115133523D02*
X107450000Y115085904D01*
X107402380Y114990666D01*
X107402380Y114752571D01*
X107450000Y114657333D01*
X107497619Y114609714D01*
X107592857Y114562095D01*
X107688095Y114562095D01*
X107830952Y114609714D01*
X108402380Y115181142D01*
X108402380Y114562095D01*
X103322380Y117038285D02*
X102322380Y117038285D01*
X102322380Y116800190D01*
X102370000Y116657333D01*
X102465238Y116562095D01*
X102560476Y116514476D01*
X102750952Y116466857D01*
X102893809Y116466857D01*
X103084285Y116514476D01*
X103179523Y116562095D01*
X103274761Y116657333D01*
X103322380Y116800190D01*
X103322380Y117038285D01*
X102655714Y115609714D02*
X103322380Y115609714D01*
X102274761Y115847809D02*
X102989047Y116085904D01*
X102989047Y115466857D01*
X103322380Y114562095D02*
X103322380Y115133523D01*
X103322380Y114847809D02*
X102322380Y114847809D01*
X102465238Y114943047D01*
X102560476Y115038285D01*
X102608095Y115133523D01*
X100782380Y117038285D02*
X99782380Y117038285D01*
X99782380Y116800190D01*
X99830000Y116657333D01*
X99925238Y116562095D01*
X100020476Y116514476D01*
X100210952Y116466857D01*
X100353809Y116466857D01*
X100544285Y116514476D01*
X100639523Y116562095D01*
X100734761Y116657333D01*
X100782380Y116800190D01*
X100782380Y117038285D01*
X100115714Y115609714D02*
X100782380Y115609714D01*
X99734761Y115847809D02*
X100449047Y116085904D01*
X100449047Y115466857D01*
X99782380Y114895428D02*
X99782380Y114800190D01*
X99830000Y114704952D01*
X99877619Y114657333D01*
X99972857Y114609714D01*
X100163333Y114562095D01*
X100401428Y114562095D01*
X100591904Y114609714D01*
X100687142Y114657333D01*
X100734761Y114704952D01*
X100782380Y114800190D01*
X100782380Y114895428D01*
X100734761Y114990666D01*
X100687142Y115038285D01*
X100591904Y115085904D01*
X100401428Y115133523D01*
X100163333Y115133523D01*
X99972857Y115085904D01*
X99877619Y115038285D01*
X99830000Y114990666D01*
X99782380Y114895428D01*
X98242380Y117038285D02*
X97242380Y117038285D01*
X97242380Y116800190D01*
X97290000Y116657333D01*
X97385238Y116562095D01*
X97480476Y116514476D01*
X97670952Y116466857D01*
X97813809Y116466857D01*
X98004285Y116514476D01*
X98099523Y116562095D01*
X98194761Y116657333D01*
X98242380Y116800190D01*
X98242380Y117038285D01*
X97242380Y116133523D02*
X97242380Y115514476D01*
X97623333Y115847809D01*
X97623333Y115704952D01*
X97670952Y115609714D01*
X97718571Y115562095D01*
X97813809Y115514476D01*
X98051904Y115514476D01*
X98147142Y115562095D01*
X98194761Y115609714D01*
X98242380Y115704952D01*
X98242380Y115990666D01*
X98194761Y116085904D01*
X98147142Y116133523D01*
X98242380Y115038285D02*
X98242380Y114847809D01*
X98194761Y114752571D01*
X98147142Y114704952D01*
X98004285Y114609714D01*
X97813809Y114562095D01*
X97432857Y114562095D01*
X97337619Y114609714D01*
X97290000Y114657333D01*
X97242380Y114752571D01*
X97242380Y114943047D01*
X97290000Y115038285D01*
X97337619Y115085904D01*
X97432857Y115133523D01*
X97670952Y115133523D01*
X97766190Y115085904D01*
X97813809Y115038285D01*
X97861428Y114943047D01*
X97861428Y114752571D01*
X97813809Y114657333D01*
X97766190Y114609714D01*
X97670952Y114562095D01*
X97226380Y131770285D02*
X96226380Y131770285D01*
X96226380Y131532190D01*
X96274000Y131389333D01*
X96369238Y131294095D01*
X96464476Y131246476D01*
X96654952Y131198857D01*
X96797809Y131198857D01*
X96988285Y131246476D01*
X97083523Y131294095D01*
X97178761Y131389333D01*
X97226380Y131532190D01*
X97226380Y131770285D01*
X96226380Y130865523D02*
X96226380Y130246476D01*
X96607333Y130579809D01*
X96607333Y130436952D01*
X96654952Y130341714D01*
X96702571Y130294095D01*
X96797809Y130246476D01*
X97035904Y130246476D01*
X97131142Y130294095D01*
X97178761Y130341714D01*
X97226380Y130436952D01*
X97226380Y130722666D01*
X97178761Y130817904D01*
X97131142Y130865523D01*
X96654952Y129675047D02*
X96607333Y129770285D01*
X96559714Y129817904D01*
X96464476Y129865523D01*
X96416857Y129865523D01*
X96321619Y129817904D01*
X96274000Y129770285D01*
X96226380Y129675047D01*
X96226380Y129484571D01*
X96274000Y129389333D01*
X96321619Y129341714D01*
X96416857Y129294095D01*
X96464476Y129294095D01*
X96559714Y129341714D01*
X96607333Y129389333D01*
X96654952Y129484571D01*
X96654952Y129675047D01*
X96702571Y129770285D01*
X96750190Y129817904D01*
X96845428Y129865523D01*
X97035904Y129865523D01*
X97131142Y129817904D01*
X97178761Y129770285D01*
X97226380Y129675047D01*
X97226380Y129484571D01*
X97178761Y129389333D01*
X97131142Y129341714D01*
X97035904Y129294095D01*
X96845428Y129294095D01*
X96750190Y129341714D01*
X96702571Y129389333D01*
X96654952Y129484571D01*
X94686380Y131770285D02*
X93686380Y131770285D01*
X93686380Y131532190D01*
X93734000Y131389333D01*
X93829238Y131294095D01*
X93924476Y131246476D01*
X94114952Y131198857D01*
X94257809Y131198857D01*
X94448285Y131246476D01*
X94543523Y131294095D01*
X94638761Y131389333D01*
X94686380Y131532190D01*
X94686380Y131770285D01*
X93686380Y130865523D02*
X93686380Y130246476D01*
X94067333Y130579809D01*
X94067333Y130436952D01*
X94114952Y130341714D01*
X94162571Y130294095D01*
X94257809Y130246476D01*
X94495904Y130246476D01*
X94591142Y130294095D01*
X94638761Y130341714D01*
X94686380Y130436952D01*
X94686380Y130722666D01*
X94638761Y130817904D01*
X94591142Y130865523D01*
X93686380Y129913142D02*
X93686380Y129246476D01*
X94686380Y129675047D01*
X89860380Y131770285D02*
X88860380Y131770285D01*
X88860380Y131532190D01*
X88908000Y131389333D01*
X89003238Y131294095D01*
X89098476Y131246476D01*
X89288952Y131198857D01*
X89431809Y131198857D01*
X89622285Y131246476D01*
X89717523Y131294095D01*
X89812761Y131389333D01*
X89860380Y131532190D01*
X89860380Y131770285D01*
X88860380Y130865523D02*
X88860380Y130246476D01*
X89241333Y130579809D01*
X89241333Y130436952D01*
X89288952Y130341714D01*
X89336571Y130294095D01*
X89431809Y130246476D01*
X89669904Y130246476D01*
X89765142Y130294095D01*
X89812761Y130341714D01*
X89860380Y130436952D01*
X89860380Y130722666D01*
X89812761Y130817904D01*
X89765142Y130865523D01*
X88860380Y129389333D02*
X88860380Y129579809D01*
X88908000Y129675047D01*
X88955619Y129722666D01*
X89098476Y129817904D01*
X89288952Y129865523D01*
X89669904Y129865523D01*
X89765142Y129817904D01*
X89812761Y129770285D01*
X89860380Y129675047D01*
X89860380Y129484571D01*
X89812761Y129389333D01*
X89765142Y129341714D01*
X89669904Y129294095D01*
X89431809Y129294095D01*
X89336571Y129341714D01*
X89288952Y129389333D01*
X89241333Y129484571D01*
X89241333Y129675047D01*
X89288952Y129770285D01*
X89336571Y129817904D01*
X89431809Y129865523D01*
X87320380Y131770285D02*
X86320380Y131770285D01*
X86320380Y131532190D01*
X86368000Y131389333D01*
X86463238Y131294095D01*
X86558476Y131246476D01*
X86748952Y131198857D01*
X86891809Y131198857D01*
X87082285Y131246476D01*
X87177523Y131294095D01*
X87272761Y131389333D01*
X87320380Y131532190D01*
X87320380Y131770285D01*
X86320380Y130865523D02*
X86320380Y130246476D01*
X86701333Y130579809D01*
X86701333Y130436952D01*
X86748952Y130341714D01*
X86796571Y130294095D01*
X86891809Y130246476D01*
X87129904Y130246476D01*
X87225142Y130294095D01*
X87272761Y130341714D01*
X87320380Y130436952D01*
X87320380Y130722666D01*
X87272761Y130817904D01*
X87225142Y130865523D01*
X86320380Y129341714D02*
X86320380Y129817904D01*
X86796571Y129865523D01*
X86748952Y129817904D01*
X86701333Y129722666D01*
X86701333Y129484571D01*
X86748952Y129389333D01*
X86796571Y129341714D01*
X86891809Y129294095D01*
X87129904Y129294095D01*
X87225142Y129341714D01*
X87272761Y129389333D01*
X87320380Y129484571D01*
X87320380Y129722666D01*
X87272761Y129817904D01*
X87225142Y129865523D01*
X96972380Y140152285D02*
X95972380Y140152285D01*
X95972380Y139914190D01*
X96020000Y139771333D01*
X96115238Y139676095D01*
X96210476Y139628476D01*
X96400952Y139580857D01*
X96543809Y139580857D01*
X96734285Y139628476D01*
X96829523Y139676095D01*
X96924761Y139771333D01*
X96972380Y139914190D01*
X96972380Y140152285D01*
X95972380Y139247523D02*
X95972380Y138628476D01*
X96353333Y138961809D01*
X96353333Y138818952D01*
X96400952Y138723714D01*
X96448571Y138676095D01*
X96543809Y138628476D01*
X96781904Y138628476D01*
X96877142Y138676095D01*
X96924761Y138723714D01*
X96972380Y138818952D01*
X96972380Y139104666D01*
X96924761Y139199904D01*
X96877142Y139247523D01*
X96305714Y137771333D02*
X96972380Y137771333D01*
X95924761Y138009428D02*
X96639047Y138247523D01*
X96639047Y137628476D01*
X94686380Y140152285D02*
X93686380Y140152285D01*
X93686380Y139914190D01*
X93734000Y139771333D01*
X93829238Y139676095D01*
X93924476Y139628476D01*
X94114952Y139580857D01*
X94257809Y139580857D01*
X94448285Y139628476D01*
X94543523Y139676095D01*
X94638761Y139771333D01*
X94686380Y139914190D01*
X94686380Y140152285D01*
X93686380Y139247523D02*
X93686380Y138628476D01*
X94067333Y138961809D01*
X94067333Y138818952D01*
X94114952Y138723714D01*
X94162571Y138676095D01*
X94257809Y138628476D01*
X94495904Y138628476D01*
X94591142Y138676095D01*
X94638761Y138723714D01*
X94686380Y138818952D01*
X94686380Y139104666D01*
X94638761Y139199904D01*
X94591142Y139247523D01*
X93686380Y138295142D02*
X93686380Y137676095D01*
X94067333Y138009428D01*
X94067333Y137866571D01*
X94114952Y137771333D01*
X94162571Y137723714D01*
X94257809Y137676095D01*
X94495904Y137676095D01*
X94591142Y137723714D01*
X94638761Y137771333D01*
X94686380Y137866571D01*
X94686380Y138152285D01*
X94638761Y138247523D01*
X94591142Y138295142D01*
X92146380Y140152285D02*
X91146380Y140152285D01*
X91146380Y139914190D01*
X91194000Y139771333D01*
X91289238Y139676095D01*
X91384476Y139628476D01*
X91574952Y139580857D01*
X91717809Y139580857D01*
X91908285Y139628476D01*
X92003523Y139676095D01*
X92098761Y139771333D01*
X92146380Y139914190D01*
X92146380Y140152285D01*
X91146380Y139247523D02*
X91146380Y138628476D01*
X91527333Y138961809D01*
X91527333Y138818952D01*
X91574952Y138723714D01*
X91622571Y138676095D01*
X91717809Y138628476D01*
X91955904Y138628476D01*
X92051142Y138676095D01*
X92098761Y138723714D01*
X92146380Y138818952D01*
X92146380Y139104666D01*
X92098761Y139199904D01*
X92051142Y139247523D01*
X91241619Y138247523D02*
X91194000Y138199904D01*
X91146380Y138104666D01*
X91146380Y137866571D01*
X91194000Y137771333D01*
X91241619Y137723714D01*
X91336857Y137676095D01*
X91432095Y137676095D01*
X91574952Y137723714D01*
X92146380Y138295142D01*
X92146380Y137676095D01*
X89860380Y140152285D02*
X88860380Y140152285D01*
X88860380Y139914190D01*
X88908000Y139771333D01*
X89003238Y139676095D01*
X89098476Y139628476D01*
X89288952Y139580857D01*
X89431809Y139580857D01*
X89622285Y139628476D01*
X89717523Y139676095D01*
X89812761Y139771333D01*
X89860380Y139914190D01*
X89860380Y140152285D01*
X88860380Y139247523D02*
X88860380Y138628476D01*
X89241333Y138961809D01*
X89241333Y138818952D01*
X89288952Y138723714D01*
X89336571Y138676095D01*
X89431809Y138628476D01*
X89669904Y138628476D01*
X89765142Y138676095D01*
X89812761Y138723714D01*
X89860380Y138818952D01*
X89860380Y139104666D01*
X89812761Y139199904D01*
X89765142Y139247523D01*
X89860380Y137676095D02*
X89860380Y138247523D01*
X89860380Y137961809D02*
X88860380Y137961809D01*
X89003238Y138057047D01*
X89098476Y138152285D01*
X89146095Y138247523D01*
X121102380Y117038285D02*
X120102380Y117038285D01*
X120102380Y116800190D01*
X120150000Y116657333D01*
X120245238Y116562095D01*
X120340476Y116514476D01*
X120530952Y116466857D01*
X120673809Y116466857D01*
X120864285Y116514476D01*
X120959523Y116562095D01*
X121054761Y116657333D01*
X121102380Y116800190D01*
X121102380Y117038285D01*
X120102380Y116133523D02*
X120102380Y115514476D01*
X120483333Y115847809D01*
X120483333Y115704952D01*
X120530952Y115609714D01*
X120578571Y115562095D01*
X120673809Y115514476D01*
X120911904Y115514476D01*
X121007142Y115562095D01*
X121054761Y115609714D01*
X121102380Y115704952D01*
X121102380Y115990666D01*
X121054761Y116085904D01*
X121007142Y116133523D01*
X120102380Y114895428D02*
X120102380Y114800190D01*
X120150000Y114704952D01*
X120197619Y114657333D01*
X120292857Y114609714D01*
X120483333Y114562095D01*
X120721428Y114562095D01*
X120911904Y114609714D01*
X121007142Y114657333D01*
X121054761Y114704952D01*
X121102380Y114800190D01*
X121102380Y114895428D01*
X121054761Y114990666D01*
X121007142Y115038285D01*
X120911904Y115085904D01*
X120721428Y115133523D01*
X120483333Y115133523D01*
X120292857Y115085904D01*
X120197619Y115038285D01*
X120150000Y114990666D01*
X120102380Y114895428D01*
X118562380Y117038285D02*
X117562380Y117038285D01*
X117562380Y116800190D01*
X117610000Y116657333D01*
X117705238Y116562095D01*
X117800476Y116514476D01*
X117990952Y116466857D01*
X118133809Y116466857D01*
X118324285Y116514476D01*
X118419523Y116562095D01*
X118514761Y116657333D01*
X118562380Y116800190D01*
X118562380Y117038285D01*
X117657619Y116085904D02*
X117610000Y116038285D01*
X117562380Y115943047D01*
X117562380Y115704952D01*
X117610000Y115609714D01*
X117657619Y115562095D01*
X117752857Y115514476D01*
X117848095Y115514476D01*
X117990952Y115562095D01*
X118562380Y116133523D01*
X118562380Y115514476D01*
X118562380Y115038285D02*
X118562380Y114847809D01*
X118514761Y114752571D01*
X118467142Y114704952D01*
X118324285Y114609714D01*
X118133809Y114562095D01*
X117752857Y114562095D01*
X117657619Y114609714D01*
X117610000Y114657333D01*
X117562380Y114752571D01*
X117562380Y114943047D01*
X117610000Y115038285D01*
X117657619Y115085904D01*
X117752857Y115133523D01*
X117990952Y115133523D01*
X118086190Y115085904D01*
X118133809Y115038285D01*
X118181428Y114943047D01*
X118181428Y114752571D01*
X118133809Y114657333D01*
X118086190Y114609714D01*
X117990952Y114562095D01*
X113482380Y117038285D02*
X112482380Y117038285D01*
X112482380Y116800190D01*
X112530000Y116657333D01*
X112625238Y116562095D01*
X112720476Y116514476D01*
X112910952Y116466857D01*
X113053809Y116466857D01*
X113244285Y116514476D01*
X113339523Y116562095D01*
X113434761Y116657333D01*
X113482380Y116800190D01*
X113482380Y117038285D01*
X112577619Y116085904D02*
X112530000Y116038285D01*
X112482380Y115943047D01*
X112482380Y115704952D01*
X112530000Y115609714D01*
X112577619Y115562095D01*
X112672857Y115514476D01*
X112768095Y115514476D01*
X112910952Y115562095D01*
X113482380Y116133523D01*
X113482380Y115514476D01*
X112910952Y114943047D02*
X112863333Y115038285D01*
X112815714Y115085904D01*
X112720476Y115133523D01*
X112672857Y115133523D01*
X112577619Y115085904D01*
X112530000Y115038285D01*
X112482380Y114943047D01*
X112482380Y114752571D01*
X112530000Y114657333D01*
X112577619Y114609714D01*
X112672857Y114562095D01*
X112720476Y114562095D01*
X112815714Y114609714D01*
X112863333Y114657333D01*
X112910952Y114752571D01*
X112910952Y114943047D01*
X112958571Y115038285D01*
X113006190Y115085904D01*
X113101428Y115133523D01*
X113291904Y115133523D01*
X113387142Y115085904D01*
X113434761Y115038285D01*
X113482380Y114943047D01*
X113482380Y114752571D01*
X113434761Y114657333D01*
X113387142Y114609714D01*
X113291904Y114562095D01*
X113101428Y114562095D01*
X113006190Y114609714D01*
X112958571Y114657333D01*
X112910952Y114752571D01*
X92146380Y131770285D02*
X91146380Y131770285D01*
X91146380Y131532190D01*
X91194000Y131389333D01*
X91289238Y131294095D01*
X91384476Y131246476D01*
X91574952Y131198857D01*
X91717809Y131198857D01*
X91908285Y131246476D01*
X92003523Y131294095D01*
X92098761Y131389333D01*
X92146380Y131532190D01*
X92146380Y131770285D01*
X91241619Y130817904D02*
X91194000Y130770285D01*
X91146380Y130675047D01*
X91146380Y130436952D01*
X91194000Y130341714D01*
X91241619Y130294095D01*
X91336857Y130246476D01*
X91432095Y130246476D01*
X91574952Y130294095D01*
X92146380Y130865523D01*
X92146380Y130246476D01*
X91146380Y129913142D02*
X91146380Y129246476D01*
X92146380Y129675047D01*
X87320380Y140152285D02*
X86320380Y140152285D01*
X86320380Y139914190D01*
X86368000Y139771333D01*
X86463238Y139676095D01*
X86558476Y139628476D01*
X86748952Y139580857D01*
X86891809Y139580857D01*
X87082285Y139628476D01*
X87177523Y139676095D01*
X87272761Y139771333D01*
X87320380Y139914190D01*
X87320380Y140152285D01*
X86415619Y139199904D02*
X86368000Y139152285D01*
X86320380Y139057047D01*
X86320380Y138818952D01*
X86368000Y138723714D01*
X86415619Y138676095D01*
X86510857Y138628476D01*
X86606095Y138628476D01*
X86748952Y138676095D01*
X87320380Y139247523D01*
X87320380Y138628476D01*
X86320380Y137771333D02*
X86320380Y137961809D01*
X86368000Y138057047D01*
X86415619Y138104666D01*
X86558476Y138199904D01*
X86748952Y138247523D01*
X87129904Y138247523D01*
X87225142Y138199904D01*
X87272761Y138152285D01*
X87320380Y138057047D01*
X87320380Y137866571D01*
X87272761Y137771333D01*
X87225142Y137723714D01*
X87129904Y137676095D01*
X86891809Y137676095D01*
X86796571Y137723714D01*
X86748952Y137771333D01*
X86701333Y137866571D01*
X86701333Y138057047D01*
X86748952Y138152285D01*
X86796571Y138199904D01*
X86891809Y138247523D01*
X105862380Y117038285D02*
X104862380Y117038285D01*
X104862380Y116800190D01*
X104910000Y116657333D01*
X105005238Y116562095D01*
X105100476Y116514476D01*
X105290952Y116466857D01*
X105433809Y116466857D01*
X105624285Y116514476D01*
X105719523Y116562095D01*
X105814761Y116657333D01*
X105862380Y116800190D01*
X105862380Y117038285D01*
X104957619Y116085904D02*
X104910000Y116038285D01*
X104862380Y115943047D01*
X104862380Y115704952D01*
X104910000Y115609714D01*
X104957619Y115562095D01*
X105052857Y115514476D01*
X105148095Y115514476D01*
X105290952Y115562095D01*
X105862380Y116133523D01*
X105862380Y115514476D01*
X104862380Y114609714D02*
X104862380Y115085904D01*
X105338571Y115133523D01*
X105290952Y115085904D01*
X105243333Y114990666D01*
X105243333Y114752571D01*
X105290952Y114657333D01*
X105338571Y114609714D01*
X105433809Y114562095D01*
X105671904Y114562095D01*
X105767142Y114609714D01*
X105814761Y114657333D01*
X105862380Y114752571D01*
X105862380Y114990666D01*
X105814761Y115085904D01*
X105767142Y115133523D01*
X85034380Y131770285D02*
X84034380Y131770285D01*
X84034380Y131532190D01*
X84082000Y131389333D01*
X84177238Y131294095D01*
X84272476Y131246476D01*
X84462952Y131198857D01*
X84605809Y131198857D01*
X84796285Y131246476D01*
X84891523Y131294095D01*
X84986761Y131389333D01*
X85034380Y131532190D01*
X85034380Y131770285D01*
X84129619Y130817904D02*
X84082000Y130770285D01*
X84034380Y130675047D01*
X84034380Y130436952D01*
X84082000Y130341714D01*
X84129619Y130294095D01*
X84224857Y130246476D01*
X84320095Y130246476D01*
X84462952Y130294095D01*
X85034380Y130865523D01*
X85034380Y130246476D01*
X84367714Y129389333D02*
X85034380Y129389333D01*
X83986761Y129627428D02*
X84701047Y129865523D01*
X84701047Y129246476D01*
X85034380Y140152285D02*
X84034380Y140152285D01*
X84034380Y139914190D01*
X84082000Y139771333D01*
X84177238Y139676095D01*
X84272476Y139628476D01*
X84462952Y139580857D01*
X84605809Y139580857D01*
X84796285Y139628476D01*
X84891523Y139676095D01*
X84986761Y139771333D01*
X85034380Y139914190D01*
X85034380Y140152285D01*
X84129619Y139199904D02*
X84082000Y139152285D01*
X84034380Y139057047D01*
X84034380Y138818952D01*
X84082000Y138723714D01*
X84129619Y138676095D01*
X84224857Y138628476D01*
X84320095Y138628476D01*
X84462952Y138676095D01*
X85034380Y139247523D01*
X85034380Y138628476D01*
X84034380Y138295142D02*
X84034380Y137676095D01*
X84415333Y138009428D01*
X84415333Y137866571D01*
X84462952Y137771333D01*
X84510571Y137723714D01*
X84605809Y137676095D01*
X84843904Y137676095D01*
X84939142Y137723714D01*
X84986761Y137771333D01*
X85034380Y137866571D01*
X85034380Y138152285D01*
X84986761Y138247523D01*
X84939142Y138295142D01*
X54554380Y117038285D02*
X53554380Y117038285D01*
X53554380Y116800190D01*
X53602000Y116657333D01*
X53697238Y116562095D01*
X53792476Y116514476D01*
X53982952Y116466857D01*
X54125809Y116466857D01*
X54316285Y116514476D01*
X54411523Y116562095D01*
X54506761Y116657333D01*
X54554380Y116800190D01*
X54554380Y117038285D01*
X53649619Y116085904D02*
X53602000Y116038285D01*
X53554380Y115943047D01*
X53554380Y115704952D01*
X53602000Y115609714D01*
X53649619Y115562095D01*
X53744857Y115514476D01*
X53840095Y115514476D01*
X53982952Y115562095D01*
X54554380Y116133523D01*
X54554380Y115514476D01*
X53649619Y115133523D02*
X53602000Y115085904D01*
X53554380Y114990666D01*
X53554380Y114752571D01*
X53602000Y114657333D01*
X53649619Y114609714D01*
X53744857Y114562095D01*
X53840095Y114562095D01*
X53982952Y114609714D01*
X54554380Y115181142D01*
X54554380Y114562095D01*
X78938380Y131770285D02*
X77938380Y131770285D01*
X77938380Y131532190D01*
X77986000Y131389333D01*
X78081238Y131294095D01*
X78176476Y131246476D01*
X78366952Y131198857D01*
X78509809Y131198857D01*
X78700285Y131246476D01*
X78795523Y131294095D01*
X78890761Y131389333D01*
X78938380Y131532190D01*
X78938380Y131770285D01*
X78033619Y130817904D02*
X77986000Y130770285D01*
X77938380Y130675047D01*
X77938380Y130436952D01*
X77986000Y130341714D01*
X78033619Y130294095D01*
X78128857Y130246476D01*
X78224095Y130246476D01*
X78366952Y130294095D01*
X78938380Y130865523D01*
X78938380Y130246476D01*
X78938380Y129294095D02*
X78938380Y129865523D01*
X78938380Y129579809D02*
X77938380Y129579809D01*
X78081238Y129675047D01*
X78176476Y129770285D01*
X78224095Y129865523D01*
X78938380Y140406285D02*
X77938380Y140406285D01*
X77938380Y140168190D01*
X77986000Y140025333D01*
X78081238Y139930095D01*
X78176476Y139882476D01*
X78366952Y139834857D01*
X78509809Y139834857D01*
X78700285Y139882476D01*
X78795523Y139930095D01*
X78890761Y140025333D01*
X78938380Y140168190D01*
X78938380Y140406285D01*
X78033619Y139453904D02*
X77986000Y139406285D01*
X77938380Y139311047D01*
X77938380Y139072952D01*
X77986000Y138977714D01*
X78033619Y138930095D01*
X78128857Y138882476D01*
X78224095Y138882476D01*
X78366952Y138930095D01*
X78938380Y139501523D01*
X78938380Y138882476D01*
X77938380Y138263428D02*
X77938380Y138168190D01*
X77986000Y138072952D01*
X78033619Y138025333D01*
X78128857Y137977714D01*
X78319333Y137930095D01*
X78557428Y137930095D01*
X78747904Y137977714D01*
X78843142Y138025333D01*
X78890761Y138072952D01*
X78938380Y138168190D01*
X78938380Y138263428D01*
X78890761Y138358666D01*
X78843142Y138406285D01*
X78747904Y138453904D01*
X78557428Y138501523D01*
X78319333Y138501523D01*
X78128857Y138453904D01*
X78033619Y138406285D01*
X77986000Y138358666D01*
X77938380Y138263428D01*
X40076380Y117038285D02*
X39076380Y117038285D01*
X39076380Y116800190D01*
X39124000Y116657333D01*
X39219238Y116562095D01*
X39314476Y116514476D01*
X39504952Y116466857D01*
X39647809Y116466857D01*
X39838285Y116514476D01*
X39933523Y116562095D01*
X40028761Y116657333D01*
X40076380Y116800190D01*
X40076380Y117038285D01*
X40076380Y115514476D02*
X40076380Y116085904D01*
X40076380Y115800190D02*
X39076380Y115800190D01*
X39219238Y115895428D01*
X39314476Y115990666D01*
X39362095Y116085904D01*
X40076380Y115038285D02*
X40076380Y114847809D01*
X40028761Y114752571D01*
X39981142Y114704952D01*
X39838285Y114609714D01*
X39647809Y114562095D01*
X39266857Y114562095D01*
X39171619Y114609714D01*
X39124000Y114657333D01*
X39076380Y114752571D01*
X39076380Y114943047D01*
X39124000Y115038285D01*
X39171619Y115085904D01*
X39266857Y115133523D01*
X39504952Y115133523D01*
X39600190Y115085904D01*
X39647809Y115038285D01*
X39695428Y114943047D01*
X39695428Y114752571D01*
X39647809Y114657333D01*
X39600190Y114609714D01*
X39504952Y114562095D01*
X42362380Y117038285D02*
X41362380Y117038285D01*
X41362380Y116800190D01*
X41410000Y116657333D01*
X41505238Y116562095D01*
X41600476Y116514476D01*
X41790952Y116466857D01*
X41933809Y116466857D01*
X42124285Y116514476D01*
X42219523Y116562095D01*
X42314761Y116657333D01*
X42362380Y116800190D01*
X42362380Y117038285D01*
X42362380Y115514476D02*
X42362380Y116085904D01*
X42362380Y115800190D02*
X41362380Y115800190D01*
X41505238Y115895428D01*
X41600476Y115990666D01*
X41648095Y116085904D01*
X41790952Y114943047D02*
X41743333Y115038285D01*
X41695714Y115085904D01*
X41600476Y115133523D01*
X41552857Y115133523D01*
X41457619Y115085904D01*
X41410000Y115038285D01*
X41362380Y114943047D01*
X41362380Y114752571D01*
X41410000Y114657333D01*
X41457619Y114609714D01*
X41552857Y114562095D01*
X41600476Y114562095D01*
X41695714Y114609714D01*
X41743333Y114657333D01*
X41790952Y114752571D01*
X41790952Y114943047D01*
X41838571Y115038285D01*
X41886190Y115085904D01*
X41981428Y115133523D01*
X42171904Y115133523D01*
X42267142Y115085904D01*
X42314761Y115038285D01*
X42362380Y114943047D01*
X42362380Y114752571D01*
X42314761Y114657333D01*
X42267142Y114609714D01*
X42171904Y114562095D01*
X41981428Y114562095D01*
X41886190Y114609714D01*
X41838571Y114657333D01*
X41790952Y114752571D01*
X44902380Y117038285D02*
X43902380Y117038285D01*
X43902380Y116800190D01*
X43950000Y116657333D01*
X44045238Y116562095D01*
X44140476Y116514476D01*
X44330952Y116466857D01*
X44473809Y116466857D01*
X44664285Y116514476D01*
X44759523Y116562095D01*
X44854761Y116657333D01*
X44902380Y116800190D01*
X44902380Y117038285D01*
X44902380Y115514476D02*
X44902380Y116085904D01*
X44902380Y115800190D02*
X43902380Y115800190D01*
X44045238Y115895428D01*
X44140476Y115990666D01*
X44188095Y116085904D01*
X43902380Y115181142D02*
X43902380Y114514476D01*
X44902380Y114943047D01*
X71318380Y131770285D02*
X70318380Y131770285D01*
X70318380Y131532190D01*
X70366000Y131389333D01*
X70461238Y131294095D01*
X70556476Y131246476D01*
X70746952Y131198857D01*
X70889809Y131198857D01*
X71080285Y131246476D01*
X71175523Y131294095D01*
X71270761Y131389333D01*
X71318380Y131532190D01*
X71318380Y131770285D01*
X71318380Y130246476D02*
X71318380Y130817904D01*
X71318380Y130532190D02*
X70318380Y130532190D01*
X70461238Y130627428D01*
X70556476Y130722666D01*
X70604095Y130817904D01*
X70318380Y129389333D02*
X70318380Y129579809D01*
X70366000Y129675047D01*
X70413619Y129722666D01*
X70556476Y129817904D01*
X70746952Y129865523D01*
X71127904Y129865523D01*
X71223142Y129817904D01*
X71270761Y129770285D01*
X71318380Y129675047D01*
X71318380Y129484571D01*
X71270761Y129389333D01*
X71223142Y129341714D01*
X71127904Y129294095D01*
X70889809Y129294095D01*
X70794571Y129341714D01*
X70746952Y129389333D01*
X70699333Y129484571D01*
X70699333Y129675047D01*
X70746952Y129770285D01*
X70794571Y129817904D01*
X70889809Y129865523D01*
X76398380Y140406285D02*
X75398380Y140406285D01*
X75398380Y140168190D01*
X75446000Y140025333D01*
X75541238Y139930095D01*
X75636476Y139882476D01*
X75826952Y139834857D01*
X75969809Y139834857D01*
X76160285Y139882476D01*
X76255523Y139930095D01*
X76350761Y140025333D01*
X76398380Y140168190D01*
X76398380Y140406285D01*
X76398380Y138882476D02*
X76398380Y139453904D01*
X76398380Y139168190D02*
X75398380Y139168190D01*
X75541238Y139263428D01*
X75636476Y139358666D01*
X75684095Y139453904D01*
X75398380Y137977714D02*
X75398380Y138453904D01*
X75874571Y138501523D01*
X75826952Y138453904D01*
X75779333Y138358666D01*
X75779333Y138120571D01*
X75826952Y138025333D01*
X75874571Y137977714D01*
X75969809Y137930095D01*
X76207904Y137930095D01*
X76303142Y137977714D01*
X76350761Y138025333D01*
X76398380Y138120571D01*
X76398380Y138358666D01*
X76350761Y138453904D01*
X76303142Y138501523D01*
X47442380Y117038285D02*
X46442380Y117038285D01*
X46442380Y116800190D01*
X46490000Y116657333D01*
X46585238Y116562095D01*
X46680476Y116514476D01*
X46870952Y116466857D01*
X47013809Y116466857D01*
X47204285Y116514476D01*
X47299523Y116562095D01*
X47394761Y116657333D01*
X47442380Y116800190D01*
X47442380Y117038285D01*
X47442380Y115514476D02*
X47442380Y116085904D01*
X47442380Y115800190D02*
X46442380Y115800190D01*
X46585238Y115895428D01*
X46680476Y115990666D01*
X46728095Y116085904D01*
X46775714Y114657333D02*
X47442380Y114657333D01*
X46394761Y114895428D02*
X47109047Y115133523D01*
X47109047Y114514476D01*
X49982380Y117038285D02*
X48982380Y117038285D01*
X48982380Y116800190D01*
X49030000Y116657333D01*
X49125238Y116562095D01*
X49220476Y116514476D01*
X49410952Y116466857D01*
X49553809Y116466857D01*
X49744285Y116514476D01*
X49839523Y116562095D01*
X49934761Y116657333D01*
X49982380Y116800190D01*
X49982380Y117038285D01*
X49982380Y115514476D02*
X49982380Y116085904D01*
X49982380Y115800190D02*
X48982380Y115800190D01*
X49125238Y115895428D01*
X49220476Y115990666D01*
X49268095Y116085904D01*
X48982380Y115181142D02*
X48982380Y114562095D01*
X49363333Y114895428D01*
X49363333Y114752571D01*
X49410952Y114657333D01*
X49458571Y114609714D01*
X49553809Y114562095D01*
X49791904Y114562095D01*
X49887142Y114609714D01*
X49934761Y114657333D01*
X49982380Y114752571D01*
X49982380Y115038285D01*
X49934761Y115133523D01*
X49887142Y115181142D01*
X52268380Y117038285D02*
X51268380Y117038285D01*
X51268380Y116800190D01*
X51316000Y116657333D01*
X51411238Y116562095D01*
X51506476Y116514476D01*
X51696952Y116466857D01*
X51839809Y116466857D01*
X52030285Y116514476D01*
X52125523Y116562095D01*
X52220761Y116657333D01*
X52268380Y116800190D01*
X52268380Y117038285D01*
X52268380Y115514476D02*
X52268380Y116085904D01*
X52268380Y115800190D02*
X51268380Y115800190D01*
X51411238Y115895428D01*
X51506476Y115990666D01*
X51554095Y116085904D01*
X51363619Y115133523D02*
X51316000Y115085904D01*
X51268380Y114990666D01*
X51268380Y114752571D01*
X51316000Y114657333D01*
X51363619Y114609714D01*
X51458857Y114562095D01*
X51554095Y114562095D01*
X51696952Y114609714D01*
X52268380Y115181142D01*
X52268380Y114562095D01*
X57094380Y117038285D02*
X56094380Y117038285D01*
X56094380Y116800190D01*
X56142000Y116657333D01*
X56237238Y116562095D01*
X56332476Y116514476D01*
X56522952Y116466857D01*
X56665809Y116466857D01*
X56856285Y116514476D01*
X56951523Y116562095D01*
X57046761Y116657333D01*
X57094380Y116800190D01*
X57094380Y117038285D01*
X57094380Y115514476D02*
X57094380Y116085904D01*
X57094380Y115800190D02*
X56094380Y115800190D01*
X56237238Y115895428D01*
X56332476Y115990666D01*
X56380095Y116085904D01*
X57094380Y114562095D02*
X57094380Y115133523D01*
X57094380Y114847809D02*
X56094380Y114847809D01*
X56237238Y114943047D01*
X56332476Y115038285D01*
X56380095Y115133523D01*
X59634380Y117038285D02*
X58634380Y117038285D01*
X58634380Y116800190D01*
X58682000Y116657333D01*
X58777238Y116562095D01*
X58872476Y116514476D01*
X59062952Y116466857D01*
X59205809Y116466857D01*
X59396285Y116514476D01*
X59491523Y116562095D01*
X59586761Y116657333D01*
X59634380Y116800190D01*
X59634380Y117038285D01*
X59634380Y115514476D02*
X59634380Y116085904D01*
X59634380Y115800190D02*
X58634380Y115800190D01*
X58777238Y115895428D01*
X58872476Y115990666D01*
X58920095Y116085904D01*
X58634380Y114895428D02*
X58634380Y114800190D01*
X58682000Y114704952D01*
X58729619Y114657333D01*
X58824857Y114609714D01*
X59015333Y114562095D01*
X59253428Y114562095D01*
X59443904Y114609714D01*
X59539142Y114657333D01*
X59586761Y114704952D01*
X59634380Y114800190D01*
X59634380Y114895428D01*
X59586761Y114990666D01*
X59539142Y115038285D01*
X59443904Y115085904D01*
X59253428Y115133523D01*
X59015333Y115133523D01*
X58824857Y115085904D01*
X58729619Y115038285D01*
X58682000Y114990666D01*
X58634380Y114895428D01*
X61920380Y117070095D02*
X60920380Y117070095D01*
X60920380Y116832000D01*
X60968000Y116689142D01*
X61063238Y116593904D01*
X61158476Y116546285D01*
X61348952Y116498666D01*
X61491809Y116498666D01*
X61682285Y116546285D01*
X61777523Y116593904D01*
X61872761Y116689142D01*
X61920380Y116832000D01*
X61920380Y117070095D01*
X61920380Y116022476D02*
X61920380Y115832000D01*
X61872761Y115736761D01*
X61825142Y115689142D01*
X61682285Y115593904D01*
X61491809Y115546285D01*
X61110857Y115546285D01*
X61015619Y115593904D01*
X60968000Y115641523D01*
X60920380Y115736761D01*
X60920380Y115927238D01*
X60968000Y116022476D01*
X61015619Y116070095D01*
X61110857Y116117714D01*
X61348952Y116117714D01*
X61444190Y116070095D01*
X61491809Y116022476D01*
X61539428Y115927238D01*
X61539428Y115736761D01*
X61491809Y115641523D01*
X61444190Y115593904D01*
X61348952Y115546285D01*
X66492380Y131294095D02*
X65492380Y131294095D01*
X65492380Y131056000D01*
X65540000Y130913142D01*
X65635238Y130817904D01*
X65730476Y130770285D01*
X65920952Y130722666D01*
X66063809Y130722666D01*
X66254285Y130770285D01*
X66349523Y130817904D01*
X66444761Y130913142D01*
X66492380Y131056000D01*
X66492380Y131294095D01*
X65920952Y130151238D02*
X65873333Y130246476D01*
X65825714Y130294095D01*
X65730476Y130341714D01*
X65682857Y130341714D01*
X65587619Y130294095D01*
X65540000Y130246476D01*
X65492380Y130151238D01*
X65492380Y129960761D01*
X65540000Y129865523D01*
X65587619Y129817904D01*
X65682857Y129770285D01*
X65730476Y129770285D01*
X65825714Y129817904D01*
X65873333Y129865523D01*
X65920952Y129960761D01*
X65920952Y130151238D01*
X65968571Y130246476D01*
X66016190Y130294095D01*
X66111428Y130341714D01*
X66301904Y130341714D01*
X66397142Y130294095D01*
X66444761Y130246476D01*
X66492380Y130151238D01*
X66492380Y129960761D01*
X66444761Y129865523D01*
X66397142Y129817904D01*
X66301904Y129770285D01*
X66111428Y129770285D01*
X66016190Y129817904D01*
X65968571Y129865523D01*
X65920952Y129960761D01*
X68778380Y131294095D02*
X67778380Y131294095D01*
X67778380Y131056000D01*
X67826000Y130913142D01*
X67921238Y130817904D01*
X68016476Y130770285D01*
X68206952Y130722666D01*
X68349809Y130722666D01*
X68540285Y130770285D01*
X68635523Y130817904D01*
X68730761Y130913142D01*
X68778380Y131056000D01*
X68778380Y131294095D01*
X67778380Y130389333D02*
X67778380Y129722666D01*
X68778380Y130151238D01*
X73858380Y131802095D02*
X72858380Y131802095D01*
X72858380Y131564000D01*
X72906000Y131421142D01*
X73001238Y131325904D01*
X73096476Y131278285D01*
X73286952Y131230666D01*
X73429809Y131230666D01*
X73620285Y131278285D01*
X73715523Y131325904D01*
X73810761Y131421142D01*
X73858380Y131564000D01*
X73858380Y131802095D01*
X72858380Y130373523D02*
X72858380Y130564000D01*
X72906000Y130659238D01*
X72953619Y130706857D01*
X73096476Y130802095D01*
X73286952Y130849714D01*
X73667904Y130849714D01*
X73763142Y130802095D01*
X73810761Y130754476D01*
X73858380Y130659238D01*
X73858380Y130468761D01*
X73810761Y130373523D01*
X73763142Y130325904D01*
X73667904Y130278285D01*
X73429809Y130278285D01*
X73334571Y130325904D01*
X73286952Y130373523D01*
X73239333Y130468761D01*
X73239333Y130659238D01*
X73286952Y130754476D01*
X73334571Y130802095D01*
X73429809Y130849714D01*
X76398380Y131802095D02*
X75398380Y131802095D01*
X75398380Y131564000D01*
X75446000Y131421142D01*
X75541238Y131325904D01*
X75636476Y131278285D01*
X75826952Y131230666D01*
X75969809Y131230666D01*
X76160285Y131278285D01*
X76255523Y131325904D01*
X76350761Y131421142D01*
X76398380Y131564000D01*
X76398380Y131802095D01*
X75398380Y130325904D02*
X75398380Y130802095D01*
X75874571Y130849714D01*
X75826952Y130802095D01*
X75779333Y130706857D01*
X75779333Y130468761D01*
X75826952Y130373523D01*
X75874571Y130325904D01*
X75969809Y130278285D01*
X76207904Y130278285D01*
X76303142Y130325904D01*
X76350761Y130373523D01*
X76398380Y130468761D01*
X76398380Y130706857D01*
X76350761Y130802095D01*
X76303142Y130849714D01*
X66492380Y139930095D02*
X65492380Y139930095D01*
X65492380Y139692000D01*
X65540000Y139549142D01*
X65635238Y139453904D01*
X65730476Y139406285D01*
X65920952Y139358666D01*
X66063809Y139358666D01*
X66254285Y139406285D01*
X66349523Y139453904D01*
X66444761Y139549142D01*
X66492380Y139692000D01*
X66492380Y139930095D01*
X65825714Y138501523D02*
X66492380Y138501523D01*
X65444761Y138739619D02*
X66159047Y138977714D01*
X66159047Y138358666D01*
X69032380Y140184095D02*
X68032380Y140184095D01*
X68032380Y139946000D01*
X68080000Y139803142D01*
X68175238Y139707904D01*
X68270476Y139660285D01*
X68460952Y139612666D01*
X68603809Y139612666D01*
X68794285Y139660285D01*
X68889523Y139707904D01*
X68984761Y139803142D01*
X69032380Y139946000D01*
X69032380Y140184095D01*
X68032380Y139279333D02*
X68032380Y138660285D01*
X68413333Y138993619D01*
X68413333Y138850761D01*
X68460952Y138755523D01*
X68508571Y138707904D01*
X68603809Y138660285D01*
X68841904Y138660285D01*
X68937142Y138707904D01*
X68984761Y138755523D01*
X69032380Y138850761D01*
X69032380Y139136476D01*
X68984761Y139231714D01*
X68937142Y139279333D01*
X71572380Y140184095D02*
X70572380Y140184095D01*
X70572380Y139946000D01*
X70620000Y139803142D01*
X70715238Y139707904D01*
X70810476Y139660285D01*
X71000952Y139612666D01*
X71143809Y139612666D01*
X71334285Y139660285D01*
X71429523Y139707904D01*
X71524761Y139803142D01*
X71572380Y139946000D01*
X71572380Y140184095D01*
X70667619Y139231714D02*
X70620000Y139184095D01*
X70572380Y139088857D01*
X70572380Y138850761D01*
X70620000Y138755523D01*
X70667619Y138707904D01*
X70762857Y138660285D01*
X70858095Y138660285D01*
X71000952Y138707904D01*
X71572380Y139279333D01*
X71572380Y138660285D01*
X73858380Y140184095D02*
X72858380Y140184095D01*
X72858380Y139946000D01*
X72906000Y139803142D01*
X73001238Y139707904D01*
X73096476Y139660285D01*
X73286952Y139612666D01*
X73429809Y139612666D01*
X73620285Y139660285D01*
X73715523Y139707904D01*
X73810761Y139803142D01*
X73858380Y139946000D01*
X73858380Y140184095D01*
X73858380Y138660285D02*
X73858380Y139231714D01*
X73858380Y138946000D02*
X72858380Y138946000D01*
X73001238Y139041238D01*
X73096476Y139136476D01*
X73144095Y139231714D01*
X82399142Y119895857D02*
X82446761Y119943476D01*
X82494380Y120086333D01*
X82494380Y120181571D01*
X82446761Y120324428D01*
X82351523Y120419666D01*
X82256285Y120467285D01*
X82065809Y120514904D01*
X81922952Y120514904D01*
X81732476Y120467285D01*
X81637238Y120419666D01*
X81542000Y120324428D01*
X81494380Y120181571D01*
X81494380Y120086333D01*
X81542000Y119943476D01*
X81589619Y119895857D01*
X82494380Y118943476D02*
X82494380Y119514904D01*
X82494380Y119229190D02*
X81494380Y119229190D01*
X81637238Y119324428D01*
X81732476Y119419666D01*
X81780095Y119514904D01*
X81494380Y118324428D02*
X81494380Y118229190D01*
X81542000Y118133952D01*
X81589619Y118086333D01*
X81684857Y118038714D01*
X81875333Y117991095D01*
X82113428Y117991095D01*
X82303904Y118038714D01*
X82399142Y118086333D01*
X82446761Y118133952D01*
X82494380Y118229190D01*
X82494380Y118324428D01*
X82446761Y118419666D01*
X82399142Y118467285D01*
X82303904Y118514904D01*
X82113428Y118562523D01*
X81875333Y118562523D01*
X81684857Y118514904D01*
X81589619Y118467285D01*
X81542000Y118419666D01*
X81494380Y118324428D01*
X85447142Y151550666D02*
X85494761Y151598285D01*
X85542380Y151741142D01*
X85542380Y151836380D01*
X85494761Y151979238D01*
X85399523Y152074476D01*
X85304285Y152122095D01*
X85113809Y152169714D01*
X84970952Y152169714D01*
X84780476Y152122095D01*
X84685238Y152074476D01*
X84590000Y151979238D01*
X84542380Y151836380D01*
X84542380Y151741142D01*
X84590000Y151598285D01*
X84637619Y151550666D01*
X85542380Y151074476D02*
X85542380Y150884000D01*
X85494761Y150788761D01*
X85447142Y150741142D01*
X85304285Y150645904D01*
X85113809Y150598285D01*
X84732857Y150598285D01*
X84637619Y150645904D01*
X84590000Y150693523D01*
X84542380Y150788761D01*
X84542380Y150979238D01*
X84590000Y151074476D01*
X84637619Y151122095D01*
X84732857Y151169714D01*
X84970952Y151169714D01*
X85066190Y151122095D01*
X85113809Y151074476D01*
X85161428Y150979238D01*
X85161428Y150788761D01*
X85113809Y150693523D01*
X85066190Y150645904D01*
X84970952Y150598285D01*
X93035416Y105052857D02*
X93083035Y105005238D01*
X93225892Y104957619D01*
X93321130Y104957619D01*
X93463988Y105005238D01*
X93559226Y105100476D01*
X93606845Y105195714D01*
X93654464Y105386190D01*
X93654464Y105529047D01*
X93606845Y105719523D01*
X93559226Y105814761D01*
X93463988Y105910000D01*
X93321130Y105957619D01*
X93225892Y105957619D01*
X93083035Y105910000D01*
X93035416Y105862380D01*
X92463988Y105529047D02*
X92559226Y105576666D01*
X92606845Y105624285D01*
X92654464Y105719523D01*
X92654464Y105767142D01*
X92606845Y105862380D01*
X92559226Y105910000D01*
X92463988Y105957619D01*
X92273511Y105957619D01*
X92178273Y105910000D01*
X92130654Y105862380D01*
X92083035Y105767142D01*
X92083035Y105719523D01*
X92130654Y105624285D01*
X92178273Y105576666D01*
X92273511Y105529047D01*
X92463988Y105529047D01*
X92559226Y105481428D01*
X92606845Y105433809D01*
X92654464Y105338571D01*
X92654464Y105148095D01*
X92606845Y105052857D01*
X92559226Y105005238D01*
X92463988Y104957619D01*
X92273511Y104957619D01*
X92178273Y105005238D01*
X92130654Y105052857D01*
X92083035Y105148095D01*
X92083035Y105338571D01*
X92130654Y105433809D01*
X92178273Y105481428D01*
X92273511Y105529047D01*
X85288392Y119275916D02*
X85336011Y119323535D01*
X85383630Y119466392D01*
X85383630Y119561630D01*
X85336011Y119704488D01*
X85240773Y119799726D01*
X85145535Y119847345D01*
X84955059Y119894964D01*
X84812202Y119894964D01*
X84621726Y119847345D01*
X84526488Y119799726D01*
X84431250Y119704488D01*
X84383630Y119561630D01*
X84383630Y119466392D01*
X84431250Y119323535D01*
X84478869Y119275916D01*
X84383630Y118942583D02*
X84383630Y118275916D01*
X85383630Y118704488D01*
X66714666Y101242857D02*
X66762285Y101195238D01*
X66905142Y101147619D01*
X67000380Y101147619D01*
X67143238Y101195238D01*
X67238476Y101290476D01*
X67286095Y101385714D01*
X67333714Y101576190D01*
X67333714Y101719047D01*
X67286095Y101909523D01*
X67238476Y102004761D01*
X67143238Y102100000D01*
X67000380Y102147619D01*
X66905142Y102147619D01*
X66762285Y102100000D01*
X66714666Y102052380D01*
X65857523Y102147619D02*
X66048000Y102147619D01*
X66143238Y102100000D01*
X66190857Y102052380D01*
X66286095Y101909523D01*
X66333714Y101719047D01*
X66333714Y101338095D01*
X66286095Y101242857D01*
X66238476Y101195238D01*
X66143238Y101147619D01*
X65952761Y101147619D01*
X65857523Y101195238D01*
X65809904Y101242857D01*
X65762285Y101338095D01*
X65762285Y101576190D01*
X65809904Y101671428D01*
X65857523Y101719047D01*
X65952761Y101766666D01*
X66143238Y101766666D01*
X66238476Y101719047D01*
X66286095Y101671428D01*
X66333714Y101576190D01*
X75766666Y89780357D02*
X75814285Y89732738D01*
X75957142Y89685119D01*
X76052380Y89685119D01*
X76195238Y89732738D01*
X76290476Y89827976D01*
X76338095Y89923214D01*
X76385714Y90113690D01*
X76385714Y90256547D01*
X76338095Y90447023D01*
X76290476Y90542261D01*
X76195238Y90637500D01*
X76052380Y90685119D01*
X75957142Y90685119D01*
X75814285Y90637500D01*
X75766666Y90589880D01*
X74861904Y90685119D02*
X75338095Y90685119D01*
X75385714Y90208928D01*
X75338095Y90256547D01*
X75242857Y90304166D01*
X75004761Y90304166D01*
X74909523Y90256547D01*
X74861904Y90208928D01*
X74814285Y90113690D01*
X74814285Y89875595D01*
X74861904Y89780357D01*
X74909523Y89732738D01*
X75004761Y89685119D01*
X75242857Y89685119D01*
X75338095Y89732738D01*
X75385714Y89780357D01*
X72591666Y94099107D02*
X72639285Y94051488D01*
X72782142Y94003869D01*
X72877380Y94003869D01*
X73020238Y94051488D01*
X73115476Y94146726D01*
X73163095Y94241964D01*
X73210714Y94432440D01*
X73210714Y94575297D01*
X73163095Y94765773D01*
X73115476Y94861011D01*
X73020238Y94956250D01*
X72877380Y95003869D01*
X72782142Y95003869D01*
X72639285Y94956250D01*
X72591666Y94908630D01*
X71734523Y94670535D02*
X71734523Y94003869D01*
X71972619Y95051488D02*
X72210714Y94337202D01*
X71591666Y94337202D01*
X93035416Y102036607D02*
X93083035Y101988988D01*
X93225892Y101941369D01*
X93321130Y101941369D01*
X93463988Y101988988D01*
X93559226Y102084226D01*
X93606845Y102179464D01*
X93654464Y102369940D01*
X93654464Y102512797D01*
X93606845Y102703273D01*
X93559226Y102798511D01*
X93463988Y102893750D01*
X93321130Y102941369D01*
X93225892Y102941369D01*
X93083035Y102893750D01*
X93035416Y102846130D01*
X92702083Y102941369D02*
X92083035Y102941369D01*
X92416369Y102560416D01*
X92273511Y102560416D01*
X92178273Y102512797D01*
X92130654Y102465178D01*
X92083035Y102369940D01*
X92083035Y102131845D01*
X92130654Y102036607D01*
X92178273Y101988988D01*
X92273511Y101941369D01*
X92559226Y101941369D01*
X92654464Y101988988D01*
X92702083Y102036607D01*
X83669142Y92114666D02*
X83716761Y92162285D01*
X83764380Y92305142D01*
X83764380Y92400380D01*
X83716761Y92543238D01*
X83621523Y92638476D01*
X83526285Y92686095D01*
X83335809Y92733714D01*
X83192952Y92733714D01*
X83002476Y92686095D01*
X82907238Y92638476D01*
X82812000Y92543238D01*
X82764380Y92400380D01*
X82764380Y92305142D01*
X82812000Y92162285D01*
X82859619Y92114666D01*
X82859619Y91733714D02*
X82812000Y91686095D01*
X82764380Y91590857D01*
X82764380Y91352761D01*
X82812000Y91257523D01*
X82859619Y91209904D01*
X82954857Y91162285D01*
X83050095Y91162285D01*
X83192952Y91209904D01*
X83764380Y91781333D01*
X83764380Y91162285D01*
X75033142Y118276666D02*
X75080761Y118324285D01*
X75128380Y118467142D01*
X75128380Y118562380D01*
X75080761Y118705238D01*
X74985523Y118800476D01*
X74890285Y118848095D01*
X74699809Y118895714D01*
X74556952Y118895714D01*
X74366476Y118848095D01*
X74271238Y118800476D01*
X74176000Y118705238D01*
X74128380Y118562380D01*
X74128380Y118467142D01*
X74176000Y118324285D01*
X74223619Y118276666D01*
X75128380Y117324285D02*
X75128380Y117895714D01*
X75128380Y117610000D02*
X74128380Y117610000D01*
X74271238Y117705238D01*
X74366476Y117800476D01*
X74414095Y117895714D01*
%LPC*%
D12*
X62503133Y138367804D03*
X57662612Y137465384D03*
D13*
X58625726Y139849174D03*
D14*
X58513344Y139571019D02*
X58738108Y140127329D01*
D15*
X59910252Y143028487D03*
D16*
X58216459Y147245025D03*
D17*
X57453136Y146871077D02*
X58979782Y147618973D01*
D18*
X64068233Y146579447D03*
D19*
X63980873Y146399535D02*
X64155593Y146759359D01*
D20*
X64801147Y141052437D03*
D21*
X64604120Y141132041D02*
X64998174Y140972833D01*
D20*
X55019357Y145004537D03*
D21*
X54822330Y145084141D02*
X55216384Y144924933D01*
D12*
X65969676Y144678752D03*
X62120431Y148498872D03*
D22*
X16607985Y110522486D03*
D23*
X16607985Y110522486D02*
X16607985Y110522486D01*
D22*
X18136595Y112551021D03*
D23*
X18136595Y112551021D02*
X18136595Y112551021D01*
D22*
X19665205Y114579555D03*
D23*
X19665205Y114579555D02*
X19665205Y114579555D01*
D22*
X21193815Y116608089D03*
D24*
G36*
X19932009Y116430754D02*
G01*
X21016480Y117869895D01*
X22455621Y116785424D01*
X21371150Y115346283D01*
X19932009Y116430754D01*
X19932009Y116430754D01*
G37*
D22*
X146408015Y110522486D03*
D23*
X146408015Y110522486D02*
X146408015Y110522486D01*
D22*
X144879405Y112551021D03*
D23*
X144879405Y112551021D02*
X144879405Y112551021D01*
D22*
X143350795Y114579555D03*
D23*
X143350795Y114579555D02*
X143350795Y114579555D01*
D22*
X141822185Y116608089D03*
D24*
G36*
X141644850Y115346283D02*
G01*
X140560379Y116785424D01*
X141999520Y117869895D01*
X143083991Y116430754D01*
X141644850Y115346283D01*
X141644850Y115346283D01*
G37*
D22*
X45055985Y89440486D03*
D23*
X45055985Y89440486D02*
X45055985Y89440486D01*
D22*
X46584595Y91469021D03*
D23*
X46584595Y91469021D02*
X46584595Y91469021D01*
D22*
X48113205Y93497555D03*
D23*
X48113205Y93497555D02*
X48113205Y93497555D01*
D22*
X49641815Y95526089D03*
D24*
G36*
X48380009Y95348754D02*
G01*
X49464480Y96787895D01*
X50903621Y95703424D01*
X49819150Y94264283D01*
X48380009Y95348754D01*
X48380009Y95348754D01*
G37*
D22*
X44950475Y-29350553D03*
D23*
X44950475Y-29350553D02*
X44950475Y-29350553D01*
D22*
X46514255Y-27349006D03*
D23*
X46514255Y-27349006D02*
X46514255Y-27349006D01*
D22*
X48078035Y-25347458D03*
D23*
X48078035Y-25347458D02*
X48078035Y-25347458D01*
D22*
X49641815Y-23345911D03*
D24*
G36*
X50906524Y-23190624D02*
G01*
X49797102Y-24610620D01*
X48377106Y-23501198D01*
X49486528Y-22081202D01*
X50906524Y-23190624D01*
X50906524Y-23190624D01*
G37*
D22*
X117960015Y89186486D03*
D23*
X117960015Y89186486D02*
X117960015Y89186486D01*
D22*
X116431405Y91215021D03*
D23*
X116431405Y91215021D02*
X116431405Y91215021D01*
D22*
X114902795Y93243555D03*
D23*
X114902795Y93243555D02*
X114902795Y93243555D01*
D22*
X113374185Y95272089D03*
D24*
G36*
X113196850Y94010283D02*
G01*
X112112379Y95449424D01*
X113551520Y96533895D01*
X114635991Y95094754D01*
X113196850Y94010283D01*
X113196850Y94010283D01*
G37*
D22*
X118065525Y-29604553D03*
D23*
X118065525Y-29604553D02*
X118065525Y-29604553D01*
D22*
X116501745Y-27603006D03*
D23*
X116501745Y-27603006D02*
X116501745Y-27603006D01*
D22*
X114937965Y-25601458D03*
D23*
X114937965Y-25601458D02*
X114937965Y-25601458D01*
D22*
X113374185Y-23599911D03*
D24*
G36*
X113529472Y-22335202D02*
G01*
X114638894Y-23755198D01*
X113218898Y-24864620D01*
X112109476Y-23444624D01*
X113529472Y-22335202D01*
X113529472Y-22335202D01*
G37*
D25*
X81534000Y141812000D03*
X81534000Y139272000D03*
X81534000Y136732000D03*
D26*
X81534000Y134192000D03*
D25*
X81534000Y22940000D03*
X81534000Y20400000D03*
X81534000Y17860000D03*
D26*
X81534000Y15320000D03*
D22*
X25410397Y216167830D03*
D23*
X25410397Y216167830D02*
X25410397Y216167830D01*
D22*
X27438932Y214639220D03*
D23*
X27438932Y214639220D02*
X27438932Y214639220D01*
D22*
X29467466Y213110610D03*
D23*
X29467466Y213110610D02*
X29467466Y213110610D01*
D22*
X31496000Y211582000D03*
D24*
G36*
X31318665Y212843806D02*
G01*
X32757806Y211759335D01*
X31673335Y210320194D01*
X30234194Y211404665D01*
X31318665Y212843806D01*
X31318665Y212843806D01*
G37*
D22*
X25918397Y99581830D03*
D23*
X25918397Y99581830D02*
X25918397Y99581830D01*
D22*
X27946932Y98053220D03*
D23*
X27946932Y98053220D02*
X27946932Y98053220D01*
D22*
X29975466Y96524610D03*
D23*
X29975466Y96524610D02*
X29975466Y96524610D01*
D22*
X32004000Y94996000D03*
D24*
G36*
X32181335Y93734194D02*
G01*
X30742194Y94818665D01*
X31826665Y96257806D01*
X33265806Y95173335D01*
X32181335Y93734194D01*
X32181335Y93734194D01*
G37*
D22*
X136619514Y216258015D03*
D23*
X136619514Y216258015D02*
X136619514Y216258015D01*
D22*
X134590979Y214729405D03*
D23*
X134590979Y214729405D02*
X134590979Y214729405D01*
D22*
X132562445Y213200795D03*
D23*
X132562445Y213200795D02*
X132562445Y213200795D01*
D22*
X130533911Y211672185D03*
D24*
G36*
X131795717Y211494850D02*
G01*
X130356576Y210410379D01*
X129272105Y211849520D01*
X130711246Y212933991D01*
X131795717Y211494850D01*
X131795717Y211494850D01*
G37*
D22*
X137127514Y99672015D03*
D23*
X137127514Y99672015D02*
X137127514Y99672015D01*
D22*
X135098979Y98143405D03*
D23*
X135098979Y98143405D02*
X135098979Y98143405D01*
D22*
X133070445Y96614795D03*
D23*
X133070445Y96614795D02*
X133070445Y96614795D01*
D22*
X131041911Y95086185D03*
D24*
G36*
X129780105Y95263520D02*
G01*
X131219246Y96347991D01*
X132303717Y94908850D01*
X130864576Y93824379D01*
X129780105Y95263520D01*
X129780105Y95263520D01*
G37*
D12*
X115326018Y123860545D03*
X112470913Y119848891D03*
D13*
X111507799Y122232681D03*
D14*
X111620181Y121954526D02*
X111395417Y122510836D01*
D15*
X110223273Y125411994D03*
D16*
X106075807Y127268510D03*
D17*
X105786484Y126469265D02*
X106365130Y128067755D01*
D18*
X110747570Y130854717D03*
D19*
X110809705Y130664614D02*
X110685435Y131044820D01*
D20*
X115114168Y127388044D03*
D21*
X114917141Y127308440D02*
X115311195Y127467648D01*
D20*
X105332378Y123435944D03*
D21*
X105135351Y123356340D02*
X105529405Y123515548D01*
D12*
X113435688Y130808325D03*
X108013094Y130882379D03*
X27581323Y-14390926D03*
X22672176Y-14009778D03*
D13*
X24219442Y-11956486D03*
D14*
X24038897Y-12196077D02*
X24399987Y-11716895D01*
D15*
X26283066Y-9217965D03*
D16*
X25738308Y-4706716D03*
D17*
X24904209Y-4870360D02*
X26572407Y-4543072D01*
D18*
X31218424Y-6864166D03*
D19*
X31087476Y-7015337D02*
X31349372Y-6712995D01*
D20*
X30495868Y-12392539D03*
D21*
X30326158Y-12264653D02*
X30665578Y-12520425D01*
D20*
X22070264Y-6043391D03*
D21*
X21900554Y-5915505D02*
X22239974Y-6171277D01*
D12*
X32563140Y-9192226D03*
X29833775Y-4506015D03*
X42755397Y-25825411D03*
X37846250Y-25444263D03*
D13*
X39393516Y-23390971D03*
D14*
X39212971Y-23630562D02*
X39574061Y-23151380D01*
D15*
X41457140Y-20652450D03*
D16*
X40912382Y-16141201D03*
D17*
X40078283Y-16304845D02*
X41746481Y-15977557D01*
D18*
X46392498Y-18298651D03*
D19*
X46261550Y-18449822D02*
X46523446Y-18147480D01*
D20*
X45669942Y-23827024D03*
D21*
X45500232Y-23699138D02*
X45839652Y-23954910D01*
D20*
X37244338Y-17477876D03*
D21*
X37074628Y-17349990D02*
X37414048Y-17605762D01*
D12*
X47737214Y-20626711D03*
X45007849Y-15940500D03*
X126889278Y-20830347D03*
X125169750Y-25444263D03*
D13*
X123622484Y-23390971D03*
D14*
X123803029Y-23630562D02*
X123441939Y-23151380D01*
D15*
X121558860Y-20652450D03*
D16*
X117072214Y-19932636D03*
D17*
X116999610Y-20779530D02*
X117144818Y-19085742D01*
D18*
X120656612Y-15259485D03*
D19*
X120765832Y-15427029D02*
X120547392Y-15091941D01*
D20*
X125771662Y-17477876D03*
D21*
X125601952Y-17605762D02*
X125941372Y-17349990D01*
D20*
X117346058Y-23827024D03*
D21*
X117176348Y-23954910D02*
X117515768Y-23699138D01*
D12*
X123265141Y-14608561D03*
X118008151Y-15940500D03*
X142063352Y-9395862D03*
X140343824Y-14009778D03*
D13*
X138796558Y-11956486D03*
D14*
X138977103Y-12196077D02*
X138616013Y-11716895D01*
D15*
X136732934Y-9217965D03*
D16*
X132246288Y-8498151D03*
D17*
X132173684Y-9345045D02*
X132318892Y-7651257D01*
D18*
X135830686Y-3825000D03*
D19*
X135939906Y-3992544D02*
X135721466Y-3657456D01*
D20*
X140945736Y-6043391D03*
D21*
X140776026Y-6171277D02*
X141115446Y-5915505D01*
D20*
X132520132Y-12392539D03*
D21*
X132350422Y-12520425D02*
X132689842Y-12264653D01*
D12*
X138439215Y-3174076D03*
X133182225Y-4506015D03*
D22*
X141822185Y-2263911D03*
D24*
G36*
X141977472Y-999202D02*
G01*
X143086894Y-2419198D01*
X141666898Y-3528620D01*
X140557476Y-2108624D01*
X141977472Y-999202D01*
X141977472Y-999202D01*
G37*
D22*
X143385965Y-4265458D03*
D23*
X143385965Y-4265458D02*
X143385965Y-4265458D01*
D22*
X144949745Y-6267006D03*
D23*
X144949745Y-6267006D02*
X144949745Y-6267006D01*
D22*
X146513525Y-8268553D03*
D23*
X146513525Y-8268553D02*
X146513525Y-8268553D01*
D22*
X120415324Y172261397D03*
D24*
G36*
X120913196Y173434310D02*
G01*
X121588237Y171763525D01*
X119917452Y171088484D01*
X119242411Y172759269D01*
X120913196Y173434310D01*
X120913196Y173434310D01*
G37*
D22*
X121366825Y169906350D03*
D23*
X121366825Y169906350D02*
X121366825Y169906350D01*
D22*
X122318325Y167551303D03*
D23*
X122318325Y167551303D02*
X122318325Y167551303D01*
D22*
X123269826Y165196256D03*
D23*
X123269826Y165196256D02*
X123269826Y165196256D01*
D22*
X124221327Y162841209D03*
D23*
X124221327Y162841209D02*
X124221327Y162841209D01*
D22*
X125172828Y160486162D03*
D23*
X125172828Y160486162D02*
X125172828Y160486162D01*
D22*
X126124328Y158131115D03*
D23*
X126124328Y158131115D02*
X126124328Y158131115D01*
D22*
X127075829Y155776068D03*
D23*
X127075829Y155776068D02*
X127075829Y155776068D01*
D22*
X128027330Y153421021D03*
D23*
X128027330Y153421021D02*
X128027330Y153421021D01*
D22*
X128978831Y151065974D03*
D23*
X128978831Y151065974D02*
X128978831Y151065974D01*
D22*
X129930331Y148710927D03*
D23*
X129930331Y148710927D02*
X129930331Y148710927D01*
D22*
X130881832Y146355880D03*
D23*
X130881832Y146355880D02*
X130881832Y146355880D01*
D22*
X131833333Y144000833D03*
D23*
X131833333Y144000833D02*
X131833333Y144000833D01*
D22*
X132784834Y141645786D03*
D23*
X132784834Y141645786D02*
X132784834Y141645786D01*
D22*
X133736334Y139290739D03*
D23*
X133736334Y139290739D02*
X133736334Y139290739D01*
D22*
X134687835Y136935692D03*
D23*
X134687835Y136935692D02*
X134687835Y136935692D01*
D22*
X135639336Y134580645D03*
D23*
X135639336Y134580645D02*
X135639336Y134580645D01*
D22*
X136590837Y132225598D03*
D23*
X136590837Y132225598D02*
X136590837Y132225598D01*
D22*
X42600676Y172261397D03*
D24*
G36*
X43773589Y172759269D02*
G01*
X43098548Y171088484D01*
X41427763Y171763525D01*
X42102804Y173434310D01*
X43773589Y172759269D01*
X43773589Y172759269D01*
G37*
D22*
X41649175Y169906350D03*
D23*
X41649175Y169906350D02*
X41649175Y169906350D01*
D22*
X40697675Y167551303D03*
D23*
X40697675Y167551303D02*
X40697675Y167551303D01*
D22*
X39746174Y165196256D03*
D23*
X39746174Y165196256D02*
X39746174Y165196256D01*
D22*
X38794673Y162841209D03*
D23*
X38794673Y162841209D02*
X38794673Y162841209D01*
D22*
X37843172Y160486162D03*
D23*
X37843172Y160486162D02*
X37843172Y160486162D01*
D22*
X36891672Y158131115D03*
D23*
X36891672Y158131115D02*
X36891672Y158131115D01*
D22*
X35940171Y155776068D03*
D23*
X35940171Y155776068D02*
X35940171Y155776068D01*
D22*
X34988670Y153421021D03*
D23*
X34988670Y153421021D02*
X34988670Y153421021D01*
D22*
X34037169Y151065974D03*
D23*
X34037169Y151065974D02*
X34037169Y151065974D01*
D22*
X33085669Y148710927D03*
D23*
X33085669Y148710927D02*
X33085669Y148710927D01*
D22*
X32134168Y146355880D03*
D23*
X32134168Y146355880D02*
X32134168Y146355880D01*
D22*
X31182667Y144000833D03*
D23*
X31182667Y144000833D02*
X31182667Y144000833D01*
D22*
X30231166Y141645786D03*
D23*
X30231166Y141645786D02*
X30231166Y141645786D01*
D22*
X29279666Y139290739D03*
D23*
X29279666Y139290739D02*
X29279666Y139290739D01*
D22*
X28328165Y136935692D03*
D23*
X28328165Y136935692D02*
X28328165Y136935692D01*
D22*
X27376664Y134580645D03*
D23*
X27376664Y134580645D02*
X27376664Y134580645D01*
D22*
X26425163Y132225598D03*
D23*
X26425163Y132225598D02*
X26425163Y132225598D01*
D22*
X21193815Y-2263911D03*
D24*
G36*
X22458524Y-2108624D02*
G01*
X21349102Y-3528620D01*
X19929106Y-2419198D01*
X21038528Y-999202D01*
X22458524Y-2108624D01*
X22458524Y-2108624D01*
G37*
D22*
X19630035Y-4265458D03*
D23*
X19630035Y-4265458D02*
X19630035Y-4265458D01*
D22*
X18066255Y-6267006D03*
D23*
X18066255Y-6267006D02*
X18066255Y-6267006D01*
D22*
X16502475Y-8268553D03*
D23*
X16502475Y-8268553D02*
X16502475Y-8268553D01*
D12*
X50880346Y160320271D03*
X46039825Y159417851D03*
D13*
X47002939Y161801641D03*
D14*
X46890557Y161523486D02*
X47115321Y162079796D01*
D15*
X48287465Y164980954D03*
D16*
X46593672Y169197492D03*
D17*
X45830349Y168823544D02*
X47356995Y169571440D01*
D18*
X52445446Y168531914D03*
D19*
X52358086Y168352002D02*
X52532806Y168711826D01*
D20*
X53178360Y163004904D03*
D21*
X52981333Y163084508D02*
X53375387Y162925300D01*
D20*
X43396570Y166957004D03*
D21*
X43199543Y167036608D02*
X43593597Y166877400D01*
D12*
X54346889Y166631219D03*
X50497644Y170451339D03*
X69620659Y155984298D03*
X64780138Y155081878D03*
D13*
X65743252Y157465668D03*
D14*
X65630870Y157187513D02*
X65855634Y157743823D01*
D15*
X67027778Y160644981D03*
D16*
X65333985Y164861519D03*
D17*
X64570662Y164487571D02*
X66097308Y165235467D01*
D18*
X71185759Y164195941D03*
D19*
X71098399Y164016029D02*
X71273119Y164375853D01*
D20*
X71918673Y158668931D03*
D21*
X71721646Y158748535D02*
X72115700Y158589327D01*
D20*
X62136883Y162621031D03*
D21*
X61939856Y162700635D02*
X62333910Y162541427D01*
D12*
X73087202Y162295246D03*
X69237957Y166115366D03*
X36645295Y125087285D03*
X31804774Y124184865D03*
D13*
X32767888Y126568655D03*
D14*
X32655506Y126290500D02*
X32880270Y126846810D01*
D15*
X34052414Y129747968D03*
D16*
X32358621Y133964506D03*
D17*
X31595298Y133590558D02*
X33121944Y134338454D01*
D18*
X38210395Y133298928D03*
D19*
X38123035Y133119016D02*
X38297755Y133478840D01*
D20*
X38943309Y127771918D03*
D21*
X38746282Y127851522D02*
X39140336Y127692314D01*
D20*
X29161519Y131724018D03*
D21*
X28964492Y131803622D02*
X29358546Y131644414D01*
D12*
X40111838Y131398233D03*
X36262593Y135218353D03*
X55385608Y120751311D03*
X50545087Y119848891D03*
D13*
X51508201Y122232681D03*
D14*
X51395819Y121954526D02*
X51620583Y122510836D01*
D15*
X52792727Y125411994D03*
D16*
X51098934Y129628532D03*
D17*
X50335611Y129254584D02*
X51862257Y130002480D01*
D18*
X56950708Y128962954D03*
D19*
X56863348Y128783042D02*
X57038068Y129142866D01*
D20*
X57683622Y123435944D03*
D21*
X57486595Y123515548D02*
X57880649Y123356340D01*
D20*
X47901832Y127388044D03*
D21*
X47704805Y127467648D02*
X48098859Y127308440D01*
D12*
X58852151Y127062259D03*
X55002906Y130882379D03*
X43762820Y142703778D03*
X38922299Y141801358D03*
D13*
X39885413Y144185148D03*
D14*
X39773031Y143906993D02*
X39997795Y144463303D01*
D15*
X41169939Y147364461D03*
D16*
X39476146Y151580999D03*
D17*
X38712823Y151207051D02*
X40239469Y151954947D01*
D18*
X45327920Y150915421D03*
D19*
X45240560Y150735509D02*
X45415280Y151095333D01*
D20*
X46060834Y145388411D03*
D21*
X45863807Y145468015D02*
X46257861Y145308807D01*
D20*
X36279044Y149340511D03*
D21*
X36082017Y149420115D02*
X36476071Y149260907D01*
D12*
X47229363Y149014726D03*
X43380118Y152834846D03*
X108208493Y141477038D03*
X105353388Y137465384D03*
D13*
X104390274Y139849174D03*
D14*
X104502656Y139571019D02*
X104277892Y140127329D01*
D15*
X103105748Y143028487D03*
D16*
X98958282Y144885003D03*
D17*
X98668959Y144085758D02*
X99247605Y145684248D01*
D18*
X103630045Y148471210D03*
D19*
X103692180Y148281107D02*
X103567910Y148661313D01*
D20*
X107996643Y145004537D03*
D21*
X107799616Y144924933D02*
X108193670Y145084141D01*
D20*
X98214853Y141052437D03*
D21*
X98017826Y140972833D02*
X98411880Y141132041D01*
D12*
X106318163Y148424818D03*
X100895569Y148498872D03*
X119831280Y163429505D03*
X116976175Y159417851D03*
D13*
X116013061Y161801641D03*
D14*
X116125443Y161523486D02*
X115900679Y162079796D01*
D15*
X114728535Y164980954D03*
D16*
X110581069Y166837470D03*
D17*
X110291746Y166038225D02*
X110870392Y167636715D01*
D18*
X115252832Y170423677D03*
D19*
X115314967Y170233574D02*
X115190697Y170613780D01*
D20*
X119619430Y166957004D03*
D21*
X119422403Y166877400D02*
X119816457Y167036608D01*
D20*
X109837640Y163004904D03*
D21*
X109640613Y162925300D02*
X110034667Y163084508D01*
D12*
X117940950Y170377285D03*
X112518356Y170451339D03*
X126918088Y145889041D03*
X124062983Y141877387D03*
D13*
X123099869Y144261177D03*
D14*
X123212251Y143983022D02*
X122987487Y144539332D01*
D15*
X121815343Y147440490D03*
D16*
X117667877Y149297006D03*
D17*
X117378554Y148497761D02*
X117957200Y150096251D01*
D18*
X122339640Y152883213D03*
D19*
X122401775Y152693110D02*
X122277505Y153073316D01*
D20*
X126706238Y149416540D03*
D21*
X126509211Y149336936D02*
X126903265Y149496144D01*
D20*
X116924448Y145464440D03*
D21*
X116727421Y145384836D02*
X117121475Y145544044D01*
D12*
X125027758Y152836821D03*
X119605164Y152910875D03*
X134066331Y128196519D03*
X131211226Y124184865D03*
D13*
X130248112Y126568655D03*
D14*
X130360494Y126290500D02*
X130135730Y126846810D01*
D15*
X128963586Y129747968D03*
D16*
X124816120Y131604484D03*
D17*
X124526797Y130805239D02*
X125105443Y132403729D01*
D18*
X129487883Y135190691D03*
D19*
X129550018Y135000588D02*
X129425748Y135380794D01*
D20*
X133854481Y131724018D03*
D21*
X133657454Y131644414D02*
X134051508Y131803622D01*
D20*
X124072691Y127771918D03*
D21*
X123875664Y127692314D02*
X124269718Y127851522D01*
D12*
X132176001Y135144299D03*
X126753407Y135218353D03*
X101090967Y159093532D03*
X98235862Y155081878D03*
D13*
X97272748Y157465668D03*
D14*
X97385130Y157187513D02*
X97160366Y157743823D01*
D15*
X95988222Y160644981D03*
D16*
X91840756Y162501497D03*
D17*
X91551433Y161702252D02*
X92130079Y163300742D01*
D18*
X96512519Y166087704D03*
D19*
X96574654Y165897601D02*
X96450384Y166277807D01*
D20*
X100879117Y162621031D03*
D21*
X100682090Y162541427D02*
X101076144Y162700635D01*
D20*
X91097327Y158668931D03*
D21*
X90900300Y158589327D02*
X91294354Y158748535D01*
D12*
X99200637Y166041312D03*
X93778043Y166115366D03*
D27*
X77922000Y164012000D03*
X85222000Y164012000D03*
X85222000Y159512000D03*
X77922000Y159512000D03*
D28*
X79972000Y159512000D03*
X80772000Y159512000D03*
X81572000Y159512000D03*
X82372000Y159512000D03*
X83172000Y159512000D03*
D29*
X98468750Y87231250D03*
X92268750Y90931250D03*
X98468750Y90931250D03*
X92268750Y87231250D03*
D30*
X77216000Y93204000D03*
X80116000Y93204000D03*
X80116000Y95504000D03*
X77216000Y95504000D03*
D31*
X83502000Y111618000D03*
X82702000Y111618000D03*
X81902000Y111618000D03*
X81102000Y111618000D03*
X80302000Y111618000D03*
X79502000Y111618000D03*
X78702000Y111618000D03*
X77902000Y111618000D03*
X77102000Y111618000D03*
X76302000Y111618000D03*
X75502000Y111618000D03*
D32*
X73802000Y109918000D03*
X73802000Y109118000D03*
X73802000Y108318000D03*
X73802000Y107518000D03*
X73802000Y106718000D03*
X73802000Y105918000D03*
X73802000Y105118000D03*
X73802000Y104318000D03*
X73802000Y103518000D03*
X73802000Y102718000D03*
X73802000Y101918000D03*
D31*
X75502000Y100218000D03*
X76302000Y100218000D03*
X77102000Y100218000D03*
X77902000Y100218000D03*
X78702000Y100218000D03*
X79502000Y100218000D03*
X80302000Y100218000D03*
X81102000Y100218000D03*
X81902000Y100218000D03*
X82702000Y100218000D03*
X83502000Y100218000D03*
D32*
X85202000Y101918000D03*
X85202000Y102718000D03*
X85202000Y103518000D03*
X85202000Y104318000D03*
X85202000Y105118000D03*
X85202000Y105918000D03*
X85202000Y106718000D03*
X85202000Y107518000D03*
X85202000Y108318000D03*
X85202000Y109118000D03*
X85202000Y109918000D03*
D24*
G36*
X70626891Y110730953D02*
G01*
X70653028Y110727076D01*
X70678659Y110720656D01*
X70703538Y110711755D01*
X70727424Y110700457D01*
X70750087Y110686873D01*
X70771310Y110671133D01*
X70790889Y110653389D01*
X70808633Y110633810D01*
X70824373Y110612587D01*
X70837957Y110589924D01*
X70849255Y110566038D01*
X70858156Y110541159D01*
X70864576Y110515528D01*
X70868453Y110489391D01*
X70869750Y110463000D01*
X70869750Y109499500D01*
X70868453Y109473109D01*
X70864576Y109446972D01*
X70858156Y109421341D01*
X70849255Y109396462D01*
X70837957Y109372576D01*
X70824373Y109349913D01*
X70808633Y109328690D01*
X70790889Y109309111D01*
X70771310Y109291367D01*
X70750087Y109275627D01*
X70727424Y109262043D01*
X70703538Y109250745D01*
X70678659Y109241844D01*
X70653028Y109235424D01*
X70626891Y109231547D01*
X70600500Y109230250D01*
X70062000Y109230250D01*
X70035609Y109231547D01*
X70009472Y109235424D01*
X69983841Y109241844D01*
X69958962Y109250745D01*
X69935076Y109262043D01*
X69912413Y109275627D01*
X69891190Y109291367D01*
X69871611Y109309111D01*
X69853867Y109328690D01*
X69838127Y109349913D01*
X69824543Y109372576D01*
X69813245Y109396462D01*
X69804344Y109421341D01*
X69797924Y109446972D01*
X69794047Y109473109D01*
X69792750Y109499500D01*
X69792750Y110463000D01*
X69794047Y110489391D01*
X69797924Y110515528D01*
X69804344Y110541159D01*
X69813245Y110566038D01*
X69824543Y110589924D01*
X69838127Y110612587D01*
X69853867Y110633810D01*
X69871611Y110653389D01*
X69891190Y110671133D01*
X69912413Y110686873D01*
X69935076Y110700457D01*
X69958962Y110711755D01*
X69983841Y110720656D01*
X70009472Y110727076D01*
X70035609Y110730953D01*
X70062000Y110732250D01*
X70600500Y110732250D01*
X70626891Y110730953D01*
X70626891Y110730953D01*
G37*
D33*
X70331250Y109981250D03*
D24*
G36*
X68751891Y110730953D02*
G01*
X68778028Y110727076D01*
X68803659Y110720656D01*
X68828538Y110711755D01*
X68852424Y110700457D01*
X68875087Y110686873D01*
X68896310Y110671133D01*
X68915889Y110653389D01*
X68933633Y110633810D01*
X68949373Y110612587D01*
X68962957Y110589924D01*
X68974255Y110566038D01*
X68983156Y110541159D01*
X68989576Y110515528D01*
X68993453Y110489391D01*
X68994750Y110463000D01*
X68994750Y109499500D01*
X68993453Y109473109D01*
X68989576Y109446972D01*
X68983156Y109421341D01*
X68974255Y109396462D01*
X68962957Y109372576D01*
X68949373Y109349913D01*
X68933633Y109328690D01*
X68915889Y109309111D01*
X68896310Y109291367D01*
X68875087Y109275627D01*
X68852424Y109262043D01*
X68828538Y109250745D01*
X68803659Y109241844D01*
X68778028Y109235424D01*
X68751891Y109231547D01*
X68725500Y109230250D01*
X68187000Y109230250D01*
X68160609Y109231547D01*
X68134472Y109235424D01*
X68108841Y109241844D01*
X68083962Y109250745D01*
X68060076Y109262043D01*
X68037413Y109275627D01*
X68016190Y109291367D01*
X67996611Y109309111D01*
X67978867Y109328690D01*
X67963127Y109349913D01*
X67949543Y109372576D01*
X67938245Y109396462D01*
X67929344Y109421341D01*
X67922924Y109446972D01*
X67919047Y109473109D01*
X67917750Y109499500D01*
X67917750Y110463000D01*
X67919047Y110489391D01*
X67922924Y110515528D01*
X67929344Y110541159D01*
X67938245Y110566038D01*
X67949543Y110589924D01*
X67963127Y110612587D01*
X67978867Y110633810D01*
X67996611Y110653389D01*
X68016190Y110671133D01*
X68037413Y110686873D01*
X68060076Y110700457D01*
X68083962Y110711755D01*
X68108841Y110720656D01*
X68134472Y110727076D01*
X68160609Y110730953D01*
X68187000Y110732250D01*
X68725500Y110732250D01*
X68751891Y110730953D01*
X68751891Y110730953D01*
G37*
D33*
X68456250Y109981250D03*
D24*
G36*
X87220641Y94355953D02*
G01*
X87246778Y94352076D01*
X87272409Y94345656D01*
X87297288Y94336755D01*
X87321174Y94325457D01*
X87343837Y94311873D01*
X87365060Y94296133D01*
X87384639Y94278389D01*
X87402383Y94258810D01*
X87418123Y94237587D01*
X87431707Y94214924D01*
X87443005Y94191038D01*
X87451906Y94166159D01*
X87458326Y94140528D01*
X87462203Y94114391D01*
X87463500Y94088000D01*
X87463500Y93549500D01*
X87462203Y93523109D01*
X87458326Y93496972D01*
X87451906Y93471341D01*
X87443005Y93446462D01*
X87431707Y93422576D01*
X87418123Y93399913D01*
X87402383Y93378690D01*
X87384639Y93359111D01*
X87365060Y93341367D01*
X87343837Y93325627D01*
X87321174Y93312043D01*
X87297288Y93300745D01*
X87272409Y93291844D01*
X87246778Y93285424D01*
X87220641Y93281547D01*
X87194250Y93280250D01*
X86230750Y93280250D01*
X86204359Y93281547D01*
X86178222Y93285424D01*
X86152591Y93291844D01*
X86127712Y93300745D01*
X86103826Y93312043D01*
X86081163Y93325627D01*
X86059940Y93341367D01*
X86040361Y93359111D01*
X86022617Y93378690D01*
X86006877Y93399913D01*
X85993293Y93422576D01*
X85981995Y93446462D01*
X85973094Y93471341D01*
X85966674Y93496972D01*
X85962797Y93523109D01*
X85961500Y93549500D01*
X85961500Y94088000D01*
X85962797Y94114391D01*
X85966674Y94140528D01*
X85973094Y94166159D01*
X85981995Y94191038D01*
X85993293Y94214924D01*
X86006877Y94237587D01*
X86022617Y94258810D01*
X86040361Y94278389D01*
X86059940Y94296133D01*
X86081163Y94311873D01*
X86103826Y94325457D01*
X86127712Y94336755D01*
X86152591Y94345656D01*
X86178222Y94352076D01*
X86204359Y94355953D01*
X86230750Y94357250D01*
X87194250Y94357250D01*
X87220641Y94355953D01*
X87220641Y94355953D01*
G37*
D33*
X86712500Y93818750D03*
D24*
G36*
X87220641Y96230953D02*
G01*
X87246778Y96227076D01*
X87272409Y96220656D01*
X87297288Y96211755D01*
X87321174Y96200457D01*
X87343837Y96186873D01*
X87365060Y96171133D01*
X87384639Y96153389D01*
X87402383Y96133810D01*
X87418123Y96112587D01*
X87431707Y96089924D01*
X87443005Y96066038D01*
X87451906Y96041159D01*
X87458326Y96015528D01*
X87462203Y95989391D01*
X87463500Y95963000D01*
X87463500Y95424500D01*
X87462203Y95398109D01*
X87458326Y95371972D01*
X87451906Y95346341D01*
X87443005Y95321462D01*
X87431707Y95297576D01*
X87418123Y95274913D01*
X87402383Y95253690D01*
X87384639Y95234111D01*
X87365060Y95216367D01*
X87343837Y95200627D01*
X87321174Y95187043D01*
X87297288Y95175745D01*
X87272409Y95166844D01*
X87246778Y95160424D01*
X87220641Y95156547D01*
X87194250Y95155250D01*
X86230750Y95155250D01*
X86204359Y95156547D01*
X86178222Y95160424D01*
X86152591Y95166844D01*
X86127712Y95175745D01*
X86103826Y95187043D01*
X86081163Y95200627D01*
X86059940Y95216367D01*
X86040361Y95234111D01*
X86022617Y95253690D01*
X86006877Y95274913D01*
X85993293Y95297576D01*
X85981995Y95321462D01*
X85973094Y95346341D01*
X85966674Y95371972D01*
X85962797Y95398109D01*
X85961500Y95424500D01*
X85961500Y95963000D01*
X85962797Y95989391D01*
X85966674Y96015528D01*
X85973094Y96041159D01*
X85981995Y96066038D01*
X85993293Y96089924D01*
X86006877Y96112587D01*
X86022617Y96133810D01*
X86040361Y96153389D01*
X86059940Y96171133D01*
X86081163Y96186873D01*
X86103826Y96200457D01*
X86127712Y96211755D01*
X86152591Y96220656D01*
X86178222Y96227076D01*
X86204359Y96230953D01*
X86230750Y96232250D01*
X87194250Y96232250D01*
X87220641Y96230953D01*
X87220641Y96230953D01*
G37*
D33*
X86712500Y95693750D03*
D24*
G36*
X82264391Y155737203D02*
G01*
X82290528Y155733326D01*
X82316159Y155726906D01*
X82341038Y155718005D01*
X82364924Y155706707D01*
X82387587Y155693123D01*
X82408810Y155677383D01*
X82428389Y155659639D01*
X82446133Y155640060D01*
X82461873Y155618837D01*
X82475457Y155596174D01*
X82486755Y155572288D01*
X82495656Y155547409D01*
X82502076Y155521778D01*
X82505953Y155495641D01*
X82507250Y155469250D01*
X82507250Y154930750D01*
X82505953Y154904359D01*
X82502076Y154878222D01*
X82495656Y154852591D01*
X82486755Y154827712D01*
X82475457Y154803826D01*
X82461873Y154781163D01*
X82446133Y154759940D01*
X82428389Y154740361D01*
X82408810Y154722617D01*
X82387587Y154706877D01*
X82364924Y154693293D01*
X82341038Y154681995D01*
X82316159Y154673094D01*
X82290528Y154666674D01*
X82264391Y154662797D01*
X82238000Y154661500D01*
X81274500Y154661500D01*
X81248109Y154662797D01*
X81221972Y154666674D01*
X81196341Y154673094D01*
X81171462Y154681995D01*
X81147576Y154693293D01*
X81124913Y154706877D01*
X81103690Y154722617D01*
X81084111Y154740361D01*
X81066367Y154759940D01*
X81050627Y154781163D01*
X81037043Y154803826D01*
X81025745Y154827712D01*
X81016844Y154852591D01*
X81010424Y154878222D01*
X81006547Y154904359D01*
X81005250Y154930750D01*
X81005250Y155469250D01*
X81006547Y155495641D01*
X81010424Y155521778D01*
X81016844Y155547409D01*
X81025745Y155572288D01*
X81037043Y155596174D01*
X81050627Y155618837D01*
X81066367Y155640060D01*
X81084111Y155659639D01*
X81103690Y155677383D01*
X81124913Y155693123D01*
X81147576Y155706707D01*
X81171462Y155718005D01*
X81196341Y155726906D01*
X81221972Y155733326D01*
X81248109Y155737203D01*
X81274500Y155738500D01*
X82238000Y155738500D01*
X82264391Y155737203D01*
X82264391Y155737203D01*
G37*
D33*
X81756250Y155200000D03*
D24*
G36*
X82264391Y153862203D02*
G01*
X82290528Y153858326D01*
X82316159Y153851906D01*
X82341038Y153843005D01*
X82364924Y153831707D01*
X82387587Y153818123D01*
X82408810Y153802383D01*
X82428389Y153784639D01*
X82446133Y153765060D01*
X82461873Y153743837D01*
X82475457Y153721174D01*
X82486755Y153697288D01*
X82495656Y153672409D01*
X82502076Y153646778D01*
X82505953Y153620641D01*
X82507250Y153594250D01*
X82507250Y153055750D01*
X82505953Y153029359D01*
X82502076Y153003222D01*
X82495656Y152977591D01*
X82486755Y152952712D01*
X82475457Y152928826D01*
X82461873Y152906163D01*
X82446133Y152884940D01*
X82428389Y152865361D01*
X82408810Y152847617D01*
X82387587Y152831877D01*
X82364924Y152818293D01*
X82341038Y152806995D01*
X82316159Y152798094D01*
X82290528Y152791674D01*
X82264391Y152787797D01*
X82238000Y152786500D01*
X81274500Y152786500D01*
X81248109Y152787797D01*
X81221972Y152791674D01*
X81196341Y152798094D01*
X81171462Y152806995D01*
X81147576Y152818293D01*
X81124913Y152831877D01*
X81103690Y152847617D01*
X81084111Y152865361D01*
X81066367Y152884940D01*
X81050627Y152906163D01*
X81037043Y152928826D01*
X81025745Y152952712D01*
X81016844Y152977591D01*
X81010424Y153003222D01*
X81006547Y153029359D01*
X81005250Y153055750D01*
X81005250Y153594250D01*
X81006547Y153620641D01*
X81010424Y153646778D01*
X81016844Y153672409D01*
X81025745Y153697288D01*
X81037043Y153721174D01*
X81050627Y153743837D01*
X81066367Y153765060D01*
X81084111Y153784639D01*
X81103690Y153802383D01*
X81124913Y153818123D01*
X81147576Y153831707D01*
X81171462Y153843005D01*
X81196341Y153851906D01*
X81221972Y153858326D01*
X81248109Y153862203D01*
X81274500Y153863500D01*
X82238000Y153863500D01*
X82264391Y153862203D01*
X82264391Y153862203D01*
G37*
D33*
X81756250Y153325000D03*
D24*
G36*
X80010141Y155737203D02*
G01*
X80036278Y155733326D01*
X80061909Y155726906D01*
X80086788Y155718005D01*
X80110674Y155706707D01*
X80133337Y155693123D01*
X80154560Y155677383D01*
X80174139Y155659639D01*
X80191883Y155640060D01*
X80207623Y155618837D01*
X80221207Y155596174D01*
X80232505Y155572288D01*
X80241406Y155547409D01*
X80247826Y155521778D01*
X80251703Y155495641D01*
X80253000Y155469250D01*
X80253000Y154930750D01*
X80251703Y154904359D01*
X80247826Y154878222D01*
X80241406Y154852591D01*
X80232505Y154827712D01*
X80221207Y154803826D01*
X80207623Y154781163D01*
X80191883Y154759940D01*
X80174139Y154740361D01*
X80154560Y154722617D01*
X80133337Y154706877D01*
X80110674Y154693293D01*
X80086788Y154681995D01*
X80061909Y154673094D01*
X80036278Y154666674D01*
X80010141Y154662797D01*
X79983750Y154661500D01*
X79020250Y154661500D01*
X78993859Y154662797D01*
X78967722Y154666674D01*
X78942091Y154673094D01*
X78917212Y154681995D01*
X78893326Y154693293D01*
X78870663Y154706877D01*
X78849440Y154722617D01*
X78829861Y154740361D01*
X78812117Y154759940D01*
X78796377Y154781163D01*
X78782793Y154803826D01*
X78771495Y154827712D01*
X78762594Y154852591D01*
X78756174Y154878222D01*
X78752297Y154904359D01*
X78751000Y154930750D01*
X78751000Y155469250D01*
X78752297Y155495641D01*
X78756174Y155521778D01*
X78762594Y155547409D01*
X78771495Y155572288D01*
X78782793Y155596174D01*
X78796377Y155618837D01*
X78812117Y155640060D01*
X78829861Y155659639D01*
X78849440Y155677383D01*
X78870663Y155693123D01*
X78893326Y155706707D01*
X78917212Y155718005D01*
X78942091Y155726906D01*
X78967722Y155733326D01*
X78993859Y155737203D01*
X79020250Y155738500D01*
X79983750Y155738500D01*
X80010141Y155737203D01*
X80010141Y155737203D01*
G37*
D33*
X79502000Y155200000D03*
D24*
G36*
X80010141Y153862203D02*
G01*
X80036278Y153858326D01*
X80061909Y153851906D01*
X80086788Y153843005D01*
X80110674Y153831707D01*
X80133337Y153818123D01*
X80154560Y153802383D01*
X80174139Y153784639D01*
X80191883Y153765060D01*
X80207623Y153743837D01*
X80221207Y153721174D01*
X80232505Y153697288D01*
X80241406Y153672409D01*
X80247826Y153646778D01*
X80251703Y153620641D01*
X80253000Y153594250D01*
X80253000Y153055750D01*
X80251703Y153029359D01*
X80247826Y153003222D01*
X80241406Y152977591D01*
X80232505Y152952712D01*
X80221207Y152928826D01*
X80207623Y152906163D01*
X80191883Y152884940D01*
X80174139Y152865361D01*
X80154560Y152847617D01*
X80133337Y152831877D01*
X80110674Y152818293D01*
X80086788Y152806995D01*
X80061909Y152798094D01*
X80036278Y152791674D01*
X80010141Y152787797D01*
X79983750Y152786500D01*
X79020250Y152786500D01*
X78993859Y152787797D01*
X78967722Y152791674D01*
X78942091Y152798094D01*
X78917212Y152806995D01*
X78893326Y152818293D01*
X78870663Y152831877D01*
X78849440Y152847617D01*
X78829861Y152865361D01*
X78812117Y152884940D01*
X78796377Y152906163D01*
X78782793Y152928826D01*
X78771495Y152952712D01*
X78762594Y152977591D01*
X78756174Y153003222D01*
X78752297Y153029359D01*
X78751000Y153055750D01*
X78751000Y153594250D01*
X78752297Y153620641D01*
X78756174Y153646778D01*
X78762594Y153672409D01*
X78771495Y153697288D01*
X78782793Y153721174D01*
X78796377Y153743837D01*
X78812117Y153765060D01*
X78829861Y153784639D01*
X78849440Y153802383D01*
X78870663Y153818123D01*
X78893326Y153831707D01*
X78917212Y153843005D01*
X78942091Y153851906D01*
X78967722Y153858326D01*
X78993859Y153862203D01*
X79020250Y153863500D01*
X79983750Y153863500D01*
X80010141Y153862203D01*
X80010141Y153862203D01*
G37*
D33*
X79502000Y153325000D03*
D12*
X195587560Y283056006D03*
X201010154Y282981952D03*
D20*
X192906844Y275609571D03*
D21*
X192709817Y275529967D02*
X193103871Y275689175D01*
D20*
X202688634Y279561671D03*
D21*
X202491607Y279482067D02*
X202885661Y279641275D01*
D18*
X198322036Y283028344D03*
D19*
X198384171Y282838241D02*
X198259901Y283218447D01*
D16*
X193650273Y279442137D03*
D17*
X193360950Y278642892D02*
X193939596Y280241382D01*
D15*
X197797739Y277585621D03*
D13*
X199082265Y274406308D03*
D14*
X199194647Y274128153D02*
X198969883Y274684463D01*
D12*
X200045379Y272022518D03*
X202900484Y276034172D03*
X188470035Y300672499D03*
X193892629Y300598445D03*
D20*
X185789319Y293226064D03*
D21*
X185592292Y293146460D02*
X185986346Y293305668D01*
D20*
X195571109Y297178164D03*
D21*
X195374082Y297098560D02*
X195768136Y297257768D01*
D18*
X191204511Y300644837D03*
D19*
X191266646Y300454734D02*
X191142376Y300834940D01*
D16*
X186532748Y297058630D03*
D17*
X186243425Y296259385D02*
X186822071Y297857875D01*
D15*
X190680214Y295202114D03*
D13*
X191964740Y292022801D03*
D14*
X192077122Y291744646D02*
X191852358Y292300956D01*
D12*
X192927854Y289639011D03*
X195782959Y293650665D03*
X181352509Y318288992D03*
X186775103Y318214938D03*
D20*
X178671793Y310842557D03*
D21*
X178474766Y310762953D02*
X178868820Y310922161D01*
D20*
X188453583Y314794657D03*
D21*
X188256556Y314715053D02*
X188650610Y314874261D01*
D18*
X184086985Y318261330D03*
D19*
X184149120Y318071227D02*
X184024850Y318451433D01*
D16*
X179415222Y314675123D03*
D17*
X179125899Y313875878D02*
X179704545Y315474368D01*
D15*
X183562688Y312818607D03*
D13*
X184847214Y309639294D03*
D14*
X184959596Y309361139D02*
X184734832Y309917449D01*
D12*
X185810328Y307255504D03*
X188665433Y311267158D03*
X179469493Y272229745D03*
X184892087Y272155691D03*
D20*
X176788777Y264783310D03*
D21*
X176591750Y264703706D02*
X176985804Y264862914D01*
D20*
X186570567Y268735410D03*
D21*
X186373540Y268655806D02*
X186767594Y268815014D01*
D18*
X182203969Y272202083D03*
D19*
X182266104Y272011980D02*
X182141834Y272392186D01*
D16*
X177532206Y268615876D03*
D17*
X177242883Y267816631D02*
X177821529Y269415121D01*
D15*
X181679672Y266759360D03*
D13*
X182964198Y263580047D03*
D14*
X183076580Y263301892D02*
X182851816Y263858202D01*
D12*
X183927312Y261196257D03*
X186782417Y265207911D03*
X172351968Y289846238D03*
X177774562Y289772184D03*
D20*
X169671252Y282399803D03*
D21*
X169474225Y282320199D02*
X169868279Y282479407D01*
D20*
X179453042Y286351903D03*
D21*
X179256015Y286272299D02*
X179650069Y286431507D01*
D18*
X175086444Y289818576D03*
D19*
X175148579Y289628473D02*
X175024309Y290008679D01*
D16*
X170414681Y286232369D03*
D17*
X170125358Y285433124D02*
X170704004Y287031614D01*
D15*
X174562147Y284375853D03*
D13*
X175846673Y281196540D03*
D14*
X175959055Y280918385D02*
X175734291Y281474695D01*
D12*
X176809787Y278812750D03*
X179664892Y282824404D03*
X165234443Y307462731D03*
X170657037Y307388677D03*
D20*
X162553727Y300016296D03*
D21*
X162356700Y299936692D02*
X162750754Y300095900D01*
D20*
X172335517Y303968396D03*
D21*
X172138490Y303888792D02*
X172532544Y304048000D01*
D18*
X167968919Y307435069D03*
D19*
X168031054Y307244966D02*
X167906784Y307625172D01*
D16*
X163297156Y303848862D03*
D17*
X163007833Y303049617D02*
X163586479Y304648107D01*
D15*
X167444622Y301992346D03*
D13*
X168729148Y298813033D03*
D14*
X168841530Y298534878D02*
X168616766Y299091188D01*
D12*
X169692262Y296429243D03*
X172547367Y300440897D03*
X174410416Y245109812D03*
X171555311Y241098158D03*
D13*
X170592197Y243481948D03*
D14*
X170704579Y243203793D02*
X170479815Y243760103D01*
D15*
X169307671Y246661261D03*
D16*
X165160205Y248517777D03*
D17*
X164870882Y247718532D02*
X165449528Y249317022D01*
D18*
X169831968Y252103984D03*
D19*
X169894103Y251913881D02*
X169769833Y252294087D01*
D20*
X174198566Y248637311D03*
D21*
X174001539Y248557707D02*
X174395593Y248716915D01*
D20*
X164416776Y244685211D03*
D21*
X164219749Y244605607D02*
X164613803Y244764815D01*
D12*
X172520086Y252057592D03*
X167097492Y252131646D03*
X159979967Y269748139D03*
X165402561Y269674085D03*
D20*
X157299251Y262301704D03*
D21*
X157102224Y262222100D02*
X157496278Y262381308D01*
D20*
X167081041Y266253804D03*
D21*
X166884014Y266174200D02*
X167278068Y266333408D01*
D18*
X162714443Y269720477D03*
D19*
X162776578Y269530374D02*
X162652308Y269910580D01*
D16*
X158042680Y266134270D03*
D17*
X157753357Y265335025D02*
X158332003Y266933515D01*
D15*
X162190146Y264277754D03*
D13*
X163474672Y261098441D03*
D14*
X163587054Y260820286D02*
X163362290Y261376596D01*
D12*
X164437786Y258714651D03*
X167292891Y262726305D03*
X152862442Y287364632D03*
X158285036Y287290578D03*
D20*
X150181726Y279918197D03*
D21*
X149984699Y279838593D02*
X150378753Y279997801D01*
D20*
X159963516Y283870297D03*
D21*
X159766489Y283790693D02*
X160160543Y283949901D01*
D18*
X155596918Y287336970D03*
D19*
X155659053Y287146867D02*
X155534783Y287527073D01*
D16*
X150925155Y283750763D03*
D17*
X150635832Y282951518D02*
X151214478Y284550008D01*
D15*
X155072621Y281894247D03*
D13*
X156357147Y278714934D03*
D14*
X156469529Y278436779D02*
X156244765Y278993089D01*
D12*
X157320261Y276331144D03*
X160175366Y280342798D03*
X145744916Y304981125D03*
X151167510Y304907071D03*
D20*
X143064200Y297534690D03*
D21*
X142867173Y297455086D02*
X143261227Y297614294D01*
D20*
X152845990Y301486790D03*
D21*
X152648963Y301407186D02*
X153043017Y301566394D01*
D18*
X148479392Y304953463D03*
D19*
X148541527Y304763360D02*
X148417257Y305143566D01*
D16*
X143807629Y301367256D03*
D17*
X143518306Y300568011D02*
X144096952Y302166501D01*
D15*
X147955095Y299510740D03*
D13*
X149239621Y296331427D03*
D14*
X149352003Y296053272D02*
X149127239Y296609582D01*
D12*
X150202735Y293947637D03*
X153057840Y297959291D03*
X147607966Y249650040D03*
X153030560Y249575986D03*
D20*
X144927250Y242203605D03*
D21*
X144730223Y242124001D02*
X145124277Y242283209D01*
D20*
X154709040Y246155705D03*
D21*
X154512013Y246076101D02*
X154906067Y246235309D01*
D18*
X150342442Y249622378D03*
D19*
X150404577Y249432275D02*
X150280307Y249812481D01*
D16*
X145670679Y246036171D03*
D17*
X145381356Y245236926D02*
X145960002Y246835416D01*
D15*
X149818145Y244179655D03*
D13*
X151102671Y241000342D03*
D14*
X151215053Y240722187D02*
X150990289Y241278497D01*
D12*
X152065785Y238616552D03*
X154920890Y242628206D03*
X140490441Y267266533D03*
X145913035Y267192479D03*
D20*
X137809725Y259820098D03*
D21*
X137612698Y259740494D02*
X138006752Y259899702D01*
D20*
X147591515Y263772198D03*
D21*
X147394488Y263692594D02*
X147788542Y263851802D01*
D18*
X143224917Y267238871D03*
D19*
X143287052Y267048768D02*
X143162782Y267428974D01*
D16*
X138553154Y263652664D03*
D17*
X138263831Y262853419D02*
X138842477Y264451909D01*
D15*
X142700620Y261796148D03*
D13*
X143985146Y258616835D03*
D14*
X144097528Y258338680D02*
X143872764Y258894990D01*
D12*
X144948260Y256233045D03*
X147803365Y260244699D03*
X133372915Y284883026D03*
X138795509Y284808972D03*
D20*
X130692199Y277436591D03*
D21*
X130495172Y277356987D02*
X130889226Y277516195D01*
D20*
X140473989Y281388691D03*
D21*
X140276962Y281309087D02*
X140671016Y281468295D01*
D18*
X136107391Y284855364D03*
D19*
X136169526Y284665261D02*
X136045256Y285045467D01*
D16*
X131435628Y281269157D03*
D17*
X131146305Y280469912D02*
X131724951Y282068402D01*
D15*
X135583094Y279412641D03*
D13*
X136867620Y276233328D03*
D14*
X136980002Y275955173D02*
X136755238Y276511483D01*
D12*
X137830734Y273849538D03*
X140685839Y277861192D03*
X126255390Y302499519D03*
X131677984Y302425465D03*
D20*
X123574674Y295053084D03*
D21*
X123377647Y294973480D02*
X123771701Y295132688D01*
D20*
X133356464Y299005184D03*
D21*
X133159437Y298925580D02*
X133553491Y299084788D01*
D18*
X128989866Y302471857D03*
D19*
X129052001Y302281754D02*
X128927731Y302661960D01*
D16*
X124318103Y298885650D03*
D17*
X124028780Y298086405D02*
X124607426Y299684895D01*
D15*
X128465569Y297029134D03*
D13*
X129750095Y293849821D03*
D14*
X129862477Y293571666D02*
X129637713Y294127976D01*
D12*
X130713209Y291466031D03*
X133568314Y295477685D03*
X14392034Y249650040D03*
X18241279Y245829920D03*
D20*
X7290960Y246155705D03*
D21*
X7093933Y246235309D02*
X7487987Y246076101D01*
D20*
X17072750Y242203605D03*
D21*
X16875723Y242283209D02*
X17269777Y242124001D01*
D18*
X16339836Y247730615D03*
D19*
X16252476Y247550703D02*
X16427196Y247910527D01*
D16*
X10488062Y248396193D03*
D17*
X9724739Y248022245D02*
X11251385Y248770141D01*
D15*
X12181855Y244179655D03*
D13*
X10897329Y241000342D03*
D14*
X10784947Y240722187D02*
X11009711Y241278497D01*
D12*
X9934215Y238616552D03*
X14774736Y239518972D03*
X21509559Y267266533D03*
X25358804Y263446413D03*
D20*
X14408485Y263772198D03*
D21*
X14211458Y263851802D02*
X14605512Y263692594D01*
D20*
X24190275Y259820098D03*
D21*
X23993248Y259899702D02*
X24387302Y259740494D01*
D18*
X23457361Y265347108D03*
D19*
X23370001Y265167196D02*
X23544721Y265527020D01*
D16*
X17605587Y266012686D03*
D17*
X16842264Y265638738D02*
X18368910Y266386634D01*
D15*
X19299380Y261796148D03*
D13*
X18014854Y258616835D03*
D14*
X17902472Y258338680D02*
X18127236Y258894990D01*
D12*
X17051740Y256233045D03*
X21892261Y257135465D03*
X28627085Y284883026D03*
X32476330Y281062906D03*
D20*
X21526011Y281388691D03*
D21*
X21328984Y281468295D02*
X21723038Y281309087D01*
D20*
X31307801Y277436591D03*
D21*
X31110774Y277516195D02*
X31504828Y277356987D01*
D18*
X30574887Y282963601D03*
D19*
X30487527Y282783689D02*
X30662247Y283143513D01*
D16*
X24723113Y283629179D03*
D17*
X23959790Y283255231D02*
X25486436Y284003127D01*
D15*
X26416906Y279412641D03*
D13*
X25132380Y276233328D03*
D14*
X25019998Y275955173D02*
X25244762Y276511483D01*
D12*
X24169266Y273849538D03*
X29009787Y274751958D03*
X35744610Y302499519D03*
X39593855Y298679399D03*
D20*
X28643536Y299005184D03*
D21*
X28446509Y299084788D02*
X28840563Y298925580D01*
D20*
X38425326Y295053084D03*
D21*
X38228299Y295132688D02*
X38622353Y294973480D01*
D18*
X37692412Y300580094D03*
D19*
X37605052Y300400182D02*
X37779772Y300760006D01*
D16*
X31840638Y301245672D03*
D17*
X31077315Y300871724D02*
X32603961Y301619620D01*
D15*
X33534431Y297029134D03*
D13*
X32249905Y293849821D03*
D14*
X32137523Y293571666D02*
X32362287Y294127976D01*
D12*
X31286791Y291466031D03*
X36127312Y292368451D03*
X-5097492Y252131646D03*
X-1248247Y248311526D03*
D20*
X-12198566Y248637311D03*
D21*
X-12395593Y248716915D02*
X-12001539Y248557707D01*
D20*
X-2416776Y244685211D03*
D21*
X-2613803Y244764815D02*
X-2219749Y244605607D01*
D18*
X-3149690Y250212221D03*
D19*
X-3237050Y250032309D02*
X-3062330Y250392133D01*
D16*
X-9001464Y250877799D03*
D17*
X-9764787Y250503851D02*
X-8238141Y251251747D01*
D15*
X-7307671Y246661261D03*
D13*
X-8592197Y243481948D03*
D14*
X-8704579Y243203793D02*
X-8479815Y243760103D01*
D12*
X-9555311Y241098158D03*
X-4714790Y242000578D03*
X2020033Y269748139D03*
X5869278Y265928019D03*
D20*
X-5081041Y266253804D03*
D21*
X-5278068Y266333408D02*
X-4884014Y266174200D01*
D20*
X4700749Y262301704D03*
D21*
X4503722Y262381308D02*
X4897776Y262222100D01*
D18*
X3967835Y267828714D03*
D19*
X3880475Y267648802D02*
X4055195Y268008626D01*
D16*
X-1883939Y268494292D03*
D17*
X-2647262Y268120344D02*
X-1120616Y268868240D01*
D15*
X-190146Y264277754D03*
D13*
X-1474672Y261098441D03*
D14*
X-1587054Y260820286D02*
X-1362290Y261376596D01*
D12*
X-2437786Y258714651D03*
X2402735Y259617071D03*
X9137558Y287364632D03*
X12986803Y283544512D03*
D20*
X2036484Y283870297D03*
D21*
X1839457Y283949901D02*
X2233511Y283790693D01*
D20*
X11818274Y279918197D03*
D21*
X11621247Y279997801D02*
X12015301Y279838593D01*
D18*
X11085360Y285445207D03*
D19*
X10998000Y285265295D02*
X11172720Y285625119D01*
D16*
X5233586Y286110785D03*
D17*
X4470263Y285736837D02*
X5996909Y286484733D01*
D15*
X6927379Y281894247D03*
D13*
X5642853Y278714934D03*
D14*
X5530471Y278436779D02*
X5755235Y278993089D01*
D12*
X4679739Y276331144D03*
X9520260Y277233564D03*
X16255084Y304981125D03*
X20104329Y301161005D03*
D20*
X9154010Y301486790D03*
D21*
X8956983Y301566394D02*
X9351037Y301407186D01*
D20*
X18935800Y297534690D03*
D21*
X18738773Y297614294D02*
X19132827Y297455086D01*
D18*
X18202886Y303061700D03*
D19*
X18115526Y302881788D02*
X18290246Y303241612D01*
D16*
X12351112Y303727278D03*
D17*
X11587789Y303353330D02*
X13114435Y304101226D01*
D15*
X14044905Y299510740D03*
D13*
X12760379Y296331427D03*
D14*
X12647997Y296053272D02*
X12872761Y296609582D01*
D12*
X11797265Y293947637D03*
X16637786Y294850057D03*
X-17469493Y272229745D03*
X-13620248Y268409625D03*
D20*
X-24570567Y268735410D03*
D21*
X-24767594Y268815014D02*
X-24373540Y268655806D01*
D20*
X-14788777Y264783310D03*
D21*
X-14985804Y264862914D02*
X-14591750Y264703706D01*
D18*
X-15521691Y270310320D03*
D19*
X-15609051Y270130408D02*
X-15434331Y270490232D01*
D16*
X-21373465Y270975898D03*
D17*
X-22136788Y270601950D02*
X-20610142Y271349846D01*
D15*
X-19679672Y266759360D03*
D13*
X-20964198Y263580047D03*
D14*
X-21076580Y263301892D02*
X-20851816Y263858202D01*
D12*
X-21927312Y261196257D03*
X-17086791Y262098677D03*
X-10351968Y289846238D03*
X-6502723Y286026118D03*
D20*
X-17453042Y286351903D03*
D21*
X-17650069Y286431507D02*
X-17256015Y286272299D01*
D20*
X-7671252Y282399803D03*
D21*
X-7868279Y282479407D02*
X-7474225Y282320199D01*
D18*
X-8404166Y287926813D03*
D19*
X-8491526Y287746901D02*
X-8316806Y288106725D01*
D16*
X-14255940Y288592391D03*
D17*
X-15019263Y288218443D02*
X-13492617Y288966339D01*
D15*
X-12562147Y284375853D03*
D13*
X-13846673Y281196540D03*
D14*
X-13959055Y280918385D02*
X-13734291Y281474695D01*
D12*
X-14809787Y278812750D03*
X-9969266Y279715170D03*
X-3234443Y307462731D03*
X614802Y303642611D03*
D20*
X-10335517Y303968396D03*
D21*
X-10532544Y304048000D02*
X-10138490Y303888792D01*
D20*
X-553727Y300016296D03*
D21*
X-750754Y300095900D02*
X-356700Y299936692D01*
D18*
X-1286641Y305543306D03*
D19*
X-1374001Y305363394D02*
X-1199281Y305723218D01*
D16*
X-7138415Y306208884D03*
D17*
X-7901738Y305834936D02*
X-6375092Y306582832D01*
D15*
X-5444622Y301992346D03*
D13*
X-6729148Y298813033D03*
D14*
X-6841530Y298534878D02*
X-6616766Y299091188D01*
D12*
X-7692262Y296429243D03*
X-2851741Y297331663D03*
X-33587560Y283056006D03*
X-29738315Y279235886D03*
D20*
X-40688634Y279561671D03*
D21*
X-40885661Y279641275D02*
X-40491607Y279482067D01*
D20*
X-30906844Y275609571D03*
D21*
X-31103871Y275689175D02*
X-30709817Y275529967D01*
D18*
X-31639758Y281136581D03*
D19*
X-31727118Y280956669D02*
X-31552398Y281316493D01*
D16*
X-37491532Y281802159D03*
D17*
X-38254855Y281428211D02*
X-36728209Y282176107D01*
D15*
X-35797739Y277585621D03*
D13*
X-37082265Y274406308D03*
D14*
X-37194647Y274128153D02*
X-36969883Y274684463D01*
D12*
X-38045379Y272022518D03*
X-33204858Y272924938D03*
X-26470035Y300672499D03*
X-22620790Y296852379D03*
D20*
X-33571109Y297178164D03*
D21*
X-33768136Y297257768D02*
X-33374082Y297098560D01*
D20*
X-23789319Y293226064D03*
D21*
X-23986346Y293305668D02*
X-23592292Y293146460D01*
D18*
X-24522233Y298753074D03*
D19*
X-24609593Y298573162D02*
X-24434873Y298932986D01*
D16*
X-30374007Y299418652D03*
D17*
X-31137330Y299044704D02*
X-29610684Y299792600D01*
D15*
X-28680214Y295202114D03*
D13*
X-29964740Y292022801D03*
D14*
X-30077122Y291744646D02*
X-29852358Y292300956D01*
D12*
X-30927854Y289639011D03*
X-26087333Y290541431D03*
X-19352509Y318288992D03*
X-15503264Y314468872D03*
D20*
X-26453583Y314794657D03*
D21*
X-26650610Y314874261D02*
X-26256556Y314715053D01*
D20*
X-16671793Y310842557D03*
D21*
X-16868820Y310922161D02*
X-16474766Y310762953D01*
D18*
X-17404707Y316369567D03*
D19*
X-17492067Y316189655D02*
X-17317347Y316549479D01*
D16*
X-23256481Y317035145D03*
D17*
X-24019804Y316661197D02*
X-22493158Y317409093D01*
D15*
X-21562688Y312818607D03*
D13*
X-22847214Y309639294D03*
D14*
X-22959596Y309361139D02*
X-22734832Y309917449D01*
D12*
X-23810328Y307255504D03*
X-18969807Y308157924D03*
D22*
X136022900Y248959947D03*
D23*
X136022900Y248959947D02*
X136022900Y248959947D01*
D22*
X135071399Y251314994D03*
D23*
X135071399Y251314994D02*
X135071399Y251314994D01*
D22*
X134119898Y253670041D03*
D23*
X134119898Y253670041D02*
X134119898Y253670041D01*
D22*
X133168397Y256025088D03*
D23*
X133168397Y256025088D02*
X133168397Y256025088D01*
D22*
X132216897Y258380135D03*
D23*
X132216897Y258380135D02*
X132216897Y258380135D01*
D22*
X131265396Y260735182D03*
D23*
X131265396Y260735182D02*
X131265396Y260735182D01*
D22*
X130313895Y263090229D03*
D23*
X130313895Y263090229D02*
X130313895Y263090229D01*
D22*
X129362394Y265445276D03*
D23*
X129362394Y265445276D02*
X129362394Y265445276D01*
D22*
X128410894Y267800323D03*
D23*
X128410894Y267800323D02*
X128410894Y267800323D01*
D22*
X127459393Y270155370D03*
D23*
X127459393Y270155370D02*
X127459393Y270155370D01*
D22*
X126507892Y272510417D03*
D23*
X126507892Y272510417D02*
X126507892Y272510417D01*
D22*
X125556391Y274865464D03*
D23*
X125556391Y274865464D02*
X125556391Y274865464D01*
D22*
X124604891Y277220511D03*
D23*
X124604891Y277220511D02*
X124604891Y277220511D01*
D22*
X123653390Y279575558D03*
D23*
X123653390Y279575558D02*
X123653390Y279575558D01*
D22*
X122701889Y281930605D03*
D23*
X122701889Y281930605D02*
X122701889Y281930605D01*
D22*
X121750388Y284285652D03*
D23*
X121750388Y284285652D02*
X121750388Y284285652D01*
D22*
X120798888Y286640699D03*
D23*
X120798888Y286640699D02*
X120798888Y286640699D01*
D22*
X119847387Y288995746D03*
D24*
G36*
X119349515Y287822833D02*
G01*
X118674474Y289493618D01*
X120345259Y290168659D01*
X121020300Y288497874D01*
X119349515Y287822833D01*
X119349515Y287822833D01*
G37*
D22*
X25917163Y248811598D03*
D23*
X25917163Y248811598D02*
X25917163Y248811598D01*
D22*
X26868664Y251166645D03*
D23*
X26868664Y251166645D02*
X26868664Y251166645D01*
D22*
X27820165Y253521692D03*
D23*
X27820165Y253521692D02*
X27820165Y253521692D01*
D22*
X28771666Y255876739D03*
D23*
X28771666Y255876739D02*
X28771666Y255876739D01*
D22*
X29723166Y258231786D03*
D23*
X29723166Y258231786D02*
X29723166Y258231786D01*
D22*
X30674667Y260586833D03*
D23*
X30674667Y260586833D02*
X30674667Y260586833D01*
D22*
X31626168Y262941880D03*
D23*
X31626168Y262941880D02*
X31626168Y262941880D01*
D22*
X32577669Y265296927D03*
D23*
X32577669Y265296927D02*
X32577669Y265296927D01*
D22*
X33529169Y267651974D03*
D23*
X33529169Y267651974D02*
X33529169Y267651974D01*
D22*
X34480670Y270007021D03*
D23*
X34480670Y270007021D02*
X34480670Y270007021D01*
D22*
X35432171Y272362068D03*
D23*
X35432171Y272362068D02*
X35432171Y272362068D01*
D22*
X36383672Y274717115D03*
D23*
X36383672Y274717115D02*
X36383672Y274717115D01*
D22*
X37335172Y277072162D03*
D23*
X37335172Y277072162D02*
X37335172Y277072162D01*
D22*
X38286673Y279427209D03*
D23*
X38286673Y279427209D02*
X38286673Y279427209D01*
D22*
X39238174Y281782256D03*
D23*
X39238174Y281782256D02*
X39238174Y281782256D01*
D22*
X40189675Y284137303D03*
D23*
X40189675Y284137303D02*
X40189675Y284137303D01*
D22*
X41141175Y286492350D03*
D23*
X41141175Y286492350D02*
X41141175Y286492350D01*
D22*
X42092676Y288847397D03*
D24*
G36*
X40919763Y288349525D02*
G01*
X41594804Y290020310D01*
X43265589Y289345269D01*
X42590548Y287674484D01*
X40919763Y288349525D01*
X40919763Y288349525D01*
G37*
G36*
X76882104Y155874698D02*
G01*
X76908352Y155870804D01*
X76934093Y155864357D01*
X76959078Y155855417D01*
X76983066Y155844072D01*
X77005826Y155830429D01*
X77027140Y155814622D01*
X77046802Y155796802D01*
X77064622Y155777140D01*
X77080429Y155755826D01*
X77094072Y155733066D01*
X77105417Y155709078D01*
X77114357Y155684093D01*
X77120804Y155658352D01*
X77124698Y155632104D01*
X77126000Y155605600D01*
X77126000Y154794400D01*
X77124698Y154767896D01*
X77120804Y154741648D01*
X77114357Y154715907D01*
X77105417Y154690922D01*
X77094072Y154666934D01*
X77080429Y154644174D01*
X77064622Y154622860D01*
X77046802Y154603198D01*
X77027140Y154585378D01*
X77005826Y154569571D01*
X76983066Y154555928D01*
X76959078Y154544583D01*
X76934093Y154535643D01*
X76908352Y154529196D01*
X76882104Y154525302D01*
X76855600Y154524000D01*
X75544400Y154524000D01*
X75517896Y154525302D01*
X75491648Y154529196D01*
X75465907Y154535643D01*
X75440922Y154544583D01*
X75416934Y154555928D01*
X75394174Y154569571D01*
X75372860Y154585378D01*
X75353198Y154603198D01*
X75335378Y154622860D01*
X75319571Y154644174D01*
X75305928Y154666934D01*
X75294583Y154690922D01*
X75285643Y154715907D01*
X75279196Y154741648D01*
X75275302Y154767896D01*
X75274000Y154794400D01*
X75274000Y155605600D01*
X75275302Y155632104D01*
X75279196Y155658352D01*
X75285643Y155684093D01*
X75294583Y155709078D01*
X75305928Y155733066D01*
X75319571Y155755826D01*
X75335378Y155777140D01*
X75353198Y155796802D01*
X75372860Y155814622D01*
X75394174Y155830429D01*
X75416934Y155844072D01*
X75440922Y155855417D01*
X75465907Y155864357D01*
X75491648Y155870804D01*
X75517896Y155874698D01*
X75544400Y155876000D01*
X76855600Y155876000D01*
X76882104Y155874698D01*
X76882104Y155874698D01*
G37*
D34*
X76200000Y155200000D03*
D24*
G36*
X76882104Y153074698D02*
G01*
X76908352Y153070804D01*
X76934093Y153064357D01*
X76959078Y153055417D01*
X76983066Y153044072D01*
X77005826Y153030429D01*
X77027140Y153014622D01*
X77046802Y152996802D01*
X77064622Y152977140D01*
X77080429Y152955826D01*
X77094072Y152933066D01*
X77105417Y152909078D01*
X77114357Y152884093D01*
X77120804Y152858352D01*
X77124698Y152832104D01*
X77126000Y152805600D01*
X77126000Y151994400D01*
X77124698Y151967896D01*
X77120804Y151941648D01*
X77114357Y151915907D01*
X77105417Y151890922D01*
X77094072Y151866934D01*
X77080429Y151844174D01*
X77064622Y151822860D01*
X77046802Y151803198D01*
X77027140Y151785378D01*
X77005826Y151769571D01*
X76983066Y151755928D01*
X76959078Y151744583D01*
X76934093Y151735643D01*
X76908352Y151729196D01*
X76882104Y151725302D01*
X76855600Y151724000D01*
X75544400Y151724000D01*
X75517896Y151725302D01*
X75491648Y151729196D01*
X75465907Y151735643D01*
X75440922Y151744583D01*
X75416934Y151755928D01*
X75394174Y151769571D01*
X75372860Y151785378D01*
X75353198Y151803198D01*
X75335378Y151822860D01*
X75319571Y151844174D01*
X75305928Y151866934D01*
X75294583Y151890922D01*
X75285643Y151915907D01*
X75279196Y151941648D01*
X75275302Y151967896D01*
X75274000Y151994400D01*
X75274000Y152805600D01*
X75275302Y152832104D01*
X75279196Y152858352D01*
X75285643Y152884093D01*
X75294583Y152909078D01*
X75305928Y152933066D01*
X75319571Y152955826D01*
X75335378Y152977140D01*
X75353198Y152996802D01*
X75372860Y153014622D01*
X75394174Y153030429D01*
X75416934Y153044072D01*
X75440922Y153055417D01*
X75465907Y153064357D01*
X75491648Y153070804D01*
X75517896Y153074698D01*
X75544400Y153076000D01*
X76855600Y153076000D01*
X76882104Y153074698D01*
X76882104Y153074698D01*
G37*
D34*
X76200000Y152400000D03*
D35*
X115570000Y113410000D03*
X115570000Y110110000D03*
X110490000Y113410000D03*
X110490000Y110110000D03*
X107950000Y113410000D03*
X107950000Y110110000D03*
X102870000Y113410000D03*
X102870000Y110110000D03*
X100330000Y113410000D03*
X100330000Y110110000D03*
X97790000Y113410000D03*
X97790000Y110110000D03*
X96520000Y128332750D03*
X96520000Y125032750D03*
X94107000Y128332750D03*
X94107000Y125032750D03*
X89281000Y128332750D03*
X89281000Y125032750D03*
X86868000Y128332750D03*
X86868000Y125032750D03*
X96520000Y136905000D03*
X96520000Y133605000D03*
X94107000Y136905000D03*
X94107000Y133605000D03*
X91694000Y136905000D03*
X91694000Y133605000D03*
X89281000Y136905000D03*
X89281000Y133605000D03*
X120650000Y113410000D03*
X120650000Y110110000D03*
X118110000Y113410000D03*
X118110000Y110110000D03*
X113030000Y113410000D03*
X113030000Y110110000D03*
X91694000Y128332750D03*
X91694000Y125032750D03*
X86868000Y136905000D03*
X86868000Y133605000D03*
X105410000Y113410000D03*
X105410000Y110110000D03*
X84455000Y128332750D03*
X84455000Y125032750D03*
X84455000Y136905000D03*
X84455000Y133605000D03*
X54174568Y113685001D03*
X54174568Y110385001D03*
X78489250Y128332750D03*
X78489250Y125032750D03*
X78489250Y136936000D03*
X78489250Y133636000D03*
X39624000Y113685001D03*
X39624000Y110385001D03*
X42037000Y113685001D03*
X42037000Y110385001D03*
X44450000Y110385001D03*
X44450000Y113685001D03*
X70983550Y125032750D03*
X70983550Y128332750D03*
X75987350Y133636000D03*
X75987350Y136936000D03*
X46881142Y110385001D03*
X46881142Y113685001D03*
X49312284Y110385001D03*
X49312284Y113685001D03*
X51743426Y110385001D03*
X51743426Y113685001D03*
X56605710Y110385001D03*
X56605710Y113685001D03*
X59036852Y110385001D03*
X59036852Y113685001D03*
X61468000Y110385001D03*
X61468000Y113685001D03*
X65979750Y125032750D03*
X65979750Y128332750D03*
X68481650Y125032750D03*
X68481650Y128332750D03*
X73485450Y125032750D03*
X73485450Y128332750D03*
X75987350Y125032750D03*
X75987350Y128332750D03*
X65979750Y133636000D03*
X65979750Y136936000D03*
X68481650Y133636000D03*
X68481650Y136936000D03*
X70983550Y133636000D03*
X70983550Y136936000D03*
X73485450Y133636000D03*
X73485450Y136936000D03*
D24*
G36*
X82550141Y115677703D02*
G01*
X82576278Y115673826D01*
X82601909Y115667406D01*
X82626788Y115658505D01*
X82650674Y115647207D01*
X82673337Y115633623D01*
X82694560Y115617883D01*
X82714139Y115600139D01*
X82731883Y115580560D01*
X82747623Y115559337D01*
X82761207Y115536674D01*
X82772505Y115512788D01*
X82781406Y115487909D01*
X82787826Y115462278D01*
X82791703Y115436141D01*
X82793000Y115409750D01*
X82793000Y114871250D01*
X82791703Y114844859D01*
X82787826Y114818722D01*
X82781406Y114793091D01*
X82772505Y114768212D01*
X82761207Y114744326D01*
X82747623Y114721663D01*
X82731883Y114700440D01*
X82714139Y114680861D01*
X82694560Y114663117D01*
X82673337Y114647377D01*
X82650674Y114633793D01*
X82626788Y114622495D01*
X82601909Y114613594D01*
X82576278Y114607174D01*
X82550141Y114603297D01*
X82523750Y114602000D01*
X81560250Y114602000D01*
X81533859Y114603297D01*
X81507722Y114607174D01*
X81482091Y114613594D01*
X81457212Y114622495D01*
X81433326Y114633793D01*
X81410663Y114647377D01*
X81389440Y114663117D01*
X81369861Y114680861D01*
X81352117Y114700440D01*
X81336377Y114721663D01*
X81322793Y114744326D01*
X81311495Y114768212D01*
X81302594Y114793091D01*
X81296174Y114818722D01*
X81292297Y114844859D01*
X81291000Y114871250D01*
X81291000Y115409750D01*
X81292297Y115436141D01*
X81296174Y115462278D01*
X81302594Y115487909D01*
X81311495Y115512788D01*
X81322793Y115536674D01*
X81336377Y115559337D01*
X81352117Y115580560D01*
X81369861Y115600139D01*
X81389440Y115617883D01*
X81410663Y115633623D01*
X81433326Y115647207D01*
X81457212Y115658505D01*
X81482091Y115667406D01*
X81507722Y115673826D01*
X81533859Y115677703D01*
X81560250Y115679000D01*
X82523750Y115679000D01*
X82550141Y115677703D01*
X82550141Y115677703D01*
G37*
D33*
X82042000Y115140500D03*
D24*
G36*
X82550141Y117552703D02*
G01*
X82576278Y117548826D01*
X82601909Y117542406D01*
X82626788Y117533505D01*
X82650674Y117522207D01*
X82673337Y117508623D01*
X82694560Y117492883D01*
X82714139Y117475139D01*
X82731883Y117455560D01*
X82747623Y117434337D01*
X82761207Y117411674D01*
X82772505Y117387788D01*
X82781406Y117362909D01*
X82787826Y117337278D01*
X82791703Y117311141D01*
X82793000Y117284750D01*
X82793000Y116746250D01*
X82791703Y116719859D01*
X82787826Y116693722D01*
X82781406Y116668091D01*
X82772505Y116643212D01*
X82761207Y116619326D01*
X82747623Y116596663D01*
X82731883Y116575440D01*
X82714139Y116555861D01*
X82694560Y116538117D01*
X82673337Y116522377D01*
X82650674Y116508793D01*
X82626788Y116497495D01*
X82601909Y116488594D01*
X82576278Y116482174D01*
X82550141Y116478297D01*
X82523750Y116477000D01*
X81560250Y116477000D01*
X81533859Y116478297D01*
X81507722Y116482174D01*
X81482091Y116488594D01*
X81457212Y116497495D01*
X81433326Y116508793D01*
X81410663Y116522377D01*
X81389440Y116538117D01*
X81369861Y116555861D01*
X81352117Y116575440D01*
X81336377Y116596663D01*
X81322793Y116619326D01*
X81311495Y116643212D01*
X81302594Y116668091D01*
X81296174Y116693722D01*
X81292297Y116719859D01*
X81291000Y116746250D01*
X81291000Y117284750D01*
X81292297Y117311141D01*
X81296174Y117337278D01*
X81302594Y117362909D01*
X81311495Y117387788D01*
X81322793Y117411674D01*
X81336377Y117434337D01*
X81352117Y117455560D01*
X81369861Y117475139D01*
X81389440Y117492883D01*
X81410663Y117508623D01*
X81433326Y117522207D01*
X81457212Y117533505D01*
X81482091Y117542406D01*
X81507722Y117548826D01*
X81533859Y117552703D01*
X81560250Y117554000D01*
X82523750Y117554000D01*
X82550141Y117552703D01*
X82550141Y117552703D01*
G37*
D33*
X82042000Y117015500D03*
D24*
G36*
X85439391Y155737203D02*
G01*
X85465528Y155733326D01*
X85491159Y155726906D01*
X85516038Y155718005D01*
X85539924Y155706707D01*
X85562587Y155693123D01*
X85583810Y155677383D01*
X85603389Y155659639D01*
X85621133Y155640060D01*
X85636873Y155618837D01*
X85650457Y155596174D01*
X85661755Y155572288D01*
X85670656Y155547409D01*
X85677076Y155521778D01*
X85680953Y155495641D01*
X85682250Y155469250D01*
X85682250Y154930750D01*
X85680953Y154904359D01*
X85677076Y154878222D01*
X85670656Y154852591D01*
X85661755Y154827712D01*
X85650457Y154803826D01*
X85636873Y154781163D01*
X85621133Y154759940D01*
X85603389Y154740361D01*
X85583810Y154722617D01*
X85562587Y154706877D01*
X85539924Y154693293D01*
X85516038Y154681995D01*
X85491159Y154673094D01*
X85465528Y154666674D01*
X85439391Y154662797D01*
X85413000Y154661500D01*
X84449500Y154661500D01*
X84423109Y154662797D01*
X84396972Y154666674D01*
X84371341Y154673094D01*
X84346462Y154681995D01*
X84322576Y154693293D01*
X84299913Y154706877D01*
X84278690Y154722617D01*
X84259111Y154740361D01*
X84241367Y154759940D01*
X84225627Y154781163D01*
X84212043Y154803826D01*
X84200745Y154827712D01*
X84191844Y154852591D01*
X84185424Y154878222D01*
X84181547Y154904359D01*
X84180250Y154930750D01*
X84180250Y155469250D01*
X84181547Y155495641D01*
X84185424Y155521778D01*
X84191844Y155547409D01*
X84200745Y155572288D01*
X84212043Y155596174D01*
X84225627Y155618837D01*
X84241367Y155640060D01*
X84259111Y155659639D01*
X84278690Y155677383D01*
X84299913Y155693123D01*
X84322576Y155706707D01*
X84346462Y155718005D01*
X84371341Y155726906D01*
X84396972Y155733326D01*
X84423109Y155737203D01*
X84449500Y155738500D01*
X85413000Y155738500D01*
X85439391Y155737203D01*
X85439391Y155737203D01*
G37*
D33*
X84931250Y155200000D03*
D24*
G36*
X85439391Y153862203D02*
G01*
X85465528Y153858326D01*
X85491159Y153851906D01*
X85516038Y153843005D01*
X85539924Y153831707D01*
X85562587Y153818123D01*
X85583810Y153802383D01*
X85603389Y153784639D01*
X85621133Y153765060D01*
X85636873Y153743837D01*
X85650457Y153721174D01*
X85661755Y153697288D01*
X85670656Y153672409D01*
X85677076Y153646778D01*
X85680953Y153620641D01*
X85682250Y153594250D01*
X85682250Y153055750D01*
X85680953Y153029359D01*
X85677076Y153003222D01*
X85670656Y152977591D01*
X85661755Y152952712D01*
X85650457Y152928826D01*
X85636873Y152906163D01*
X85621133Y152884940D01*
X85603389Y152865361D01*
X85583810Y152847617D01*
X85562587Y152831877D01*
X85539924Y152818293D01*
X85516038Y152806995D01*
X85491159Y152798094D01*
X85465528Y152791674D01*
X85439391Y152787797D01*
X85413000Y152786500D01*
X84449500Y152786500D01*
X84423109Y152787797D01*
X84396972Y152791674D01*
X84371341Y152798094D01*
X84346462Y152806995D01*
X84322576Y152818293D01*
X84299913Y152831877D01*
X84278690Y152847617D01*
X84259111Y152865361D01*
X84241367Y152884940D01*
X84225627Y152906163D01*
X84212043Y152928826D01*
X84200745Y152952712D01*
X84191844Y152977591D01*
X84185424Y153003222D01*
X84181547Y153029359D01*
X84180250Y153055750D01*
X84180250Y153594250D01*
X84181547Y153620641D01*
X84185424Y153646778D01*
X84191844Y153672409D01*
X84200745Y153697288D01*
X84212043Y153721174D01*
X84225627Y153743837D01*
X84241367Y153765060D01*
X84259111Y153784639D01*
X84278690Y153802383D01*
X84299913Y153818123D01*
X84322576Y153831707D01*
X84346462Y153843005D01*
X84371341Y153851906D01*
X84396972Y153858326D01*
X84423109Y153862203D01*
X84449500Y153863500D01*
X85413000Y153863500D01*
X85439391Y153862203D01*
X85439391Y153862203D01*
G37*
D33*
X84931250Y153325000D03*
D24*
G36*
X91070641Y105524703D02*
G01*
X91096778Y105520826D01*
X91122409Y105514406D01*
X91147288Y105505505D01*
X91171174Y105494207D01*
X91193837Y105480623D01*
X91215060Y105464883D01*
X91234639Y105447139D01*
X91252383Y105427560D01*
X91268123Y105406337D01*
X91281707Y105383674D01*
X91293005Y105359788D01*
X91301906Y105334909D01*
X91308326Y105309278D01*
X91312203Y105283141D01*
X91313500Y105256750D01*
X91313500Y104293250D01*
X91312203Y104266859D01*
X91308326Y104240722D01*
X91301906Y104215091D01*
X91293005Y104190212D01*
X91281707Y104166326D01*
X91268123Y104143663D01*
X91252383Y104122440D01*
X91234639Y104102861D01*
X91215060Y104085117D01*
X91193837Y104069377D01*
X91171174Y104055793D01*
X91147288Y104044495D01*
X91122409Y104035594D01*
X91096778Y104029174D01*
X91070641Y104025297D01*
X91044250Y104024000D01*
X90505750Y104024000D01*
X90479359Y104025297D01*
X90453222Y104029174D01*
X90427591Y104035594D01*
X90402712Y104044495D01*
X90378826Y104055793D01*
X90356163Y104069377D01*
X90334940Y104085117D01*
X90315361Y104102861D01*
X90297617Y104122440D01*
X90281877Y104143663D01*
X90268293Y104166326D01*
X90256995Y104190212D01*
X90248094Y104215091D01*
X90241674Y104240722D01*
X90237797Y104266859D01*
X90236500Y104293250D01*
X90236500Y105256750D01*
X90237797Y105283141D01*
X90241674Y105309278D01*
X90248094Y105334909D01*
X90256995Y105359788D01*
X90268293Y105383674D01*
X90281877Y105406337D01*
X90297617Y105427560D01*
X90315361Y105447139D01*
X90334940Y105464883D01*
X90356163Y105480623D01*
X90378826Y105494207D01*
X90402712Y105505505D01*
X90427591Y105514406D01*
X90453222Y105520826D01*
X90479359Y105524703D01*
X90505750Y105526000D01*
X91044250Y105526000D01*
X91070641Y105524703D01*
X91070641Y105524703D01*
G37*
D33*
X90775000Y104775000D03*
D24*
G36*
X89195641Y105524703D02*
G01*
X89221778Y105520826D01*
X89247409Y105514406D01*
X89272288Y105505505D01*
X89296174Y105494207D01*
X89318837Y105480623D01*
X89340060Y105464883D01*
X89359639Y105447139D01*
X89377383Y105427560D01*
X89393123Y105406337D01*
X89406707Y105383674D01*
X89418005Y105359788D01*
X89426906Y105334909D01*
X89433326Y105309278D01*
X89437203Y105283141D01*
X89438500Y105256750D01*
X89438500Y104293250D01*
X89437203Y104266859D01*
X89433326Y104240722D01*
X89426906Y104215091D01*
X89418005Y104190212D01*
X89406707Y104166326D01*
X89393123Y104143663D01*
X89377383Y104122440D01*
X89359639Y104102861D01*
X89340060Y104085117D01*
X89318837Y104069377D01*
X89296174Y104055793D01*
X89272288Y104044495D01*
X89247409Y104035594D01*
X89221778Y104029174D01*
X89195641Y104025297D01*
X89169250Y104024000D01*
X88630750Y104024000D01*
X88604359Y104025297D01*
X88578222Y104029174D01*
X88552591Y104035594D01*
X88527712Y104044495D01*
X88503826Y104055793D01*
X88481163Y104069377D01*
X88459940Y104085117D01*
X88440361Y104102861D01*
X88422617Y104122440D01*
X88406877Y104143663D01*
X88393293Y104166326D01*
X88381995Y104190212D01*
X88373094Y104215091D01*
X88366674Y104240722D01*
X88362797Y104266859D01*
X88361500Y104293250D01*
X88361500Y105256750D01*
X88362797Y105283141D01*
X88366674Y105309278D01*
X88373094Y105334909D01*
X88381995Y105359788D01*
X88393293Y105383674D01*
X88406877Y105406337D01*
X88422617Y105427560D01*
X88440361Y105447139D01*
X88459940Y105464883D01*
X88481163Y105480623D01*
X88503826Y105494207D01*
X88527712Y105505505D01*
X88552591Y105514406D01*
X88578222Y105520826D01*
X88604359Y105524703D01*
X88630750Y105526000D01*
X89169250Y105526000D01*
X89195641Y105524703D01*
X89195641Y105524703D01*
G37*
D33*
X88900000Y104775000D03*
D24*
G36*
X85439391Y117552703D02*
G01*
X85465528Y117548826D01*
X85491159Y117542406D01*
X85516038Y117533505D01*
X85539924Y117522207D01*
X85562587Y117508623D01*
X85583810Y117492883D01*
X85603389Y117475139D01*
X85621133Y117455560D01*
X85636873Y117434337D01*
X85650457Y117411674D01*
X85661755Y117387788D01*
X85670656Y117362909D01*
X85677076Y117337278D01*
X85680953Y117311141D01*
X85682250Y117284750D01*
X85682250Y116746250D01*
X85680953Y116719859D01*
X85677076Y116693722D01*
X85670656Y116668091D01*
X85661755Y116643212D01*
X85650457Y116619326D01*
X85636873Y116596663D01*
X85621133Y116575440D01*
X85603389Y116555861D01*
X85583810Y116538117D01*
X85562587Y116522377D01*
X85539924Y116508793D01*
X85516038Y116497495D01*
X85491159Y116488594D01*
X85465528Y116482174D01*
X85439391Y116478297D01*
X85413000Y116477000D01*
X84449500Y116477000D01*
X84423109Y116478297D01*
X84396972Y116482174D01*
X84371341Y116488594D01*
X84346462Y116497495D01*
X84322576Y116508793D01*
X84299913Y116522377D01*
X84278690Y116538117D01*
X84259111Y116555861D01*
X84241367Y116575440D01*
X84225627Y116596663D01*
X84212043Y116619326D01*
X84200745Y116643212D01*
X84191844Y116668091D01*
X84185424Y116693722D01*
X84181547Y116719859D01*
X84180250Y116746250D01*
X84180250Y117284750D01*
X84181547Y117311141D01*
X84185424Y117337278D01*
X84191844Y117362909D01*
X84200745Y117387788D01*
X84212043Y117411674D01*
X84225627Y117434337D01*
X84241367Y117455560D01*
X84259111Y117475139D01*
X84278690Y117492883D01*
X84299913Y117508623D01*
X84322576Y117522207D01*
X84346462Y117533505D01*
X84371341Y117542406D01*
X84396972Y117548826D01*
X84423109Y117552703D01*
X84449500Y117554000D01*
X85413000Y117554000D01*
X85439391Y117552703D01*
X85439391Y117552703D01*
G37*
D33*
X84931250Y117015500D03*
D24*
G36*
X85439391Y115677703D02*
G01*
X85465528Y115673826D01*
X85491159Y115667406D01*
X85516038Y115658505D01*
X85539924Y115647207D01*
X85562587Y115633623D01*
X85583810Y115617883D01*
X85603389Y115600139D01*
X85621133Y115580560D01*
X85636873Y115559337D01*
X85650457Y115536674D01*
X85661755Y115512788D01*
X85670656Y115487909D01*
X85677076Y115462278D01*
X85680953Y115436141D01*
X85682250Y115409750D01*
X85682250Y114871250D01*
X85680953Y114844859D01*
X85677076Y114818722D01*
X85670656Y114793091D01*
X85661755Y114768212D01*
X85650457Y114744326D01*
X85636873Y114721663D01*
X85621133Y114700440D01*
X85603389Y114680861D01*
X85583810Y114663117D01*
X85562587Y114647377D01*
X85539924Y114633793D01*
X85516038Y114622495D01*
X85491159Y114613594D01*
X85465528Y114607174D01*
X85439391Y114603297D01*
X85413000Y114602000D01*
X84449500Y114602000D01*
X84423109Y114603297D01*
X84396972Y114607174D01*
X84371341Y114613594D01*
X84346462Y114622495D01*
X84322576Y114633793D01*
X84299913Y114647377D01*
X84278690Y114663117D01*
X84259111Y114680861D01*
X84241367Y114700440D01*
X84225627Y114721663D01*
X84212043Y114744326D01*
X84200745Y114768212D01*
X84191844Y114793091D01*
X84185424Y114818722D01*
X84181547Y114844859D01*
X84180250Y114871250D01*
X84180250Y115409750D01*
X84181547Y115436141D01*
X84185424Y115462278D01*
X84191844Y115487909D01*
X84200745Y115512788D01*
X84212043Y115536674D01*
X84225627Y115559337D01*
X84241367Y115580560D01*
X84259111Y115600139D01*
X84278690Y115617883D01*
X84299913Y115633623D01*
X84322576Y115647207D01*
X84346462Y115658505D01*
X84371341Y115667406D01*
X84396972Y115673826D01*
X84423109Y115677703D01*
X84449500Y115679000D01*
X85413000Y115679000D01*
X85439391Y115677703D01*
X85439391Y115677703D01*
G37*
D33*
X84931250Y115140500D03*
D24*
G36*
X68751891Y103143453D02*
G01*
X68778028Y103139576D01*
X68803659Y103133156D01*
X68828538Y103124255D01*
X68852424Y103112957D01*
X68875087Y103099373D01*
X68896310Y103083633D01*
X68915889Y103065889D01*
X68933633Y103046310D01*
X68949373Y103025087D01*
X68962957Y103002424D01*
X68974255Y102978538D01*
X68983156Y102953659D01*
X68989576Y102928028D01*
X68993453Y102901891D01*
X68994750Y102875500D01*
X68994750Y101912000D01*
X68993453Y101885609D01*
X68989576Y101859472D01*
X68983156Y101833841D01*
X68974255Y101808962D01*
X68962957Y101785076D01*
X68949373Y101762413D01*
X68933633Y101741190D01*
X68915889Y101721611D01*
X68896310Y101703867D01*
X68875087Y101688127D01*
X68852424Y101674543D01*
X68828538Y101663245D01*
X68803659Y101654344D01*
X68778028Y101647924D01*
X68751891Y101644047D01*
X68725500Y101642750D01*
X68187000Y101642750D01*
X68160609Y101644047D01*
X68134472Y101647924D01*
X68108841Y101654344D01*
X68083962Y101663245D01*
X68060076Y101674543D01*
X68037413Y101688127D01*
X68016190Y101703867D01*
X67996611Y101721611D01*
X67978867Y101741190D01*
X67963127Y101762413D01*
X67949543Y101785076D01*
X67938245Y101808962D01*
X67929344Y101833841D01*
X67922924Y101859472D01*
X67919047Y101885609D01*
X67917750Y101912000D01*
X67917750Y102875500D01*
X67919047Y102901891D01*
X67922924Y102928028D01*
X67929344Y102953659D01*
X67938245Y102978538D01*
X67949543Y103002424D01*
X67963127Y103025087D01*
X67978867Y103046310D01*
X67996611Y103065889D01*
X68016190Y103083633D01*
X68037413Y103099373D01*
X68060076Y103112957D01*
X68083962Y103124255D01*
X68108841Y103133156D01*
X68134472Y103139576D01*
X68160609Y103143453D01*
X68187000Y103144750D01*
X68725500Y103144750D01*
X68751891Y103143453D01*
X68751891Y103143453D01*
G37*
D33*
X68456250Y102393750D03*
D24*
G36*
X70626891Y103143453D02*
G01*
X70653028Y103139576D01*
X70678659Y103133156D01*
X70703538Y103124255D01*
X70727424Y103112957D01*
X70750087Y103099373D01*
X70771310Y103083633D01*
X70790889Y103065889D01*
X70808633Y103046310D01*
X70824373Y103025087D01*
X70837957Y103002424D01*
X70849255Y102978538D01*
X70858156Y102953659D01*
X70864576Y102928028D01*
X70868453Y102901891D01*
X70869750Y102875500D01*
X70869750Y101912000D01*
X70868453Y101885609D01*
X70864576Y101859472D01*
X70858156Y101833841D01*
X70849255Y101808962D01*
X70837957Y101785076D01*
X70824373Y101762413D01*
X70808633Y101741190D01*
X70790889Y101721611D01*
X70771310Y101703867D01*
X70750087Y101688127D01*
X70727424Y101674543D01*
X70703538Y101663245D01*
X70678659Y101654344D01*
X70653028Y101647924D01*
X70626891Y101644047D01*
X70600500Y101642750D01*
X70062000Y101642750D01*
X70035609Y101644047D01*
X70009472Y101647924D01*
X69983841Y101654344D01*
X69958962Y101663245D01*
X69935076Y101674543D01*
X69912413Y101688127D01*
X69891190Y101703867D01*
X69871611Y101721611D01*
X69853867Y101741190D01*
X69838127Y101762413D01*
X69824543Y101785076D01*
X69813245Y101808962D01*
X69804344Y101833841D01*
X69797924Y101859472D01*
X69794047Y101885609D01*
X69792750Y101912000D01*
X69792750Y102875500D01*
X69794047Y102901891D01*
X69797924Y102928028D01*
X69804344Y102953659D01*
X69813245Y102978538D01*
X69824543Y103002424D01*
X69838127Y103025087D01*
X69853867Y103046310D01*
X69871611Y103065889D01*
X69891190Y103083633D01*
X69912413Y103099373D01*
X69935076Y103112957D01*
X69958962Y103124255D01*
X69983841Y103133156D01*
X70009472Y103139576D01*
X70035609Y103143453D01*
X70062000Y103144750D01*
X70600500Y103144750D01*
X70626891Y103143453D01*
X70626891Y103143453D01*
G37*
D33*
X70331250Y102393750D03*
D24*
G36*
X78083141Y91237203D02*
G01*
X78109278Y91233326D01*
X78134909Y91226906D01*
X78159788Y91218005D01*
X78183674Y91206707D01*
X78206337Y91193123D01*
X78227560Y91177383D01*
X78247139Y91159639D01*
X78264883Y91140060D01*
X78280623Y91118837D01*
X78294207Y91096174D01*
X78305505Y91072288D01*
X78314406Y91047409D01*
X78320826Y91021778D01*
X78324703Y90995641D01*
X78326000Y90969250D01*
X78326000Y90005750D01*
X78324703Y89979359D01*
X78320826Y89953222D01*
X78314406Y89927591D01*
X78305505Y89902712D01*
X78294207Y89878826D01*
X78280623Y89856163D01*
X78264883Y89834940D01*
X78247139Y89815361D01*
X78227560Y89797617D01*
X78206337Y89781877D01*
X78183674Y89768293D01*
X78159788Y89756995D01*
X78134909Y89748094D01*
X78109278Y89741674D01*
X78083141Y89737797D01*
X78056750Y89736500D01*
X77518250Y89736500D01*
X77491859Y89737797D01*
X77465722Y89741674D01*
X77440091Y89748094D01*
X77415212Y89756995D01*
X77391326Y89768293D01*
X77368663Y89781877D01*
X77347440Y89797617D01*
X77327861Y89815361D01*
X77310117Y89834940D01*
X77294377Y89856163D01*
X77280793Y89878826D01*
X77269495Y89902712D01*
X77260594Y89927591D01*
X77254174Y89953222D01*
X77250297Y89979359D01*
X77249000Y90005750D01*
X77249000Y90969250D01*
X77250297Y90995641D01*
X77254174Y91021778D01*
X77260594Y91047409D01*
X77269495Y91072288D01*
X77280793Y91096174D01*
X77294377Y91118837D01*
X77310117Y91140060D01*
X77327861Y91159639D01*
X77347440Y91177383D01*
X77368663Y91193123D01*
X77391326Y91206707D01*
X77415212Y91218005D01*
X77440091Y91226906D01*
X77465722Y91233326D01*
X77491859Y91237203D01*
X77518250Y91238500D01*
X78056750Y91238500D01*
X78083141Y91237203D01*
X78083141Y91237203D01*
G37*
D33*
X77787500Y90487500D03*
D24*
G36*
X79958141Y91237203D02*
G01*
X79984278Y91233326D01*
X80009909Y91226906D01*
X80034788Y91218005D01*
X80058674Y91206707D01*
X80081337Y91193123D01*
X80102560Y91177383D01*
X80122139Y91159639D01*
X80139883Y91140060D01*
X80155623Y91118837D01*
X80169207Y91096174D01*
X80180505Y91072288D01*
X80189406Y91047409D01*
X80195826Y91021778D01*
X80199703Y90995641D01*
X80201000Y90969250D01*
X80201000Y90005750D01*
X80199703Y89979359D01*
X80195826Y89953222D01*
X80189406Y89927591D01*
X80180505Y89902712D01*
X80169207Y89878826D01*
X80155623Y89856163D01*
X80139883Y89834940D01*
X80122139Y89815361D01*
X80102560Y89797617D01*
X80081337Y89781877D01*
X80058674Y89768293D01*
X80034788Y89756995D01*
X80009909Y89748094D01*
X79984278Y89741674D01*
X79958141Y89737797D01*
X79931750Y89736500D01*
X79393250Y89736500D01*
X79366859Y89737797D01*
X79340722Y89741674D01*
X79315091Y89748094D01*
X79290212Y89756995D01*
X79266326Y89768293D01*
X79243663Y89781877D01*
X79222440Y89797617D01*
X79202861Y89815361D01*
X79185117Y89834940D01*
X79169377Y89856163D01*
X79155793Y89878826D01*
X79144495Y89902712D01*
X79135594Y89927591D01*
X79129174Y89953222D01*
X79125297Y89979359D01*
X79124000Y90005750D01*
X79124000Y90969250D01*
X79125297Y90995641D01*
X79129174Y91021778D01*
X79135594Y91047409D01*
X79144495Y91072288D01*
X79155793Y91096174D01*
X79169377Y91118837D01*
X79185117Y91140060D01*
X79202861Y91159639D01*
X79222440Y91177383D01*
X79243663Y91193123D01*
X79266326Y91206707D01*
X79290212Y91218005D01*
X79315091Y91226906D01*
X79340722Y91233326D01*
X79366859Y91237203D01*
X79393250Y91238500D01*
X79931750Y91238500D01*
X79958141Y91237203D01*
X79958141Y91237203D01*
G37*
D33*
X79662500Y90487500D03*
D24*
G36*
X75120641Y94055953D02*
G01*
X75146778Y94052076D01*
X75172409Y94045656D01*
X75197288Y94036755D01*
X75221174Y94025457D01*
X75243837Y94011873D01*
X75265060Y93996133D01*
X75284639Y93978389D01*
X75302383Y93958810D01*
X75318123Y93937587D01*
X75331707Y93914924D01*
X75343005Y93891038D01*
X75351906Y93866159D01*
X75358326Y93840528D01*
X75362203Y93814391D01*
X75363500Y93788000D01*
X75363500Y93249500D01*
X75362203Y93223109D01*
X75358326Y93196972D01*
X75351906Y93171341D01*
X75343005Y93146462D01*
X75331707Y93122576D01*
X75318123Y93099913D01*
X75302383Y93078690D01*
X75284639Y93059111D01*
X75265060Y93041367D01*
X75243837Y93025627D01*
X75221174Y93012043D01*
X75197288Y93000745D01*
X75172409Y92991844D01*
X75146778Y92985424D01*
X75120641Y92981547D01*
X75094250Y92980250D01*
X74130750Y92980250D01*
X74104359Y92981547D01*
X74078222Y92985424D01*
X74052591Y92991844D01*
X74027712Y93000745D01*
X74003826Y93012043D01*
X73981163Y93025627D01*
X73959940Y93041367D01*
X73940361Y93059111D01*
X73922617Y93078690D01*
X73906877Y93099913D01*
X73893293Y93122576D01*
X73881995Y93146462D01*
X73873094Y93171341D01*
X73866674Y93196972D01*
X73862797Y93223109D01*
X73861500Y93249500D01*
X73861500Y93788000D01*
X73862797Y93814391D01*
X73866674Y93840528D01*
X73873094Y93866159D01*
X73881995Y93891038D01*
X73893293Y93914924D01*
X73906877Y93937587D01*
X73922617Y93958810D01*
X73940361Y93978389D01*
X73959940Y93996133D01*
X73981163Y94011873D01*
X74003826Y94025457D01*
X74027712Y94036755D01*
X74052591Y94045656D01*
X74078222Y94052076D01*
X74104359Y94055953D01*
X74130750Y94057250D01*
X75094250Y94057250D01*
X75120641Y94055953D01*
X75120641Y94055953D01*
G37*
D33*
X74612500Y93518750D03*
D24*
G36*
X75120641Y95930953D02*
G01*
X75146778Y95927076D01*
X75172409Y95920656D01*
X75197288Y95911755D01*
X75221174Y95900457D01*
X75243837Y95886873D01*
X75265060Y95871133D01*
X75284639Y95853389D01*
X75302383Y95833810D01*
X75318123Y95812587D01*
X75331707Y95789924D01*
X75343005Y95766038D01*
X75351906Y95741159D01*
X75358326Y95715528D01*
X75362203Y95689391D01*
X75363500Y95663000D01*
X75363500Y95124500D01*
X75362203Y95098109D01*
X75358326Y95071972D01*
X75351906Y95046341D01*
X75343005Y95021462D01*
X75331707Y94997576D01*
X75318123Y94974913D01*
X75302383Y94953690D01*
X75284639Y94934111D01*
X75265060Y94916367D01*
X75243837Y94900627D01*
X75221174Y94887043D01*
X75197288Y94875745D01*
X75172409Y94866844D01*
X75146778Y94860424D01*
X75120641Y94856547D01*
X75094250Y94855250D01*
X74130750Y94855250D01*
X74104359Y94856547D01*
X74078222Y94860424D01*
X74052591Y94866844D01*
X74027712Y94875745D01*
X74003826Y94887043D01*
X73981163Y94900627D01*
X73959940Y94916367D01*
X73940361Y94934111D01*
X73922617Y94953690D01*
X73906877Y94974913D01*
X73893293Y94997576D01*
X73881995Y95021462D01*
X73873094Y95046341D01*
X73866674Y95071972D01*
X73862797Y95098109D01*
X73861500Y95124500D01*
X73861500Y95663000D01*
X73862797Y95689391D01*
X73866674Y95715528D01*
X73873094Y95741159D01*
X73881995Y95766038D01*
X73893293Y95789924D01*
X73906877Y95812587D01*
X73922617Y95833810D01*
X73940361Y95853389D01*
X73959940Y95871133D01*
X73981163Y95886873D01*
X74003826Y95900457D01*
X74027712Y95911755D01*
X74052591Y95920656D01*
X74078222Y95927076D01*
X74104359Y95930953D01*
X74130750Y95932250D01*
X75094250Y95932250D01*
X75120641Y95930953D01*
X75120641Y95930953D01*
G37*
D33*
X74612500Y95393750D03*
D24*
G36*
X91070641Y103143453D02*
G01*
X91096778Y103139576D01*
X91122409Y103133156D01*
X91147288Y103124255D01*
X91171174Y103112957D01*
X91193837Y103099373D01*
X91215060Y103083633D01*
X91234639Y103065889D01*
X91252383Y103046310D01*
X91268123Y103025087D01*
X91281707Y103002424D01*
X91293005Y102978538D01*
X91301906Y102953659D01*
X91308326Y102928028D01*
X91312203Y102901891D01*
X91313500Y102875500D01*
X91313500Y101912000D01*
X91312203Y101885609D01*
X91308326Y101859472D01*
X91301906Y101833841D01*
X91293005Y101808962D01*
X91281707Y101785076D01*
X91268123Y101762413D01*
X91252383Y101741190D01*
X91234639Y101721611D01*
X91215060Y101703867D01*
X91193837Y101688127D01*
X91171174Y101674543D01*
X91147288Y101663245D01*
X91122409Y101654344D01*
X91096778Y101647924D01*
X91070641Y101644047D01*
X91044250Y101642750D01*
X90505750Y101642750D01*
X90479359Y101644047D01*
X90453222Y101647924D01*
X90427591Y101654344D01*
X90402712Y101663245D01*
X90378826Y101674543D01*
X90356163Y101688127D01*
X90334940Y101703867D01*
X90315361Y101721611D01*
X90297617Y101741190D01*
X90281877Y101762413D01*
X90268293Y101785076D01*
X90256995Y101808962D01*
X90248094Y101833841D01*
X90241674Y101859472D01*
X90237797Y101885609D01*
X90236500Y101912000D01*
X90236500Y102875500D01*
X90237797Y102901891D01*
X90241674Y102928028D01*
X90248094Y102953659D01*
X90256995Y102978538D01*
X90268293Y103002424D01*
X90281877Y103025087D01*
X90297617Y103046310D01*
X90315361Y103065889D01*
X90334940Y103083633D01*
X90356163Y103099373D01*
X90378826Y103112957D01*
X90402712Y103124255D01*
X90427591Y103133156D01*
X90453222Y103139576D01*
X90479359Y103143453D01*
X90505750Y103144750D01*
X91044250Y103144750D01*
X91070641Y103143453D01*
X91070641Y103143453D01*
G37*
D33*
X90775000Y102393750D03*
D24*
G36*
X89195641Y103143453D02*
G01*
X89221778Y103139576D01*
X89247409Y103133156D01*
X89272288Y103124255D01*
X89296174Y103112957D01*
X89318837Y103099373D01*
X89340060Y103083633D01*
X89359639Y103065889D01*
X89377383Y103046310D01*
X89393123Y103025087D01*
X89406707Y103002424D01*
X89418005Y102978538D01*
X89426906Y102953659D01*
X89433326Y102928028D01*
X89437203Y102901891D01*
X89438500Y102875500D01*
X89438500Y101912000D01*
X89437203Y101885609D01*
X89433326Y101859472D01*
X89426906Y101833841D01*
X89418005Y101808962D01*
X89406707Y101785076D01*
X89393123Y101762413D01*
X89377383Y101741190D01*
X89359639Y101721611D01*
X89340060Y101703867D01*
X89318837Y101688127D01*
X89296174Y101674543D01*
X89272288Y101663245D01*
X89247409Y101654344D01*
X89221778Y101647924D01*
X89195641Y101644047D01*
X89169250Y101642750D01*
X88630750Y101642750D01*
X88604359Y101644047D01*
X88578222Y101647924D01*
X88552591Y101654344D01*
X88527712Y101663245D01*
X88503826Y101674543D01*
X88481163Y101688127D01*
X88459940Y101703867D01*
X88440361Y101721611D01*
X88422617Y101741190D01*
X88406877Y101762413D01*
X88393293Y101785076D01*
X88381995Y101808962D01*
X88373094Y101833841D01*
X88366674Y101859472D01*
X88362797Y101885609D01*
X88361500Y101912000D01*
X88361500Y102875500D01*
X88362797Y102901891D01*
X88366674Y102928028D01*
X88373094Y102953659D01*
X88381995Y102978538D01*
X88393293Y103002424D01*
X88406877Y103025087D01*
X88422617Y103046310D01*
X88440361Y103065889D01*
X88459940Y103083633D01*
X88481163Y103099373D01*
X88503826Y103112957D01*
X88527712Y103124255D01*
X88552591Y103133156D01*
X88578222Y103139576D01*
X88604359Y103143453D01*
X88630750Y103144750D01*
X89169250Y103144750D01*
X89195641Y103143453D01*
X89195641Y103143453D01*
G37*
D33*
X88900000Y102393750D03*
D24*
G36*
X84645641Y94355953D02*
G01*
X84671778Y94352076D01*
X84697409Y94345656D01*
X84722288Y94336755D01*
X84746174Y94325457D01*
X84768837Y94311873D01*
X84790060Y94296133D01*
X84809639Y94278389D01*
X84827383Y94258810D01*
X84843123Y94237587D01*
X84856707Y94214924D01*
X84868005Y94191038D01*
X84876906Y94166159D01*
X84883326Y94140528D01*
X84887203Y94114391D01*
X84888500Y94088000D01*
X84888500Y93549500D01*
X84887203Y93523109D01*
X84883326Y93496972D01*
X84876906Y93471341D01*
X84868005Y93446462D01*
X84856707Y93422576D01*
X84843123Y93399913D01*
X84827383Y93378690D01*
X84809639Y93359111D01*
X84790060Y93341367D01*
X84768837Y93325627D01*
X84746174Y93312043D01*
X84722288Y93300745D01*
X84697409Y93291844D01*
X84671778Y93285424D01*
X84645641Y93281547D01*
X84619250Y93280250D01*
X83655750Y93280250D01*
X83629359Y93281547D01*
X83603222Y93285424D01*
X83577591Y93291844D01*
X83552712Y93300745D01*
X83528826Y93312043D01*
X83506163Y93325627D01*
X83484940Y93341367D01*
X83465361Y93359111D01*
X83447617Y93378690D01*
X83431877Y93399913D01*
X83418293Y93422576D01*
X83406995Y93446462D01*
X83398094Y93471341D01*
X83391674Y93496972D01*
X83387797Y93523109D01*
X83386500Y93549500D01*
X83386500Y94088000D01*
X83387797Y94114391D01*
X83391674Y94140528D01*
X83398094Y94166159D01*
X83406995Y94191038D01*
X83418293Y94214924D01*
X83431877Y94237587D01*
X83447617Y94258810D01*
X83465361Y94278389D01*
X83484940Y94296133D01*
X83506163Y94311873D01*
X83528826Y94325457D01*
X83552712Y94336755D01*
X83577591Y94345656D01*
X83603222Y94352076D01*
X83629359Y94355953D01*
X83655750Y94357250D01*
X84619250Y94357250D01*
X84645641Y94355953D01*
X84645641Y94355953D01*
G37*
D33*
X84137500Y93818750D03*
D24*
G36*
X84645641Y96230953D02*
G01*
X84671778Y96227076D01*
X84697409Y96220656D01*
X84722288Y96211755D01*
X84746174Y96200457D01*
X84768837Y96186873D01*
X84790060Y96171133D01*
X84809639Y96153389D01*
X84827383Y96133810D01*
X84843123Y96112587D01*
X84856707Y96089924D01*
X84868005Y96066038D01*
X84876906Y96041159D01*
X84883326Y96015528D01*
X84887203Y95989391D01*
X84888500Y95963000D01*
X84888500Y95424500D01*
X84887203Y95398109D01*
X84883326Y95371972D01*
X84876906Y95346341D01*
X84868005Y95321462D01*
X84856707Y95297576D01*
X84843123Y95274913D01*
X84827383Y95253690D01*
X84809639Y95234111D01*
X84790060Y95216367D01*
X84768837Y95200627D01*
X84746174Y95187043D01*
X84722288Y95175745D01*
X84697409Y95166844D01*
X84671778Y95160424D01*
X84645641Y95156547D01*
X84619250Y95155250D01*
X83655750Y95155250D01*
X83629359Y95156547D01*
X83603222Y95160424D01*
X83577591Y95166844D01*
X83552712Y95175745D01*
X83528826Y95187043D01*
X83506163Y95200627D01*
X83484940Y95216367D01*
X83465361Y95234111D01*
X83447617Y95253690D01*
X83431877Y95274913D01*
X83418293Y95297576D01*
X83406995Y95321462D01*
X83398094Y95346341D01*
X83391674Y95371972D01*
X83387797Y95398109D01*
X83386500Y95424500D01*
X83386500Y95963000D01*
X83387797Y95989391D01*
X83391674Y96015528D01*
X83398094Y96041159D01*
X83406995Y96066038D01*
X83418293Y96089924D01*
X83431877Y96112587D01*
X83447617Y96133810D01*
X83465361Y96153389D01*
X83484940Y96171133D01*
X83506163Y96186873D01*
X83528826Y96200457D01*
X83552712Y96211755D01*
X83577591Y96220656D01*
X83603222Y96227076D01*
X83629359Y96230953D01*
X83655750Y96232250D01*
X84619250Y96232250D01*
X84645641Y96230953D01*
X84645641Y96230953D01*
G37*
D33*
X84137500Y95693750D03*
D24*
G36*
X75120641Y116568453D02*
G01*
X75146778Y116564576D01*
X75172409Y116558156D01*
X75197288Y116549255D01*
X75221174Y116537957D01*
X75243837Y116524373D01*
X75265060Y116508633D01*
X75284639Y116490889D01*
X75302383Y116471310D01*
X75318123Y116450087D01*
X75331707Y116427424D01*
X75343005Y116403538D01*
X75351906Y116378659D01*
X75358326Y116353028D01*
X75362203Y116326891D01*
X75363500Y116300500D01*
X75363500Y115762000D01*
X75362203Y115735609D01*
X75358326Y115709472D01*
X75351906Y115683841D01*
X75343005Y115658962D01*
X75331707Y115635076D01*
X75318123Y115612413D01*
X75302383Y115591190D01*
X75284639Y115571611D01*
X75265060Y115553867D01*
X75243837Y115538127D01*
X75221174Y115524543D01*
X75197288Y115513245D01*
X75172409Y115504344D01*
X75146778Y115497924D01*
X75120641Y115494047D01*
X75094250Y115492750D01*
X74130750Y115492750D01*
X74104359Y115494047D01*
X74078222Y115497924D01*
X74052591Y115504344D01*
X74027712Y115513245D01*
X74003826Y115524543D01*
X73981163Y115538127D01*
X73959940Y115553867D01*
X73940361Y115571611D01*
X73922617Y115591190D01*
X73906877Y115612413D01*
X73893293Y115635076D01*
X73881995Y115658962D01*
X73873094Y115683841D01*
X73866674Y115709472D01*
X73862797Y115735609D01*
X73861500Y115762000D01*
X73861500Y116300500D01*
X73862797Y116326891D01*
X73866674Y116353028D01*
X73873094Y116378659D01*
X73881995Y116403538D01*
X73893293Y116427424D01*
X73906877Y116450087D01*
X73922617Y116471310D01*
X73940361Y116490889D01*
X73959940Y116508633D01*
X73981163Y116524373D01*
X74003826Y116537957D01*
X74027712Y116549255D01*
X74052591Y116558156D01*
X74078222Y116564576D01*
X74104359Y116568453D01*
X74130750Y116569750D01*
X75094250Y116569750D01*
X75120641Y116568453D01*
X75120641Y116568453D01*
G37*
D33*
X74612500Y116031250D03*
D24*
G36*
X75120641Y114693453D02*
G01*
X75146778Y114689576D01*
X75172409Y114683156D01*
X75197288Y114674255D01*
X75221174Y114662957D01*
X75243837Y114649373D01*
X75265060Y114633633D01*
X75284639Y114615889D01*
X75302383Y114596310D01*
X75318123Y114575087D01*
X75331707Y114552424D01*
X75343005Y114528538D01*
X75351906Y114503659D01*
X75358326Y114478028D01*
X75362203Y114451891D01*
X75363500Y114425500D01*
X75363500Y113887000D01*
X75362203Y113860609D01*
X75358326Y113834472D01*
X75351906Y113808841D01*
X75343005Y113783962D01*
X75331707Y113760076D01*
X75318123Y113737413D01*
X75302383Y113716190D01*
X75284639Y113696611D01*
X75265060Y113678867D01*
X75243837Y113663127D01*
X75221174Y113649543D01*
X75197288Y113638245D01*
X75172409Y113629344D01*
X75146778Y113622924D01*
X75120641Y113619047D01*
X75094250Y113617750D01*
X74130750Y113617750D01*
X74104359Y113619047D01*
X74078222Y113622924D01*
X74052591Y113629344D01*
X74027712Y113638245D01*
X74003826Y113649543D01*
X73981163Y113663127D01*
X73959940Y113678867D01*
X73940361Y113696611D01*
X73922617Y113716190D01*
X73906877Y113737413D01*
X73893293Y113760076D01*
X73881995Y113783962D01*
X73873094Y113808841D01*
X73866674Y113834472D01*
X73862797Y113860609D01*
X73861500Y113887000D01*
X73861500Y114425500D01*
X73862797Y114451891D01*
X73866674Y114478028D01*
X73873094Y114503659D01*
X73881995Y114528538D01*
X73893293Y114552424D01*
X73906877Y114575087D01*
X73922617Y114596310D01*
X73940361Y114615889D01*
X73959940Y114633633D01*
X73981163Y114649373D01*
X74003826Y114662957D01*
X74027712Y114674255D01*
X74052591Y114683156D01*
X74078222Y114689576D01*
X74104359Y114693453D01*
X74130750Y114694750D01*
X75094250Y114694750D01*
X75120641Y114693453D01*
X75120641Y114693453D01*
G37*
D33*
X74612500Y114156250D03*
M02*
