M48
; DRILL file {KiCad (5.1.4)-1} date 1/29/2022 10:43:03 PM
; FORMAT={-:-/ absolute / metric / decimal}
; #@! TF.CreationDate,2022-01-29T22:43:03-05:00
; #@! TF.GenerationSoftware,Kicad,Pcbnew,(5.1.4)-1
; #@! TF.FileFunction,NonPlated,1,2,NPTH
FMAT,2
METRIC
T1C1.750
T2C2.400
T3C6.500
%
G90
G05
T3
X41.17Y147.364
X52.793Y125.412
X41.457Y-20.652
X110.223Y125.412
X190.68Y295.202
X-12.562Y284.376
X181.68Y266.759
X162.19Y264.278
X-28.68Y295.202
X128.466Y297.029
X149.818Y244.18
X-7.308Y246.661
X34.052Y129.748
X95.988Y160.645
X169.308Y246.661
X103.106Y143.028
X48.287Y164.981
X121.559Y-20.652
X155.073Y281.894
X142.701Y261.796
X-5.445Y301.992
X174.562Y284.376
X12.182Y244.18
X-19.68Y266.759
X19.299Y261.796
X-21.563Y312.819
X128.964Y129.748
X33.534Y297.029
X67.028Y160.645
X114.729Y164.981
X26.283Y-9.218
X-0.19Y264.278
X59.91Y143.028
X136.733Y-9.218
X183.563Y312.819
X135.583Y279.413
X14.045Y299.511
X147.955Y299.511
X6.927Y281.894
X197.798Y277.586
X-35.798Y277.586
X26.417Y279.413
X121.815Y147.44
X167.445Y301.992
T1
X-17.65Y286.432G85X-17.256Y286.272
G05
X-7.868Y282.479G85X-7.474Y282.32
G05
X176.592Y264.704G85X176.986Y264.863
G05
X186.374Y268.656G85X186.768Y268.815
G05
X157.102Y262.222G85X157.496Y262.381
G05
X166.884Y266.174G85X167.278Y266.333
G05
X-33.768Y297.258G85X-33.374Y297.099
G05
X-23.986Y293.306G85X-23.592Y293.146
G05
X123.378Y294.973G85X123.772Y295.133
G05
X133.159Y298.926G85X133.553Y299.085
G05
X144.73Y242.124G85X145.124Y242.283
G05
X154.512Y246.076G85X154.906Y246.235
G05
X-12.396Y248.717G85X-12.002Y248.558
G05
X-2.614Y244.765G85X-2.22Y244.606
G05
X28.964Y131.804G85X29.359Y131.644
G05
X38.746Y127.852G85X39.14Y127.692
G05
X90.9Y158.589G85X91.294Y158.749
G05
X100.682Y162.541G85X101.076Y162.701
G05
X164.22Y244.606G85X164.614Y244.765
G05
X174.002Y248.558G85X174.396Y248.717
G05
X98.018Y140.973G85X98.412Y141.132
G05
X107.8Y144.925G85X108.194Y145.084
G05
X43.2Y167.037G85X43.594Y166.877
G05
X52.981Y163.085G85X53.375Y162.925
G05
X117.176Y-23.955G85X117.516Y-23.699
G05
X125.602Y-17.606G85X125.941Y-17.35
G05
X149.985Y279.839G85X150.379Y279.998
G05
X159.766Y283.791G85X160.161Y283.95
G05
X137.613Y259.74G85X138.007Y259.9
G05
X147.394Y263.693G85X147.789Y263.852
G05
X-10.533Y304.048G85X-10.138Y303.889
G05
X-0.751Y300.096G85X-0.357Y299.937
G05
X169.474Y282.32G85X169.868Y282.479
G05
X179.256Y286.272G85X179.65Y286.432
G05
X7.094Y246.235G85X7.488Y246.076
G05
X16.876Y242.283G85X17.27Y242.124
G05
X-24.768Y268.815G85X-24.374Y268.656
G05
X-14.986Y264.863G85X-14.592Y264.704
G05
X14.211Y263.852G85X14.606Y263.693
G05
X23.993Y259.9G85X24.387Y259.74
G05
X-26.651Y314.874G85X-26.257Y314.715
G05
X-16.869Y310.922G85X-16.475Y310.763
G05
X123.876Y127.692G85X124.27Y127.852
G05
X133.657Y131.644G85X134.052Y131.804
G05
X28.447Y299.085G85X28.841Y298.926
G05
X38.228Y295.133G85X38.622Y294.973
G05
X61.94Y162.701G85X62.334Y162.541
G05
X71.722Y158.749G85X72.116Y158.589
G05
X109.641Y162.925G85X110.035Y163.085
G05
X119.422Y166.877G85X119.816Y167.037
G05
X21.901Y-5.916G85X22.24Y-6.171
G05
X30.326Y-12.265G85X30.666Y-12.52
G05
X-5.278Y266.333G85X-4.884Y266.174
G05
X4.504Y262.381G85X4.898Y262.222
G05
X54.822Y145.084G85X55.216Y144.925
G05
X64.604Y141.132G85X64.998Y140.973
G05
X132.35Y-12.52G85X132.69Y-12.265
G05
X140.776Y-6.171G85X141.115Y-5.916
G05
X178.475Y310.763G85X178.869Y310.922
G05
X188.257Y314.715G85X188.651Y314.874
G05
X130.495Y277.357G85X130.889Y277.516
G05
X140.277Y281.309G85X140.671Y281.468
G05
X8.957Y301.566G85X9.351Y301.407
G05
X18.739Y297.614G85X19.133Y297.455
G05
X142.867Y297.455G85X143.261Y297.614
G05
X152.649Y301.407G85X153.043Y301.566
G05
X1.839Y283.95G85X2.234Y283.791
G05
X11.621Y279.998G85X12.015Y279.839
G05
X192.71Y275.53G85X193.104Y275.689
G05
X202.492Y279.482G85X202.886Y279.641
G05
X-40.886Y279.641G85X-40.492Y279.482
G05
X-31.104Y275.689G85X-30.71Y275.53
G05
X21.329Y281.468G85X21.723Y281.309
G05
X31.111Y277.516G85X31.505Y277.357
G05
X116.727Y145.385G85X117.121Y145.544
G05
X126.509Y149.337G85X126.903Y149.496
G05
X162.357Y299.937G85X162.751Y300.096
G05
X172.138Y303.889G85X172.533Y304.048
G05
X36.082Y149.42G85X36.476Y149.261
G05
X45.864Y145.468G85X46.258Y145.309
G05
X47.705Y127.468G85X48.099Y127.308
G05
X57.487Y123.516G85X57.881Y123.356
G05
X37.075Y-17.35G85X37.414Y-17.606
G05
X45.5Y-23.699G85X45.84Y-23.955
G05
X105.135Y123.356G85X105.529Y123.516
G05
X114.917Y127.308G85X115.311Y127.468
G05
X185.592Y293.146G85X185.986Y293.306
G05
X195.374Y297.099G85X195.768Y297.258
G05
T2
X-13.959Y280.918G85X-13.734Y281.475
G05
X183.077Y263.302G85X182.852Y263.858
G05
X163.587Y260.82G85X163.362Y261.377
G05
X-30.077Y291.745G85X-29.852Y292.301
G05
X129.862Y293.572G85X129.638Y294.128
G05
X151.215Y240.722G85X150.99Y241.278
G05
X-8.705Y243.204G85X-8.48Y243.76
G05
X32.656Y126.29G85X32.88Y126.847
G05
X97.385Y157.188G85X97.16Y157.744
G05
X170.705Y243.204G85X170.48Y243.76
G05
X104.503Y139.571G85X104.278Y140.127
G05
X46.891Y161.523G85X47.115Y162.08
G05
X123.803Y-23.631G85X123.442Y-23.151
G05
X156.47Y278.437G85X156.245Y278.993
G05
X144.098Y258.339G85X143.873Y258.895
G05
X-6.842Y298.535G85X-6.617Y299.091
G05
X175.959Y280.918G85X175.734Y281.475
G05
X10.785Y240.722G85X11.01Y241.278
G05
X-21.077Y263.302G85X-20.852Y263.858
G05
X17.902Y258.339G85X18.127Y258.895
G05
X-22.96Y309.361G85X-22.735Y309.917
G05
X130.36Y126.29G85X130.136Y126.847
G05
X32.138Y293.572G85X32.362Y294.128
G05
X65.631Y157.188G85X65.856Y157.744
G05
X116.125Y161.523G85X115.901Y162.08
G05
X24.039Y-12.196G85X24.4Y-11.717
G05
X-1.587Y260.82G85X-1.362Y261.377
G05
X58.513Y139.571G85X58.738Y140.127
G05
X138.977Y-12.196G85X138.616Y-11.717
G05
X184.96Y309.361G85X184.735Y309.917
G05
X136.98Y275.955G85X136.755Y276.511
G05
X12.648Y296.053G85X12.873Y296.61
G05
X149.352Y296.053G85X149.127Y296.61
G05
X5.53Y278.437G85X5.755Y278.993
G05
X199.195Y274.128G85X198.97Y274.684
G05
X-37.195Y274.128G85X-36.97Y274.684
G05
X25.02Y275.955G85X25.245Y276.511
G05
X123.212Y143.983G85X122.987Y144.539
G05
X168.842Y298.535G85X168.617Y299.091
G05
X39.773Y143.907G85X39.998Y144.463
G05
X51.396Y121.955G85X51.621Y122.511
G05
X39.213Y-23.631G85X39.574Y-23.151
G05
X111.62Y121.955G85X111.395Y122.511
G05
X192.077Y291.745G85X191.852Y292.301
G05
T0
M30
