M48
; DRILL file {KiCad (5.1.4)-1} date 1/29/2022 10:25:16 PM
; FORMAT={-:-/ absolute / inch / decimal}
; #@! TF.CreationDate,2022-01-29T22:25:16-05:00
; #@! TF.GenerationSoftware,Kicad,Pcbnew,(5.1.4)-1
; #@! TF.FileFunction,Plated,1,2,PTH
FMAT,2
INCH
T1C0.0157
T2C0.0276
T3C0.0394
T4C0.0472
T5C0.0630
%
G90
G05
T1
X1.45Y4.165
X1.45Y4.165
X1.77Y3.99
X1.7918Y4.0228
X1.82Y4.0823
X1.8285Y4.0385
X1.94Y4.08
X1.94Y4.24
X2.0923Y6.1815
X2.1225Y6.2115
X2.18Y4.18
X2.28Y4.27
X2.28Y4.13
X2.4198Y4.0902
X2.53Y5.26
X2.58Y3.88
X2.58Y3.88
X2.6143Y4.8243
X2.63Y3.91
X2.65Y4.3
X2.7812Y4.0811
X2.84Y4.77
X2.8545Y4.4943
X2.88Y4.57
X3.0Y5.75
X3.01Y6.18
X3.09Y5.96
X3.1057Y5.8744
X3.1926Y4.6875
X3.26Y4.8771
X3.2876Y5.9125
X3.29Y4.48
X3.3231Y5.8009
X3.3376Y5.8375
X3.3426Y5.955
X3.4024Y4.6976
X3.41Y6.14
X3.4126Y4.5125
X3.4126Y3.8225
X3.4126Y3.8225
X3.4446Y4.2901
X3.46Y6.52
X3.4794Y6.4607
X3.48Y4.25
X3.5Y3.9375
X3.5096Y6.3898
X3.56Y4.37
X3.5602Y4.7602
X3.57Y4.72
X3.609Y3.909
X3.77Y5.96
X3.8576Y5.9772
X5.2591Y4.5909
X5.29Y4.38
T3
X1.7739Y3.5213
X1.834Y3.6011
X1.8942Y3.681
X1.9544Y3.7609
X0.6539Y4.3513
X0.714Y4.4311
X0.7742Y4.511
X0.8344Y4.5909
X5.1591Y3.7436
X5.239Y3.8037
X5.3189Y3.8639
X5.3987Y3.9241
X4.7184Y11.3778
X4.7559Y11.2851
X4.7933Y11.1923
X4.8308Y11.0996
X4.8682Y11.0069
X4.9057Y10.9142
X4.9432Y10.8215
X4.9806Y10.7288
X5.0181Y10.636
X5.0555Y10.5433
X5.093Y10.4506
X5.1305Y10.3579
X5.1679Y10.2652
X5.2054Y10.1724
X5.2429Y10.0797
X5.2803Y9.987
X5.3178Y9.8943
X5.3552Y9.8016
X1.0204Y3.9205
X1.1003Y3.8604
X1.1801Y3.8002
X1.26Y3.74
X4.4636Y-0.9291
X4.5251Y-1.0079
X4.5867Y-1.0867
X4.6482Y-1.1655
X5.5836Y-0.0891
X5.6451Y-0.1679
X5.7067Y-0.2467
X5.7682Y-0.3255
X0.6497Y-0.3255
X0.7113Y-0.2467
X0.7728Y-0.1679
X0.8344Y-0.0891
X4.7408Y6.7819
X4.7782Y6.6892
X4.8157Y6.5965
X4.8531Y6.5038
X4.8906Y6.4111
X4.9281Y6.3184
X4.9655Y6.2256
X5.003Y6.1329
X5.0404Y6.0402
X5.0779Y5.9475
X5.1154Y5.8548
X5.1528Y5.762
X5.1903Y5.6693
X5.2277Y5.5766
X5.2652Y5.4839
X5.3027Y5.3912
X5.3401Y5.2985
X5.3776Y5.2057
X1.0204Y9.7957
X1.0578Y9.8885
X1.0953Y9.9812
X1.1327Y10.0739
X1.1702Y10.1666
X1.2077Y10.2593
X1.2451Y10.352
X1.2826Y10.4448
X1.32Y10.5375
X1.3575Y10.6302
X1.395Y10.7229
X1.4324Y10.8156
X1.4699Y10.9084
X1.5073Y11.0011
X1.5448Y11.0938
X1.5823Y11.1865
X1.6197Y11.2792
X1.6572Y11.3719
X3.21Y5.5831
X3.21Y5.4831
X3.21Y5.3831
X3.21Y5.2831
X1.7697Y-1.1555
X1.8313Y-1.0767
X1.8928Y-0.9979
X1.9544Y-0.9191
X1.0404Y5.2057
X1.0778Y5.2985
X1.1153Y5.3912
X1.1527Y5.4839
X1.1902Y5.5766
X1.2277Y5.6693
X1.2651Y5.762
X1.3026Y5.8548
X1.34Y5.9475
X1.3775Y6.0402
X1.415Y6.1329
X1.4524Y6.2256
X1.4899Y6.3184
X1.5273Y6.4111
X1.5648Y6.5038
X1.6023Y6.5965
X1.6397Y6.6892
X1.6772Y6.7819
X1.0004Y8.5105
X1.0803Y8.4504
X1.1601Y8.3902
X1.24Y8.33
X5.5836Y4.5909
X5.6437Y4.511
X5.7039Y4.4311
X5.7641Y4.3513
X5.1391Y8.3336
X5.219Y8.3937
X5.2989Y8.4539
X5.3787Y8.5141
X4.4636Y3.7509
X4.5237Y3.671
X4.5839Y3.5911
X4.6441Y3.5113
X3.21Y0.9031
X3.21Y0.8031
X3.21Y0.7031
X3.21Y0.6031
T4
X4.9707Y11.9094
X5.1462Y11.475
X5.1842Y11.9065
X5.2586Y11.633
X6.0182Y11.3136
X6.1937Y10.8792
X6.2317Y11.3107
X6.3061Y11.0371
X0.8926Y-0.5516
X1.0859Y-0.5666
X1.1746Y-0.1774
X1.282Y-0.3619
X6.7855Y11.4113
X6.961Y10.9769
X6.999Y11.4084
X7.0734Y11.1348
X-1.2176Y11.4031
X-1.0421Y11.8375
X-1.0271Y11.4386
X-0.8906Y11.6871
X6.2984Y10.62
X6.4739Y10.1856
X6.5119Y10.6171
X6.5863Y10.3436
X4.2525Y5.1528
X4.428Y4.7185
X4.466Y5.1499
X4.5404Y4.8764
X4.7089Y6.0201
X4.8844Y5.5857
X4.9224Y6.0172
X4.9968Y5.7437
X-1.4978Y10.7095
X-1.3223Y11.1439
X-1.3073Y10.7451
X-1.1708Y10.9935
X0.3911Y9.3944
X0.5666Y9.8287
X0.5817Y9.4299
X0.7182Y9.6783
X4.646Y-0.6276
X4.853Y-0.5751
X4.9279Y-1.0017
X4.9956Y-0.8201
X5.8113Y9.8287
X5.9868Y9.3944
X6.0248Y9.8258
X6.0992Y9.5523
X1.2522Y4.8892
X1.4277Y5.3236
X1.4427Y4.9247
X1.5792Y5.1732
X4.4299Y6.7107
X4.6054Y6.2763
X4.6433Y6.7078
X4.7178Y6.4342
X3.692Y6.54
X3.8676Y6.1056
X3.9055Y6.5371
X3.98Y6.2635
X6.5786Y9.9264
X6.7541Y9.4921
X6.7921Y9.9235
X6.8666Y9.65
X7.4201Y11.8375
X7.5956Y11.4031
X7.6336Y11.8346
X7.708Y11.561
X0.9515Y10.7815
X1.1271Y11.2159
X1.1421Y10.817
X1.2786Y11.0655
X3.9723Y5.8464
X4.1478Y5.412
X4.1858Y5.8435
X4.2602Y5.57
X0.1842Y10.8792
X0.3597Y11.3136
X0.3748Y10.9147
X0.5113Y11.1632
X-0.9374Y12.0967
X-0.7619Y12.5311
X-0.7468Y12.1322
X-0.6104Y12.3807
X0.6713Y10.0879
X0.8468Y10.5223
X0.8619Y10.1234
X0.9984Y10.3719
X0.4645Y11.5727
X0.64Y12.0071
X0.655Y11.6083
X0.7915Y11.8567
X-0.8633Y10.2833
X-0.6878Y10.7177
X-0.6727Y10.3188
X-0.5362Y10.5673
X5.2434Y-0.1774
X5.4504Y-0.125
X5.5253Y-0.5516
X5.593Y-0.3699
X1.5324Y5.5827
X1.7079Y6.0171
X1.7229Y5.6183
X1.8594Y5.8667
X4.9903Y5.3236
X5.1658Y4.8892
X5.2038Y5.3206
X5.2782Y5.0471
X2.2702Y5.412
X2.4457Y5.8464
X2.4608Y5.4476
X2.5972Y5.696
X1.8126Y6.2763
X1.9881Y6.7107
X2.0032Y6.3118
X2.1396Y6.5603
X5.5311Y10.5223
X5.7066Y10.0879
X5.7446Y10.5194
X5.819Y10.2459
X7.0657Y10.7177
X7.2412Y10.2833
X7.2792Y10.7148
X7.3536Y10.4413
X-0.3762Y9.4921
X-0.2007Y9.9264
X-0.1856Y9.5276
X-0.0491Y9.776
X5.2509Y11.2159
X5.4264Y10.7815
X5.4644Y11.213
X5.5388Y10.9394
X1.99Y4.7185
X2.1655Y5.1528
X2.1805Y4.754
X2.317Y5.0025
X7.7003Y11.1439
X7.8758Y10.7095
X7.9138Y11.141
X7.9882Y10.8675
X-0.5831Y10.9769
X-0.4076Y11.4113
X-0.3925Y11.0124
X-0.256Y11.2609
X1.2318Y11.475
X1.4073Y11.9094
X1.4223Y11.5106
X1.5588Y11.759
X-0.3028Y11.6704
X-0.1273Y12.1048
X-0.1123Y11.706
X0.0242Y11.9544
X5.738Y12.0071
X5.9135Y11.5727
X5.9515Y12.0042
X6.0259Y11.7307
X1.49Y-1.0017
X1.6833Y-1.0167
X1.772Y-0.6276
X1.8794Y-0.8121
X6.5053Y12.1048
X6.6808Y11.6704
X6.7188Y12.1019
X6.7932Y11.8284
X2.5504Y6.1056
X2.7259Y6.54
X2.741Y6.1411
X2.8774Y6.3896
X7.1399Y12.5311
X7.3154Y12.0967
X7.3534Y12.5281
X7.4278Y12.2546
X-0.096Y10.1856
X0.0795Y10.62
X0.0946Y10.2211
X0.2311Y10.4696
T2
G00X3.0678Y6.4808
M15
G01X3.0678Y6.4335
M16
G05
G00X3.0678Y6.3036
M15
G01X3.0678Y6.2564
M16
G05
G00X3.3552Y6.4808
M15
G01X3.3552Y6.4335
M16
G05
G00X3.3552Y6.3036
M15
G01X3.3552Y6.2564
M16
G05
T5
G00X5.6503Y11.8334
M15
G01X5.6731Y11.8963
M16
G05
G00X5.8481Y11.9986
M15
G01X5.8432Y12.0135
M16
G05
G00X1.5779Y-0.6419
M15
G01X1.6436Y-0.629
M16
G05
G00X1.8213Y-0.7264
M15
G01X1.8316Y-0.7145
M16
G05
G00X6.4176Y11.9311
M15
G01X6.4404Y11.994
M16
G05
G00X6.6154Y12.0963
M15
G01X6.6105Y12.1112
M16
G05
G00X2.5422Y6.4759
M15
G01X2.6023Y6.5053
M16
G05
G00X2.7991Y6.4573
M15
G01X2.806Y6.4715
M16
G05
G00X7.0522Y12.3573
M15
G01X7.075Y12.4203
M16
G05
G00X7.25Y12.5225
M15
G01X7.2451Y12.5375
M16
G05
G00X-0.1042Y10.5559
M15
G01X-0.0441Y10.5854
M16
G05
G00X0.1528Y10.5374
M15
G01X0.1597Y10.5515
M16
G05
G00X4.883Y11.7357
M15
G01X4.9058Y11.7986
M16
G05
G00X5.0808Y11.9009
M15
G01X5.0759Y11.9158
M16
G05
G00X5.9305Y11.1398
M15
G01X5.9533Y11.2028
M16
G05
G00X6.1283Y11.305
M15
G01X6.1234Y11.32
M16
G05
G00X0.9805Y-0.1917
M15
G01X1.0462Y-0.1789
M16
G05
G00X1.2239Y-0.2762
M15
G01X1.2342Y-0.2643
M16
G05
G00X6.6978Y11.2375
M15
G01X6.7206Y11.3005
M16
G05
G00X6.8956Y11.4027
M15
G01X6.8907Y11.4177
M16
G05
G00X-1.2259Y11.7734
M15
G01X-1.1658Y11.8029
M16
G05
G00X-0.9689Y11.7548
M15
G01X-0.962Y11.769
M16
G05
G00X6.2108Y10.4463
M15
G01X6.2335Y10.5092
M16
G05
G00X6.4085Y10.6114
M15
G01X6.4036Y10.6264
M16
G05
G00X4.1648Y4.9791
M15
G01X4.1876Y5.042
M16
G05
G00X4.3626Y5.1443
M15
G01X4.3577Y5.1592
M16
G05
G00X4.6212Y5.8464
M15
G01X4.644Y5.9093
M16
G05
G00X4.819Y6.0115
M15
G01X4.8141Y6.0265
M16
G05
G00X-1.5061Y11.0799
M15
G01X-1.446Y11.1093
M16
G05
G00X-1.2491Y11.0613
M15
G01X-1.2422Y11.0755
M16
G05
G00X0.3829Y9.7647
M15
G01X0.443Y9.7941
M16
G05
G00X0.6399Y9.7461
M15
G01X0.6467Y9.7603
M16
G05
G00X4.6063Y-0.8181
M15
G01X4.612Y-0.7514
M16
G05
G00X4.7546Y-0.6074
M15
G01X4.746Y-0.5942
M16
G05
G00X5.7237Y9.655
M15
G01X5.7465Y9.7179
M16
G05
G00X5.9214Y9.8202
M15
G01X5.9165Y9.8351
M16
G05
G00X1.2439Y5.2595
M15
G01X1.304Y5.2889
M16
G05
G00X1.5009Y5.2409
M15
G01X1.5078Y5.2551
M16
G05
G00X4.3422Y6.5369
M15
G01X4.365Y6.5999
M16
G05
G00X4.54Y6.7021
M15
G01X4.5351Y6.7171
M16
G05
G00X3.6044Y6.3662
M15
G01X3.6272Y6.4292
M16
G05
G00X3.8022Y6.5314
M15
G01X3.7973Y6.5464
M16
G05
G00X6.491Y9.7527
M15
G01X6.5138Y9.8156
M16
G05
G00X6.6887Y9.9179
M15
G01X6.6839Y9.9328
M16
G05
G00X7.3324Y11.6638
M15
G01X7.3552Y11.7267
M16
G05
G00X7.5302Y11.8289
M15
G01X7.5253Y11.8439
M16
G05
G00X0.9433Y11.1518
M15
G01X1.0034Y11.1812
M16
G05
G00X1.2003Y11.1332
M15
G01X1.2072Y11.1474
M16
G05
G00X3.8846Y5.6727
M15
G01X3.9074Y5.7356
M16
G05
G00X4.0824Y5.8378
M15
G01X4.0775Y5.8528
M16
G05
G00X0.176Y11.2495
M15
G01X0.2361Y11.2789
M16
G05
G00X0.433Y11.2309
M15
G01X0.4399Y11.2451
M16
G05
G00X-0.9457Y12.467
M15
G01X-0.8856Y12.4964
M16
G05
G00X-0.6887Y12.4484
M15
G01X-0.6818Y12.4626
M16
G05
G00X0.6631Y10.4582
M15
G01X0.7232Y10.4877
M16
G05
G00X0.9201Y10.4397
M15
G01X0.927Y10.4538
M16
G05
G00X0.4562Y11.943
M15
G01X0.5163Y11.9725
M16
G05
G00X0.7132Y11.9245
M15
G01X0.7201Y11.9386
M16
G05
G00X-0.8715Y10.6536
M15
G01X-0.8114Y10.6831
M16
G05
G00X-0.6145Y10.6351
M15
G01X-0.6077Y10.6492
M16
G05
G00X5.2037Y-0.3679
M15
G01X5.2094Y-0.3012
M16
G05
G00X5.352Y-0.1572
M15
G01X5.3434Y-0.144
M16
G05
G00X1.5241Y5.953
M15
G01X1.5842Y5.9825
M16
G05
G00X1.7811Y5.9345
M15
G01X1.788Y5.9486
M16
G05
G00X4.9026Y5.1498
M15
G01X4.9254Y5.2127
M16
G05
G00X5.1004Y5.315
M15
G01X5.0955Y5.33
M16
G05
G00X2.2619Y5.7823
M15
G01X2.322Y5.8118
M16
G05
G00X2.5189Y5.7638
M15
G01X2.5258Y5.7779
M16
G05
G00X1.8043Y6.6466
M15
G01X1.8644Y6.676
M16
G05
G00X2.0613Y6.628
M15
G01X2.0682Y6.6422
M16
G05
G00X5.4435Y10.3486
M15
G01X5.4662Y10.4115
M16
G05
G00X5.6412Y10.5137
M15
G01X5.6363Y10.5287
M16
G05
G00X6.9781Y10.544
M15
G01X7.0008Y10.6069
M16
G05
G00X7.1758Y10.7091
M15
G01X7.1709Y10.7241
M16
G05
G00X-0.3844Y9.8624
M15
G01X-0.3243Y9.8918
M16
G05
G00X-0.1274Y9.8438
M15
G01X-0.1206Y9.858
M16
G05
G00X5.1632Y11.0421
M15
G01X5.186Y11.1051
M16
G05
G00X5.361Y11.2073
M15
G01X5.3561Y11.2223
M16
G05
G00X1.9817Y5.0888
M15
G01X2.0418Y5.1182
M16
G05
G00X2.2387Y5.0702
M15
G01X2.2456Y5.0844
M16
G05
G00X7.6126Y10.9702
M15
G01X7.6354Y11.0331
M16
G05
G00X7.8104Y11.1354
M15
G01X7.8055Y11.1503
M16
G05
G00X-0.5913Y11.3472
M15
G01X-0.5312Y11.3766
M16
G05
G00X-0.3343Y11.3286
M15
G01X-0.3274Y11.3428
M16
G05
G00X1.2235Y11.8453
M15
G01X1.2836Y11.8748
M16
G05
G00X1.4805Y11.8268
M15
G01X1.4874Y11.8409
M16
G05
G00X-0.3111Y12.0407
M15
G01X-0.251Y12.0702
M16
G05
G00X-0.0541Y12.0222
M15
G01X-0.0472Y12.0363
M16
G05
T0
M30
